<svg width="173" height="177" viewBox="0 0 173 177" fill="none" xmlns="http://www.w3.org/2000/svg">
<g id="leaf">
<g id="Group">
<path id="Vector" d="M70.0729 44.1147C71.1129 45.4747 73.1729 45.6847 74.3629 44.4647L74.3829 44.4447C76.2829 42.4547 76.5829 39.3947 76.0629 36.6947C75.5429 33.9947 74.3429 31.4847 73.6129 28.8347C70.8629 18.9347 75.5529 7.46471 84.4429 2.33471C81.3129 10.0347 79.8429 18.7847 83.7129 26.1447C84.6929 28.0147 86.6429 29.9047 88.6329 29.2147C90.2629 28.6447 90.8729 26.6847 91.1029 24.9747C91.9729 18.7347 90.8829 12.4047 90.7029 6.11471C90.6529 4.29471 90.8229 2.19471 92.3129 1.15471C93.3029 0.464708 94.6029 0.464704 95.8029 0.524704C107.793 1.1447 119.563 5.39471 129.193 12.5747C124.293 15.2847 118.703 15.9247 113.533 18.0847C104.883 21.6947 99.0429 31.1447 99.6929 40.4947C99.8029 42.1047 100.113 43.7647 101.073 45.0547C102.033 46.3547 103.773 47.1747 105.293 46.6347C107.203 45.9647 107.893 43.6547 108.133 41.6447C108.773 36.3147 108.213 30.5347 111.043 25.9747C114.033 21.1547 119.993 19.1347 125.573 18.1447C130.333 17.3047 135.373 16.9747 139.863 18.7447C147.293 21.6647 149.883 30.9747 155.113 37.0047C157.723 40.0147 160.393 43.1147 161.773 46.8547C150.253 43.3547 137.773 43.0847 126.123 46.0947C121.293 47.3347 116.323 49.3447 113.453 53.4147C112.693 54.4847 112.103 55.9547 112.793 57.0747C113.073 57.5247 113.513 57.8347 113.963 58.1147C115.123 58.8347 116.353 59.4547 117.673 59.8047C126.763 62.2047 135.153 57.9047 143.943 57.7847C153.133 57.6647 162.243 62.4947 167.303 70.1647C171.433 76.4347 171.783 83.4847 171.833 90.9947C171.833 91.4947 171.833 92.0147 171.573 92.4447C170.783 93.7547 168.783 93.0047 167.533 92.1347C157.033 84.8547 145.483 78.1347 132.733 77.1947C131.673 77.1147 130.523 77.0947 129.633 77.6747C128.733 78.2547 128.313 79.6547 129.073 80.4047C129.413 80.7347 129.893 80.8647 130.343 80.9847C137.763 82.9147 145.253 84.8747 152.093 88.3447C158.933 91.8147 165.163 96.9647 168.563 103.835C171.333 109.425 168.413 116.155 166.063 121.935C155.993 108.015 139.763 98.4647 122.633 97.1647C119.873 96.9547 116.453 97.3147 115.333 99.8547C118.683 101.965 122.513 103.135 126.253 104.435C136.463 108.005 146.393 112.805 154.553 119.895C157.353 122.325 160.023 125.185 161.003 128.765C162.083 132.735 160.913 136.955 159.373 140.765C158.823 142.135 157.743 143.745 156.303 143.415C155.563 143.245 155.043 142.585 154.573 141.995C148.223 134.045 138.223 129.885 129.403 125.275C127.063 124.055 124.443 123.255 121.803 123.505C121.543 123.525 121.293 123.595 121.073 123.735C120.373 124.175 120.273 125.215 120.633 125.965C120.993 126.715 121.683 127.235 122.353 127.735C129.503 133.035 136.653 138.325 143.803 143.625C146.733 145.795 149.963 148.535 149.923 152.185C149.903 153.985 149.053 155.665 148.233 157.265C145.033 163.455 141.833 169.645 138.633 175.845C137.503 175.935 136.463 175.305 135.343 175.135C127.283 173.865 119.233 172.585 111.173 171.315C110.043 171.135 108.873 170.945 107.913 170.315C105.703 168.855 105.463 165.755 105.563 163.105C105.783 156.705 106.583 150.315 107.943 144.055C108.373 142.105 107.893 139.855 106.203 138.785C106.193 138.785 106.183 138.775 106.173 138.765C105.663 138.475 105.023 138.785 104.573 139.165C102.753 140.695 102.143 143.205 101.743 145.555C100.183 154.645 100.183 163.995 101.723 173.085C98.9629 171.055 95.7129 170.925 92.2729 170.435C90.6029 170.195 88.9529 169.635 87.6229 168.595C84.3029 166.005 85.3929 162.885 86.0829 159.975C87.4529 154.165 87.1929 148.065 88.5429 142.245C90.0629 135.715 93.5529 129.785 95.2529 123.305C95.5029 122.355 95.6129 121.135 94.7829 120.605C94.3529 120.325 93.7929 120.345 93.2929 120.445C89.8729 121.065 87.5629 124.245 85.9429 127.315C79.2029 140.085 78.2029 155.755 83.2629 169.275C78.7129 168.705 75.0029 166.845 70.9229 164.745C69.4929 164.015 68.0829 163.165 67.0829 161.905C65.6129 160.065 65.2229 157.595 65.0429 155.245C64.2029 144.235 66.9429 132.995 72.7329 123.595C74.2129 121.195 75.8829 118.915 77.1929 116.425C78.6229 113.695 79.6029 110.735 80.0829 107.695C73.7329 110.205 69.5129 116.295 66.7029 122.515C61.2129 134.675 59.7429 148.615 62.5529 161.655C59.3029 159.905 56.1229 157.475 52.8629 155.715C51.5029 154.985 50.1129 154.225 49.1329 153.035C46.6429 150.005 47.6529 145.515 48.8429 141.785C52.5729 130.085 56.8229 118.395 63.5829 108.145C64.8629 106.205 66.2929 104.095 66.0429 101.785C63.6329 101.905 61.6729 103.745 60.1329 105.605C54.4729 112.435 51.2429 120.915 48.1229 129.225C45.7129 135.645 43.2729 142.265 43.4729 149.115C39.8529 146.975 36.3129 144.565 33.2829 141.655C31.6429 140.085 30.0329 138.265 29.6729 136.015C29.3929 134.255 29.9229 132.465 30.4729 130.765C31.4529 127.715 32.4929 124.695 33.5929 121.695C34.8229 118.355 36.1129 114.995 38.0129 111.985C40.0629 108.735 42.7629 105.955 44.9129 102.785C46.1329 100.995 47.1629 99.0847 48.1929 97.1747C48.7929 96.0647 49.4129 94.7847 49.0229 93.5747C48.6029 92.2647 47.0629 91.5747 45.6929 91.7347C44.2429 91.8947 42.9729 92.8047 41.8829 93.7647C39.3629 95.9947 37.3329 98.7047 35.7629 101.675C30.5129 111.605 23.8829 122.695 25.6229 134.125C23.2429 132.005 20.8429 130.025 18.7229 127.655C16.7429 125.455 14.7929 122.925 14.6629 119.975C14.5929 118.465 15.0229 116.985 15.5029 115.565C18.7729 105.965 25.2829 97.5047 33.7229 91.8747C37.5529 89.3147 41.8429 87.2647 44.8729 83.7947C45.6029 82.9547 46.2829 81.8947 46.0629 80.8047C45.8429 79.7147 44.7329 78.9847 43.6329 78.8547C42.5329 78.7247 41.4329 79.0747 40.3929 79.4747C33.0129 82.2947 26.8429 87.5347 21.0929 92.9447C17.7829 96.0547 14.5029 99.3347 12.4029 103.365C10.3029 107.395 9.52292 112.345 11.3729 116.495C6.62292 113.405 4.92292 107.875 3.50292 102.375C2.38292 98.0547 1.49291 93.6847 0.862908 89.2647C0.442908 86.2747 0.152918 83.1047 1.37292 80.3447C2.57292 77.6147 5.05292 75.7047 7.43292 73.9147C11.2329 71.0547 15.1029 68.1447 19.5629 66.4947C22.4929 65.4147 25.6029 64.9047 28.6829 64.3947C33.5829 63.5947 38.4929 62.7947 43.3929 61.9947C44.5829 61.8047 45.8129 61.5947 46.8229 60.9247C47.8329 60.2547 48.5629 59.0147 48.2529 57.8547C47.9529 56.7547 46.8629 56.0647 45.7929 55.6547C42.7529 54.4747 39.3829 54.6047 36.1429 54.8747C30.3329 55.3647 24.3929 56.3247 19.3429 59.2547C13.8529 62.4447 9.89292 67.6647 6.09292 72.7547C6.03292 63.4447 5.7229 53.4647 10.5729 45.5147C11.7229 43.6247 13.1929 41.8247 15.1729 40.8247C16.4929 40.1547 17.9729 39.8747 19.4429 39.6947C24.5529 39.0847 29.8029 39.7247 34.6129 41.5347C38.0829 42.8347 41.6229 44.7747 45.2629 44.0547C45.7029 43.9647 46.1529 43.8347 46.5029 43.5447C47.6729 42.5647 46.9729 40.6447 46.0229 39.4447C41.5529 33.8147 33.5329 31.8547 26.4729 33.2447C24.0929 33.7147 21.6829 34.5147 19.2829 34.1047C21.9129 28.9247 28.2729 27.0747 33.9729 25.9547C37.1629 25.3247 40.4029 24.7547 43.6529 24.9047C52.0229 25.2847 59.5929 30.4747 64.7629 37.0647C66.5229 39.3147 68.2829 41.8247 70.0729 44.1547V44.1147Z" stroke="#5C683F" stroke-linecap="round" stroke-linejoin="round"/>
<path id="Vector_2" d="M73.3129 45.1847C81.5429 59.2547 89.6429 73.0547 94.4429 88.6247C96.5729 95.5447 98.0129 102.705 100.763 109.415C104.953 119.615 112.033 128.335 117.543 137.895C124.833 150.525 129.513 164.805 138.943 175.935" stroke="#5C683F" stroke-linecap="round" stroke-linejoin="round"/>
<path id="Vector_3" d="M94.6829 88.5047C96.5529 88.6947 98.4429 88.4747 100.323 88.2947C117.833 86.6547 135.753 89.6947 151.743 96.9947" stroke="#5C683F" stroke-linecap="round" stroke-linejoin="round"/>
<path id="Vector_4" d="M90.5329 77.8947C96.2429 72.8747 103.463 68.1947 110.743 66.0147C118.023 63.8347 125.923 63.5147 133.253 65.5347C138.953 67.1047 144.473 70.0947 150.363 69.6947" stroke="#5C683F" stroke-linecap="round" stroke-linejoin="round"/>
<path id="Vector_5" d="M83.7529 62.9747C88.2729 63.8347 92.8429 61.8247 96.7529 59.4047C101.833 56.2647 106.413 52.3347 110.293 47.7947C114.383 43.0047 117.983 37.3247 123.763 34.8247" stroke="#5C683F" stroke-linecap="round" stroke-linejoin="round"/>
<path id="Vector_6" d="M81.0729 57.9847C81.6729 58.0747 82.1529 57.5047 82.4729 56.9847C86.4229 50.6447 87.8329 43.0947 90.6729 36.1847C91.4729 34.2347 92.3929 32.3347 93.3129 30.4247C94.7329 27.4747 96.1629 24.5347 97.5829 21.5847" stroke="#5C683F" stroke-linecap="round" stroke-linejoin="round"/>
<path id="Vector_7" d="M76.4229 50.2047C80.7329 46.6047 81.7229 40.2947 81.0329 34.7147C80.3429 29.1347 78.3129 23.7847 77.7729 18.1847" stroke="#5C683F" stroke-linecap="round" stroke-linejoin="round"/>
<path id="Vector_8" d="M75.0129 48.0247C72.1929 48.5347 69.7929 47.0847 67.3329 45.5947C64.5629 43.9247 61.8829 42.0947 59.3129 40.1047C56.7429 38.1147 54.2629 35.9647 51.4129 34.3947C48.3429 32.7047 44.8729 31.7347 41.3629 31.5847" stroke="#5C683F" stroke-linecap="round" stroke-linejoin="round"/>
<path id="Vector_9" d="M82.4629 61.1547C75.9729 62.9147 69.5729 61.8547 62.9829 63.1247C51.8729 65.2647 42.5829 73.0447 31.6329 75.8847" stroke="#5C683F" stroke-linecap="round" stroke-linejoin="round"/>
<path id="Vector_10" d="M43.5229 117.565C45.0829 113.775 46.6429 109.985 48.2029 106.195C48.8929 104.515 49.5929 102.825 50.4129 101.205C55.7329 90.7747 66.4529 83.6247 77.9429 81.3847C82.3829 80.5247 86.4729 80.5147 90.6529 78.8047" stroke="#5C683F" stroke-linecap="round" stroke-linejoin="round"/>
<path id="Vector_11" d="M97.8229 100.735C96.8829 103.545 94.7129 104.645 92.6529 106.785C87.9429 111.665 83.5329 116.835 79.4429 122.245C75.4129 127.565 71.5729 133.495 71.2129 140.155" stroke="#5C683F" stroke-linecap="round" stroke-linejoin="round"/>
<path id="Vector_12" d="M104.983 117.895C103.533 122.165 100.873 126.145 98.5829 130.025C94.7529 136.515 93.8129 144.255 93.2029 151.765" stroke="#5C683F" stroke-linecap="round" stroke-linejoin="round"/>
<path id="Vector_13" d="M137.853 117.595C127.163 113.055 115.003 112.055 103.703 114.785" stroke="#5C683F" stroke-linecap="round" stroke-linejoin="round"/>
<path id="Vector_14" d="M119.833 142.055C119.703 143.605 119.183 144.305 118.633 145.765C116.973 150.155 115.983 154.795 115.683 159.475" stroke="#5C683F" stroke-linecap="round" stroke-linejoin="round"/>
<path id="Vector_15" d="M139.583 156.145C137.023 154.955 134.473 153.775 131.913 152.585C129.553 151.495 127.063 150.375 124.473 150.615" stroke="#5C683F" stroke-linecap="round" stroke-linejoin="round"/>
<path id="Vector_16" d="M94.4729 115.385C93.9929 115.885 93.1829 116.335 92.6529 115.885C92.4729 115.735 92.3729 115.505 92.2929 115.275C91.5729 113.185 92.3629 110.845 93.6029 109.015C95.0729 106.845 96.5029 108.195 96.4929 110.275C96.4929 112.145 95.7629 114.025 94.4729 115.385Z" stroke="#5C683F" stroke-linecap="round" stroke-linejoin="round"/>
<path id="Vector_17" d="M113.603 92.2547C113.823 92.3847 114.053 92.5647 114.073 92.8147C114.083 92.9547 114.023 93.0947 113.963 93.2147C112.943 95.2947 110.423 96.1947 108.113 96.3547C107.023 96.4247 105.853 96.3547 104.973 95.7247C102.613 94.0147 104.813 92.2347 106.543 91.6247C108.843 90.8147 111.483 90.9747 113.593 92.2547H113.603Z" stroke="#5C683F" stroke-linecap="round" stroke-linejoin="round"/>
<path id="Vector_18" d="M120.233 73.8947C120.793 73.6847 121.383 73.5247 121.973 73.6147C122.563 73.7047 123.133 74.0847 123.303 74.6547C123.433 75.1047 123.303 75.5747 123.113 76.0047C122.163 78.3247 119.983 80.0947 117.523 80.5547C116.703 80.7047 115.703 80.6647 115.213 79.9847C113.463 77.6247 118.583 74.4947 120.233 73.8847V73.8947Z" stroke="#5C683F" stroke-linecap="round" stroke-linejoin="round"/>
<path id="Vector_19" d="M108.853 70.9147C110.323 70.2147 111.833 69.5047 113.463 69.3847C114.033 69.3447 114.643 69.3847 115.093 69.7347C115.713 70.2047 115.853 71.1347 115.593 71.8747C115.333 72.6147 114.763 73.1947 114.173 73.7147C112.493 75.1947 110.503 76.3247 108.383 77.0547C107.003 77.5247 103.513 78.7147 102.143 77.8147C98.7529 75.5647 107.643 71.5047 108.853 70.9247V70.9147Z" stroke="#5C683F" stroke-linecap="round" stroke-linejoin="round"/>
<path id="Vector_20" d="M101.743 59.1047C102.123 59.0147 102.563 58.9547 102.893 59.1647C103.243 59.3847 103.383 59.8447 103.333 60.2547C103.283 60.6647 103.073 61.0347 102.853 61.3847C101.413 63.6847 99.4129 65.6247 97.0729 66.9847C96.3129 67.4247 95.4729 67.8247 94.6029 67.7747C94.2229 67.7547 93.8429 67.6447 93.5629 67.4047C90.2029 64.4947 99.8929 59.5547 101.753 59.1147L101.743 59.1047Z" stroke="#5C683F" stroke-linecap="round" stroke-linejoin="round"/>
<path id="Vector_21" d="M63.3929 69.3447C65.3929 68.1247 67.4929 66.9847 69.7929 66.5447C70.7729 66.3547 71.8129 66.3047 72.7629 66.6347C73.7129 66.9647 74.5429 67.7247 74.7529 68.7047C74.9729 69.7147 74.4829 70.7847 73.7529 71.5147C73.0229 72.2547 72.0729 72.7147 71.1429 73.1747C68.0329 74.7047 64.9129 76.2347 61.8029 77.7647C60.0629 78.6247 58.2829 79.4847 56.3729 79.8147C56.1229 79.8547 55.8529 79.8947 55.6129 79.7947C55.1229 79.5947 55.0029 78.9547 55.0129 78.4247C55.1129 73.7547 59.9329 71.4747 63.4029 69.3547L63.3929 69.3447Z" stroke="#5C683F" stroke-linecap="round" stroke-linejoin="round"/>
<path id="Vector_22" d="M58.2429 81.2047C59.7729 80.7747 61.6129 80.9147 62.6629 82.0947C62.8129 82.2547 62.9429 82.4447 62.9829 82.6547C63.0629 83.0647 62.8129 83.4547 62.5329 83.7647C60.9129 85.6147 58.2929 86.2347 55.8429 86.3747C54.2829 86.4647 52.3529 85.5047 53.4529 83.6447C54.1929 82.3947 56.9429 81.5647 58.2429 81.2047Z" stroke="#5C683F" stroke-linecap="round" stroke-linejoin="round"/>
<path id="Vector_23" d="M63.9829 48.5547C64.9729 48.8047 65.9729 49.0747 66.8729 49.5647C67.7729 50.0547 68.5629 50.8047 68.9129 51.7747C69.1529 52.4447 69.0929 53.3447 68.4629 53.7047C68.1629 53.8747 67.8029 53.8847 67.4629 53.8747C64.4229 53.8347 61.3829 53.3347 58.4829 52.3947C56.8029 51.8447 52.6429 49.8547 55.2529 47.7847C57.2529 46.1947 61.8429 48.0147 63.9929 48.5547H63.9829Z" stroke="#5C683F" stroke-linecap="round" stroke-linejoin="round"/>
<path id="Vector_24" d="M61.8729 57.1547C62.2329 57.3847 62.6029 57.7147 62.6029 58.1347C62.6029 58.3947 62.4629 58.6347 62.3129 58.8447C61.6129 59.7847 60.4829 60.3647 59.3229 60.5347C58.1629 60.7047 56.9629 60.4747 55.8829 60.0247C53.9829 59.2347 53.5329 56.8447 55.5529 56.1247C57.5329 55.4147 60.1729 56.0447 61.8729 57.1547Z" stroke="#5C683F" stroke-linecap="round" stroke-linejoin="round"/>
</g>
<g id="Group_2">
<path id="Vector_25" d="M131.593 172.875C127.843 172.425 124.143 171.645 120.533 170.545C124.243 171.265 127.913 172.045 131.593 172.875Z" fill="#5C683F"/>
<path id="Vector_26" d="M126.353 170.575C124.403 170.365 122.453 169.965 120.583 169.365C122.553 169.575 124.463 169.975 126.353 170.575Z" fill="#5C683F"/>
<path id="Vector_27" d="M125.283 169.105C123.843 169.045 122.443 168.785 121.073 168.335C122.513 168.395 123.913 168.655 125.283 169.105Z" fill="#5C683F"/>
<path id="Vector_28" d="M125.103 168.035C123.863 167.935 122.663 167.655 121.513 167.175C122.753 167.265 123.953 167.555 125.103 168.035Z" fill="#5C683F"/>
<path id="Vector_29" d="M125.033 166.965C123.883 166.685 122.813 166.315 121.733 165.845C122.903 165.935 124.053 166.325 125.033 166.965Z" fill="#5C683F"/>
<path id="Vector_30" d="M125.353 165.865C124.203 165.605 123.123 165.175 122.123 164.555C123.273 164.805 124.353 165.245 125.353 165.865Z" fill="#5C683F"/>
<path id="Vector_31" d="M126.413 165.065C124.943 164.695 123.553 164.025 122.363 163.085C123.753 163.685 125.083 164.335 126.413 165.065Z" fill="#5C683F"/>
<path id="Vector_32" d="M126.473 164.125C125.073 163.425 123.773 162.565 122.593 161.535C123.993 162.235 125.293 163.095 126.473 164.125Z" fill="#5C683F"/>
<path id="Vector_33" d="M127.043 163.415C125.513 162.575 124.173 161.355 123.183 159.905C124.463 161.105 125.723 162.255 127.043 163.415Z" fill="#5C683F"/>
<path id="Vector_34" d="M127.803 162.385C126.263 161.445 124.903 160.215 123.813 158.775C125.183 159.955 126.493 161.145 127.803 162.385Z" fill="#5C683F"/>
<path id="Vector_35" d="M127.663 160.665C126.233 159.235 124.953 157.675 123.833 155.985C125.263 157.415 126.533 158.985 127.663 160.665Z" fill="#5C683F"/>
<path id="Vector_36" d="M98.6329 165.455C98.2029 162.975 98.2429 160.395 98.7429 157.935C98.6329 160.455 98.5929 162.935 98.6329 165.455Z" fill="#5C683F"/>
<path id="Vector_37" d="M96.7329 164.245C96.7229 161.875 96.9029 159.525 97.2729 157.195C97.2929 159.565 97.1029 161.915 96.7329 164.245Z" fill="#5C683F"/>
<path id="Vector_38" d="M95.6829 164.145C95.6829 161.985 95.7529 159.855 95.8629 157.695C96.1429 159.835 96.0729 162.025 95.6829 164.145Z" fill="#5C683F"/>
<path id="Vector_39" d="M94.8029 163.315C94.6729 161.655 94.7429 159.995 95.0029 158.345C95.1329 160.005 95.0629 161.665 94.8029 163.315Z" fill="#5C683F"/>
<path id="Vector_40" d="M93.3129 163.145C93.2429 161.265 93.3729 159.405 93.7029 157.555C93.7729 159.435 93.6429 161.295 93.3129 163.145Z" fill="#5C683F"/>
<path id="Vector_41" d="M92.1729 162.535C92.0429 160.665 92.0929 158.795 92.3529 156.935C92.4929 158.805 92.4229 160.675 92.1729 162.535Z" fill="#5C683F"/>
<path id="Vector_42" d="M90.6029 161.175C90.6729 158.925 90.8329 156.695 91.0829 154.455C91.2329 156.705 91.0629 158.965 90.6029 161.175Z" fill="#5C683F"/>
<path id="Vector_43" d="M89.2429 161.235C89.4129 157.675 89.7729 154.155 90.3229 150.635C90.1629 154.185 89.7929 157.725 89.2429 161.235Z" fill="#5C683F"/>
<path id="Vector_44" d="M87.3829 160.325C87.6929 157.085 88.1829 153.875 88.8829 150.685C88.5829 153.925 88.0729 157.145 87.3829 160.325Z" fill="#5C683F"/>
<path id="Vector_45" d="M80.1129 137.845C80.2829 135.665 81.0529 133.515 82.3029 131.725C81.3929 133.715 80.6729 135.735 80.1129 137.845Z" fill="#5C683F"/>
<path id="Vector_46" d="M79.5929 134.895C79.9229 132.925 80.8029 131.015 82.0929 129.475C81.1329 131.235 80.3129 133.015 79.5929 134.895Z" fill="#5C683F"/>
<path id="Vector_47" d="M78.2329 134.045C78.8829 132.045 79.8729 130.155 81.1529 128.485C80.2029 130.365 79.2429 132.195 78.2329 134.045Z" fill="#5C683F"/>
<path id="Vector_48" d="M77.4629 133.405C78.0929 131.325 79.0429 129.345 80.2829 127.565C79.3829 129.545 78.4529 131.465 77.4629 133.405Z" fill="#5C683F"/>
<path id="Vector_49" d="M76.3629 132.825C76.7729 130.745 77.7829 128.745 79.2229 127.185C78.0929 128.995 77.1529 130.845 76.3629 132.825Z" fill="#5C683F"/>
<path id="Vector_50" d="M74.6329 133.035C75.1329 130.695 76.2729 128.455 77.8829 126.685C76.5829 128.705 75.5129 130.805 74.6329 133.035Z" fill="#5C683F"/>
<path id="Vector_51" d="M94.0329 92.0747C91.7729 93.0247 89.5329 93.9447 87.2429 94.8347C89.3529 93.5947 91.6529 92.6547 94.0329 92.0747Z" fill="#5C683F"/>
<path id="Vector_52" d="M93.2729 90.9147C91.4729 91.8647 89.5929 92.6347 87.6429 93.2247C89.4429 92.2747 91.3229 91.5047 93.2729 90.9147Z" fill="#5C683F"/>
<path id="Vector_53" d="M93.1229 89.6347C91.4929 90.4047 89.7929 90.9947 88.0429 91.3947C89.6729 90.6247 91.3729 90.0347 93.1229 89.6347Z" fill="#5C683F"/>
<path id="Vector_54" d="M92.6829 88.5847C91.3229 89.1247 89.9629 89.5747 88.5329 89.9347C89.8029 89.2047 91.2229 88.7547 92.6829 88.5847Z" fill="#5C683F"/>
<path id="Vector_55" d="M92.1829 87.3547C91.0729 87.9047 89.8929 88.2647 88.6729 88.4447C89.7829 87.8947 90.9629 87.5347 92.1829 87.3547Z" fill="#5C683F"/>
<path id="Vector_56" d="M92.0329 86.0747C90.5729 86.7047 89.0429 87.1547 87.4729 87.4047C88.9429 86.7747 90.4529 86.3247 92.0329 86.0747Z" fill="#5C683F"/>
<path id="Vector_57" d="M91.6329 84.5547C88.4929 85.4947 85.4229 86.5247 82.3429 87.6447C85.2529 86.1647 88.4029 85.1147 91.6329 84.5547Z" fill="#5C683F"/>
<path id="Vector_58" d="M91.0529 82.6447C89.0129 83.6247 86.9229 84.4147 84.7429 85.0247C86.7729 84.0547 88.8829 83.2547 91.0529 82.6447Z" fill="#5C683F"/>
<path id="Vector_59" d="M90.7429 81.2347C89.0629 82.0847 87.3229 82.7647 85.5029 83.2447C87.1829 82.3947 88.9229 81.7247 90.7429 81.2347Z" fill="#5C683F"/>
<path id="Vector_60" d="M80.1429 59.5647C78.4329 59.9547 76.6929 60.1547 74.9429 60.1547C76.6529 59.7647 78.3929 59.5747 80.1429 59.5647Z" fill="#5C683F"/>
<path id="Vector_61" d="M78.6529 58.3647C77.7029 58.5847 76.7429 58.6147 75.7829 58.4447C76.7329 58.2247 77.6929 58.1947 78.6529 58.3647Z" fill="#5C683F"/>
<path id="Vector_62" d="M78.0629 57.0047C77.3029 57.4147 76.3529 57.4747 75.5529 57.1647C76.4129 57.0847 77.1929 57.0347 78.0629 57.0047Z" fill="#5C683F"/>
<path id="Vector_63" d="M78.1929 55.3247C77.2129 55.5147 76.2229 55.5147 75.2429 55.3247C76.2229 55.1247 77.2129 55.1347 78.1929 55.3247Z" fill="#5C683F"/>
<path id="Vector_64" d="M76.7129 53.9247C75.7929 54.2347 74.7629 54.2147 73.8529 53.8747C74.8329 53.8247 75.7429 53.8447 76.7129 53.9247Z" fill="#5C683F"/>
<path id="Vector_65" d="M76.2229 52.4347C74.8329 52.4547 73.4529 52.2847 72.1129 51.9147C73.5029 51.8947 74.8829 52.0647 76.2229 52.4347Z" fill="#5C683F"/>
<path id="Vector_66" d="M48.7529 123.695C47.5929 127.335 46.2529 130.885 44.7229 134.385C45.8829 130.755 47.2229 127.185 48.7529 123.695Z" fill="#5C683F"/>
<path id="Vector_67" d="M46.2729 126.455C45.3729 129.415 44.2929 132.315 43.0329 135.145C43.9329 132.175 45.0129 129.285 46.2729 126.455Z" fill="#5C683F"/>
<path id="Vector_68" d="M44.1829 128.225C43.4429 130.705 42.5229 133.125 41.4229 135.465C42.1629 132.975 43.0829 130.575 44.1829 128.225Z" fill="#5C683F"/>
<path id="Vector_69" d="M42.6229 128.255C42.0629 130.525 41.3029 132.755 40.3729 134.895C40.9429 132.615 41.6929 130.405 42.6229 128.255Z" fill="#5C683F"/>
<path id="Vector_70" d="M41.5929 127.225C41.0229 129.245 40.2729 131.205 39.3329 133.085C39.9029 131.065 40.6629 129.105 41.5929 127.225Z" fill="#5C683F"/>
<path id="Vector_71" d="M40.7129 125.705C39.9429 127.965 38.9929 130.145 37.8629 132.255C38.6329 129.995 39.5829 127.815 40.7129 125.705Z" fill="#5C683F"/>
<path id="Vector_72" d="M39.0329 124.675C38.3529 126.905 37.4929 129.055 36.4429 131.135C37.1229 128.905 37.9929 126.755 39.0329 124.675Z" fill="#5C683F"/>
<path id="Vector_73" d="M37.8729 123.825C37.1629 125.795 36.2829 127.685 35.2229 129.485C35.9229 127.515 36.8129 125.625 37.8729 123.825Z" fill="#5C683F"/>
<path id="Vector_74" d="M36.8529 122.195C36.1629 124.005 35.4229 125.765 34.5829 127.505C35.0529 125.625 35.8229 123.825 36.8529 122.195Z" fill="#5C683F"/>
<path id="Vector_75" d="M37.5929 96.4847C37.0129 97.4947 36.2929 98.3947 35.4129 99.1547C35.9829 98.1447 36.7129 97.2447 37.5929 96.4847Z" fill="#5C683F"/>
<path id="Vector_76" d="M35.9829 96.8147C35.2429 97.7747 34.5129 98.6647 33.7029 99.5547C34.1829 98.4447 34.9829 97.4847 35.9829 96.8147Z" fill="#5C683F"/>
<path id="Vector_77" d="M34.9429 96.4547C33.8429 97.8547 32.6029 99.1247 31.2229 100.255C32.3229 98.8547 33.5629 97.5847 34.9429 96.4547Z" fill="#5C683F"/>
<path id="Vector_78" d="M33.8329 95.4647C32.7029 96.8647 31.5929 98.2147 30.4229 99.5847C31.2629 98.0047 32.4329 96.5847 33.8329 95.4647Z" fill="#5C683F"/>
<path id="Vector_79" d="M32.4729 95.3247C31.3229 96.5147 30.1529 97.6347 28.9129 98.7347C29.8629 97.3747 31.0829 96.2147 32.4729 95.3247Z" fill="#5C683F"/>
<path id="Vector_80" d="M31.3329 95.2247C30.0229 96.4347 28.7829 97.6547 27.5429 98.9447C28.4629 97.4147 29.7929 96.1147 31.3329 95.2247Z" fill="#5C683F"/>
<path id="Vector_81" d="M4.86292 104.615C6.74292 102.455 8.77292 100.405 10.9329 98.5147C9.04292 100.695 7.03292 102.715 4.86292 104.615Z" fill="#5C683F"/>
<path id="Vector_82" d="M5.64291 101.945C6.38291 100.795 7.28291 99.7747 8.32291 98.8847C7.58291 100.035 6.68291 101.055 5.64291 101.945Z" fill="#5C683F"/>
<path id="Vector_83" d="M5.44293 99.5247C6.43293 98.2647 7.58293 97.1147 8.84293 96.1247C7.84293 97.4047 6.72293 98.5247 5.44293 99.5247Z" fill="#5C683F"/>
<path id="Vector_84" d="M4.42291 97.8947C5.53291 96.2947 6.93291 94.8847 8.54291 93.7947C7.18291 95.1947 5.82291 96.5447 4.42291 97.8947Z" fill="#5C683F"/>
<path id="Vector_85" d="M4.48291 95.2047C5.26291 93.8847 6.34292 92.7447 7.61292 91.8947C6.60292 93.0447 5.57291 94.1347 4.48291 95.2047Z" fill="#5C683F"/>
<path id="Vector_86" d="M3.28293 93.2047C4.67293 91.3347 6.43291 89.7247 8.42291 88.5147C6.66291 90.0447 4.96293 91.5847 3.28293 93.2047Z" fill="#5C683F"/>
<path id="Vector_87" d="M3.54291 90.3447C5.26291 88.3047 7.40291 86.5747 9.76291 85.3247C7.60291 86.9147 5.55291 88.5747 3.54291 90.3447Z" fill="#5C683F"/>
<path id="Vector_88" d="M2.29291 88.6647C4.16291 86.5947 6.16293 84.6647 8.31293 82.8747C6.44293 84.9447 4.43291 86.8747 2.29291 88.6647Z" fill="#5C683F"/>
<path id="Vector_89" d="M2.27292 86.6147C3.67292 85.1047 5.23292 83.7147 6.90292 82.4847C5.48292 84.0147 3.95292 85.3747 2.27292 86.6147Z" fill="#5C683F"/>
<path id="Vector_90" d="M2.62292 84.4147C3.97292 82.7747 5.63291 81.3847 7.48291 80.3447L2.62292 84.4147Z" fill="#5C683F"/>
<path id="Vector_91" d="M1.86292 82.5147C3.28291 80.8747 5.00293 79.4947 6.91293 78.4647L1.86292 82.5147Z" fill="#5C683F"/>
<path id="Vector_92" d="M2.18292 80.2747C4.00292 78.4047 6.20293 76.8747 8.59293 75.8347C6.38293 77.2247 4.26292 78.6947 2.18292 80.2747Z" fill="#5C683F"/>
<path id="Vector_93" d="M35.5629 53.7347L27.0229 55.1847C29.7829 54.3247 32.6729 53.8347 35.5629 53.7347Z" fill="#5C683F"/>
<path id="Vector_94" d="M31.2029 52.9847C29.3429 53.5047 27.4629 53.8447 25.5329 53.9847C27.3829 53.4647 29.2829 53.1247 31.2029 52.9847Z" fill="#5C683F"/>
<path id="Vector_95" d="M30.0629 52.1247C28.3229 52.5947 26.5629 52.8847 24.7629 52.9647C26.4929 52.4947 28.2629 52.2147 30.0629 52.1247Z" fill="#5C683F"/>
<path id="Vector_96" d="M28.9229 50.9347C27.1629 51.4847 25.3029 51.7347 23.4529 51.6747C25.2729 51.3447 27.0729 51.1047 28.9229 50.9347Z" fill="#5C683F"/>
<path id="Vector_97" d="M28.9629 49.5447C26.9829 49.5747 25.0629 49.7647 23.1229 50.1147C24.9529 49.3847 27.0229 49.1847 28.9629 49.5447Z" fill="#5C683F"/>
<path id="Vector_98" d="M28.0329 47.6247C26.0829 47.6247 24.1729 47.6047 22.2229 47.5347C24.1429 47.2047 26.1229 47.2347 28.0329 47.6247Z" fill="#5C683F"/>
<path id="Vector_99" d="M27.9029 45.8247C25.7129 45.8047 23.5629 45.7747 21.3729 45.7247C23.5329 45.3747 25.7529 45.4147 27.9029 45.8247Z" fill="#5C683F"/>
<path id="Vector_100" d="M27.6129 43.5047C25.2329 43.7447 22.8429 43.7947 20.4529 43.6447C22.8329 43.4047 25.2229 43.3547 27.6129 43.5047Z" fill="#5C683F"/>
<path id="Vector_101" d="M26.8429 42.1147C24.0529 41.9447 21.2929 42.0147 18.5029 42.3047C21.2129 41.6247 24.1029 41.5647 26.8429 42.1147Z" fill="#5C683F"/>
<path id="Vector_102" d="M54.8829 35.0347C53.1629 34.4447 51.5429 33.6847 49.9929 32.7347C51.7029 33.3147 53.3429 34.0947 54.8829 35.0347Z" fill="#5C683F"/>
<path id="Vector_103" d="M53.8229 33.1147C52.5229 32.4447 50.6829 31.5047 49.3529 30.8447C50.9929 31.2247 52.5429 32.0247 53.8229 33.1147Z" fill="#5C683F"/>
<path id="Vector_104" d="M53.2429 31.3947C51.8129 30.6847 50.4329 30.0047 49.0129 29.2947C50.5629 29.6347 52.0329 30.3647 53.2429 31.3947Z" fill="#5C683F"/>
<path id="Vector_105" d="M52.9929 29.9147C51.5229 29.3247 50.1229 28.6947 48.7029 27.9947C50.2429 28.3247 51.7129 28.9847 52.9929 29.9147Z" fill="#5C683F"/>
<path id="Vector_106" d="M140.663 167.735C141.423 165.755 142.253 163.825 143.163 161.905C142.623 163.955 141.783 165.925 140.663 167.735Z" fill="#5C683F"/>
<path id="Vector_107" d="M139.853 167.025C140.393 165.365 140.823 163.735 141.183 162.025C141.223 163.765 140.753 165.535 139.853 167.025Z" fill="#5C683F"/>
<path id="Vector_108" d="M138.233 167.395C138.503 165.975 138.813 164.615 139.203 163.225C139.203 164.665 138.873 166.105 138.233 167.395Z" fill="#5C683F"/>
<path id="Vector_109" d="M137.273 165.775C137.403 164.525 137.563 163.345 137.773 162.115C137.963 163.345 137.783 164.645 137.273 165.775Z" fill="#5C683F"/>
<path id="Vector_110" d="M135.783 165.195C135.613 164.085 135.423 163.055 135.193 161.955C135.793 162.905 136.003 164.095 135.783 165.195Z" fill="#5C683F"/>
<path id="Vector_111" d="M134.183 164.265C133.853 163.235 133.623 162.245 133.473 161.175C134.003 162.105 134.253 163.195 134.183 164.265Z" fill="#5C683F"/>
<path id="Vector_112" d="M132.273 164.025C131.813 162.865 131.683 161.575 131.913 160.345C132.083 161.585 132.193 162.775 132.273 164.025Z" fill="#5C683F"/>
<path id="Vector_113" d="M150.703 135.775C148.163 134.255 146.303 131.915 144.113 129.975C146.563 131.615 148.403 133.945 150.703 135.775Z" fill="#5C683F"/>
<path id="Vector_114" d="M147.933 131.055C146.673 130.385 145.533 129.545 144.503 128.555C145.763 129.225 146.903 130.065 147.933 131.055Z" fill="#5C683F"/>
<path id="Vector_115" d="M148.423 129.375C147.073 128.615 145.843 127.685 144.723 126.615C146.073 127.375 147.303 128.305 148.423 129.375Z" fill="#5C683F"/>
<path id="Vector_116" d="M149.323 128.175C147.813 127.405 146.393 126.475 145.103 125.385C146.613 126.155 148.023 127.085 149.323 128.175Z" fill="#5C683F"/>
<path id="Vector_117" d="M149.463 126.485C147.913 125.815 146.493 124.825 145.343 123.585C146.753 124.525 148.103 125.475 149.463 126.485Z" fill="#5C683F"/>
<path id="Vector_118" d="M149.473 125.095C148.013 124.275 146.633 123.275 145.403 122.135C146.883 122.965 148.223 123.945 149.473 125.095Z" fill="#5C683F"/>
<path id="Vector_119" d="M149.203 123.405C147.483 122.425 145.853 121.275 144.363 119.985C146.093 120.965 147.693 122.105 149.203 123.405Z" fill="#5C683F"/>
<path id="Vector_120" d="M148.693 121.635C147.353 120.925 146.123 120.055 145.003 119.035C146.343 119.745 147.573 120.615 148.693 121.635Z" fill="#5C683F"/>
<path id="Vector_121" d="M149.063 120.425C147.413 119.605 145.863 118.625 144.433 117.475C146.083 118.295 147.623 119.275 149.063 120.425Z" fill="#5C683F"/>
<path id="Vector_122" d="M149.733 118.915C147.973 118.085 146.313 117.095 144.753 115.935C146.513 116.755 148.173 117.755 149.733 118.915Z" fill="#5C683F"/>
<path id="Vector_123" d="M147.763 116.415C146.213 115.465 144.683 114.575 143.113 113.675C144.843 114.215 146.453 115.165 147.763 116.415Z" fill="#5C683F"/>
<path id="Vector_124" d="M132.993 97.2747C130.883 97.0647 128.793 96.6747 126.753 96.0847C128.873 96.2847 130.953 96.6847 132.993 97.2747Z" fill="#5C683F"/>
<path id="Vector_125" d="M129.983 95.6647C128.593 95.7347 127.183 95.4947 125.893 94.9647C127.283 95.1147 128.623 95.3447 129.983 95.6647Z" fill="#5C683F"/>
<path id="Vector_126" d="M129.313 94.3347C127.853 94.2747 126.423 94.0247 125.023 93.5847C126.483 93.6447 127.913 93.8947 129.313 94.3347Z" fill="#5C683F"/>
<path id="Vector_127" d="M128.623 93.2247C127.243 93.1747 125.923 92.9447 124.613 92.5147C125.973 92.5547 127.333 92.7947 128.623 93.2247Z" fill="#5C683F"/>
<path id="Vector_128" d="M129.203 92.1347L123.403 90.8847C125.393 90.9147 127.383 91.3447 129.203 92.1347Z" fill="#5C683F"/>
<path id="Vector_129" d="M94.7829 87.3447C97.9829 86.5547 101.273 86.1247 104.563 86.0747C101.733 86.4747 97.6529 86.9747 94.7829 87.3447Z" fill="#5C683F"/>
<path id="Vector_130" d="M96.5229 85.8647C97.5729 85.5247 98.6529 85.3747 99.7529 85.4147C98.7029 85.7547 97.6229 85.9047 96.5229 85.8647Z" fill="#5C683F"/>
<path id="Vector_131" d="M95.7529 84.6847C96.9229 84.1447 98.2429 83.9247 99.5229 84.0547C98.2529 84.3147 97.0329 84.5147 95.7529 84.6847Z" fill="#5C683F"/>
<path id="Vector_132" d="M94.4529 82.9347C96.5029 82.2047 98.7529 81.9547 100.913 82.2147C98.7329 82.3447 96.6029 82.5747 94.4529 82.9347Z" fill="#5C683F"/>
<path id="Vector_133" d="M155.113 81.5947C152.273 80.5947 149.523 79.4247 146.833 78.0647C149.663 79.0547 152.433 80.2447 155.113 81.5947Z" fill="#5C683F"/>
<path id="Vector_134" d="M150.043 78.1747C148.653 77.5947 147.303 77.0547 145.893 76.5147C147.393 76.6647 148.853 77.2547 150.043 78.1747Z" fill="#5C683F"/>
<path id="Vector_135" d="M148.493 76.4847C147.113 76.1047 145.803 75.6547 144.483 75.0847C145.893 75.2647 147.263 75.7447 148.493 76.4847Z" fill="#5C683F"/>
<path id="Vector_136" d="M147.733 74.6047C146.073 74.2247 144.463 73.6547 142.933 72.9047C144.593 73.2847 146.193 73.8547 147.733 74.6047Z" fill="#5C683F"/>
<path id="Vector_137" d="M146.713 72.4547C145.063 72.3347 143.433 71.8047 142.033 70.9247C143.193 71.3147 145.543 72.0747 146.713 72.4547Z" fill="#5C683F"/>
<path id="Vector_138" d="M146.303 71.2547C145.113 70.9047 142.703 70.2247 141.503 69.8947C143.173 69.9547 144.843 70.4247 146.303 71.2547Z" fill="#5C683F"/>
<path id="Vector_139" d="M156.793 67.0747C153.473 66.3547 150.163 65.6947 146.823 65.0547C150.213 65.2947 153.573 65.9847 156.793 67.0747Z" fill="#5C683F"/>
<path id="Vector_140" d="M151.853 64.4147C150.243 64.2347 148.663 63.8647 147.143 63.3047C148.753 63.4847 150.333 63.8547 151.853 64.4147Z" fill="#5C683F"/>
<path id="Vector_141" d="M150.473 62.8947C149.053 62.6847 147.633 62.3347 146.313 61.7647C146.153 61.6447 146.373 61.4947 146.393 61.6247C146.363 61.5347 146.223 61.6547 146.353 61.7047C147.753 61.9647 149.153 62.3247 150.473 62.8947Z" fill="#5C683F"/>
<path id="Vector_142" d="M149.873 61.4247C148.583 61.4147 147.353 61.2147 146.123 60.8247C147.393 60.8247 148.663 61.0347 149.873 61.4247Z" fill="#5C683F"/>
<path id="Vector_143" d="M149.723 60.1947C148.513 60.0347 147.363 59.8647 146.163 59.6747C147.363 59.4647 148.633 59.6547 149.723 60.1947Z" fill="#5C683F"/>
<path id="Vector_144" d="M132.293 42.8847C129.103 43.3947 125.973 44.0547 122.843 44.8747C125.843 43.6847 129.063 43.0047 132.293 42.8847Z" fill="#5C683F"/>
<path id="Vector_145" d="M125.863 42.9447C124.463 43.5347 123.013 43.9447 121.503 44.1647C122.903 43.5647 124.353 43.1647 125.863 42.9447Z" fill="#5C683F"/>
<path id="Vector_146" d="M124.883 41.6747C123.523 42.4847 122.073 43.1147 120.553 43.5647C121.913 42.7547 123.363 42.1247 124.883 41.6747Z" fill="#5C683F"/>
<path id="Vector_147" d="M124.023 40.5847C122.593 41.3247 121.173 42.0047 119.693 42.6647C120.963 41.6747 122.453 40.9647 124.023 40.5847Z" fill="#5C683F"/>
<path id="Vector_148" d="M123.263 39.2447C121.973 39.9247 120.743 40.6047 119.463 41.3147C120.493 40.2847 121.833 39.5547 123.263 39.2447Z" fill="#5C683F"/>
<path id="Vector_149" d="M97.5329 37.3047C97.7829 34.9647 98.5529 32.6647 99.7829 30.6547C98.9129 32.8447 98.1729 35.0347 97.5329 37.3047Z" fill="#5C683F"/>
<path id="Vector_150" d="M96.3429 35.6647C96.6429 33.8847 97.3729 32.1647 98.4529 30.7147C97.7129 32.3647 97.0229 33.9847 96.3429 35.6647Z" fill="#5C683F"/>
<path id="Vector_151" d="M95.4929 34.2147C95.8229 33.0747 96.3229 32.0047 97.0129 31.0347C96.6829 32.1747 96.1729 33.2447 95.4929 34.2147Z" fill="#5C683F"/>
<path id="Vector_152" d="M94.5329 33.5647C95.0329 31.7747 96.0129 30.1047 97.3129 28.7847C96.3129 30.3547 95.4029 31.9147 94.5329 33.5647Z" fill="#5C683F"/>
<path id="Vector_153" d="M76.9029 26.3847C76.6929 24.8347 76.6729 23.2847 76.8529 21.7347C77.0629 23.2847 77.0829 24.8347 76.9029 26.3847Z" fill="#5C683F"/>
<path id="Vector_154" d="M75.8529 24.7447C75.6529 23.4947 75.6429 22.2347 75.8229 20.9847C76.0329 22.2347 76.0329 23.4947 75.8529 24.7447Z" fill="#5C683F"/>
<path id="Vector_155" d="M74.2929 24.1647C74.0729 22.3247 74.4029 20.3947 75.2329 18.7347C74.7729 20.5347 74.4629 22.3147 74.2929 24.1647Z" fill="#5C683F"/>
<path id="Vector_156" d="M80.8829 9.04471C80.5129 10.5547 79.9629 12.0047 79.2329 13.3747C79.6029 11.8647 80.1529 10.4147 80.8829 9.04471Z" fill="#5C683F"/>
<path id="Vector_157" d="M118.153 6.46469C117.183 7.36469 115.253 9.19469 114.293 10.1147C115.283 8.63469 116.623 7.37469 118.153 6.46469Z" fill="#5C683F"/>
<path id="Vector_158" d="M116.543 6.0547C115.683 7.0647 114.783 7.9747 113.793 8.8547C114.483 7.7247 115.423 6.7647 116.543 6.0547Z" fill="#5C683F"/>
<path id="Vector_159" d="M114.763 5.82471C113.903 6.78471 113.083 7.6947 112.203 8.6347C112.743 7.4747 113.653 6.47471 114.763 5.82471Z" fill="#5C683F"/>
<path id="Vector_160" d="M112.763 5.1947C111.443 6.8547 109.583 9.2347 108.283 10.9447C109.433 8.7947 110.963 6.8347 112.763 5.1947Z" fill="#5C683F"/>
<path id="Vector_161" d="M99.6629 1.48471C99.0129 2.64471 98.3529 3.73471 97.6129 4.83471C97.9929 3.56471 98.7129 2.40471 99.6629 1.48471Z" fill="#5C683F"/>
<path id="Vector_162" d="M98.2329 1.4447C97.5629 2.5247 97.0929 3.6047 96.7329 4.8247C96.6829 3.5647 97.2629 2.2547 98.2329 1.4447Z" fill="#5C683F"/>
<path id="Vector_163" d="M155.253 37.3347C153.423 37.6847 151.623 37.9647 149.773 38.1747C151.533 37.5847 153.393 37.2947 155.253 37.3347Z" fill="#5C683F"/>
<path id="Vector_164" d="M153.673 36.2047C152.503 36.4347 151.363 36.5547 150.173 36.5747C151.293 36.1747 152.493 36.0447 153.673 36.2047Z" fill="#5C683F"/>
<path id="Vector_165" d="M144.103 23.3847C143.033 23.8047 141.923 24.0447 140.773 24.0847C141.843 23.6647 142.953 23.4247 144.103 23.3847Z" fill="#5C683F"/>
<path id="Vector_166" d="M142.603 22.3347C140.963 22.6847 139.373 23.0447 137.733 23.4247C139.233 22.6647 140.923 22.2947 142.603 22.3347Z" fill="#5C683F"/>
</g>
</g>
</svg>
