<svg width="150" height="148" viewBox="0 0 150 148" fill="none" xmlns="http://www.w3.org/2000/svg">
<g id="leaf">
<g id="Group">
<path id="Vector" d="M107.79 32.7342C105.28 34.6042 101.59 33.8142 100.32 30.9542C100.32 30.9342 100.3 30.9142 100.3 30.8942C99.4999 29.0542 99.3899 26.9842 99.4799 24.9742C99.7099 19.3642 101.18 13.2342 98.18 8.50423C96.32 5.57423 93.06 3.82423 89.79 2.66423C81.79 -0.17577 72.83 -0.225765 64.81 2.54424C68.02 5.13424 72.06 7.11422 75.26 9.71422C78.46 12.3142 80.9 16.6442 79.45 20.5042C78.87 22.0342 77.56 23.4142 75.93 23.5142C74.49 23.6042 73.15 22.7042 72.05 21.8142C70.22 20.3342 68.58 18.6242 67.11 16.7742C63.96 12.8042 60.23 7.93422 55.02 6.34422C47.28 12.6642 39.84 18.8142 32.43 25.5242C30.11 27.6242 27.77 29.8342 26.4 32.6442C34.78 33.5242 43.06 31.1742 51.48 31.0342C57.72 30.9342 63.9 32.1242 70.02 33.3042C70.85 33.4642 71.71 33.6342 72.42 34.1042C73.13 34.5742 73.66 35.4142 73.49 36.2442C73.27 37.3542 72.03 37.8942 70.95 38.2242C61.58 41.0442 51.35 40.9742 42.05 37.8742C37.5 36.3642 32.72 35.7142 27.96 36.2942C25.35 36.6142 22.4 37.0742 19.94 38.4642C14.48 47.9642 9.80997 57.3142 5.47997 67.3742C21.13 61.8342 35.11 52.1542 51.65 50.7842C53.44 50.6342 55.32 50.6142 56.92 51.4342C56.9 52.3042 56.13 52.9442 55.42 53.4342C40.76 63.6742 21.84 65.3442 5.57998 72.7542C4.08998 73.4342 2.82999 74.6142 2.14999 76.1042C-1.09001 83.2342 1.32996 91.2942 1.96996 99.1042C6.94996 95.1942 12.45 90.9042 17.44 86.9942C25.51 80.6742 33.83 74.2242 43.63 71.2042C45.07 70.7542 46.6 70.3842 48.08 70.6742C49.56 70.9642 50.98 72.0742 51.16 73.5742C51.28 74.5742 50.84 75.5742 50.21 76.3642C49.08 77.7642 47.4 78.5842 45.76 79.3342C32.37 85.4442 17.69 89.6342 6.62997 99.3342C5.13997 100.634 3.70997 102.064 2.81997 103.824C4.10997 109.324 5.71996 114.174 7.99996 119.344C14.09 107.234 24.87 97.4642 37.03 91.4742C40.38 89.8242 44.27 88.4642 47.77 89.7742C48.51 90.0542 49.25 90.4742 49.66 91.1642C50.1 91.8942 50.1 92.8242 49.85 93.6442C49.35 95.3042 47.99 96.5442 46.67 97.6542C39.6 103.584 31.81 108.664 23.52 112.714C18.39 115.224 12.74 117.644 9.82998 122.554C11.24 126.284 11.98 130.394 12.16 134.374C12.22 135.744 12.21 137.144 12.52 138.474C12.73 139.384 13.44 140.114 14.31 140.454C22.9 143.804 31.7 147.204 40.92 147.504C44.84 137.564 46.6 126.264 46.64 115.584C46.64 113.964 46.7 112.104 47.94 111.054C50.88 116.304 51.75 122.504 51.45 128.514C51.14 134.524 49.72 140.404 48.3 146.254C52.21 145.784 56.14 145.404 60.08 145.444C62.08 145.464 64.11 145.544 66.06 145.074C67.55 144.714 68.95 144.024 70.15 143.074C73.64 131.764 76.56 119.984 76.13 108.154C75.89 101.664 74.46 95.2742 74.12 88.7842C74 86.5542 74.19 83.9342 76.04 82.6742C77.12 83.8942 77.65 85.5042 78.09 87.0742C83.01 104.614 80.16 123.334 76.33 141.144C81.17 138.434 86.13 134.954 90.97 132.254C95.03 129.984 99.1299 127.684 102.67 124.654C105.11 117.134 105.2 108.584 103.41 100.884C101.62 93.1642 97.77 86.0742 95.59 78.4642C94.8 75.7142 94.24 72.7942 94.85 69.9942C95 69.2842 95.32 68.5042 96 68.2642C96.8 67.9942 97.61 68.6042 98.19 69.2142C100.91 72.0942 102.54 75.8442 103.76 79.6142C108.35 93.7642 108 109.124 105.4 123.774C116.01 115.434 125.47 104.794 133.23 93.7442C132.54 90.0942 132.51 85.9342 131.82 82.2842C131.5 80.6042 131.17 78.8942 130.36 77.3842C129.45 75.7042 128 74.3842 126.58 73.1142C122.6 69.5342 118.61 65.9542 114.63 62.3742C113.61 61.4542 112.56 60.4942 112.03 59.2342C111.5 57.9642 111.66 56.3042 112.76 55.4842C113.95 54.6042 115.63 55.0342 116.99 55.6142C123.68 58.5042 128.82 64.3542 131.84 70.9942C134.86 77.6242 135.92 85.0142 136.02 92.3042C137.43 91.2042 138.49 89.5942 139.22 87.9542C141.25 83.3942 143.09 78.7542 144.76 74.0442C146.62 68.7842 148.26 63.3842 148.69 57.8142C149.12 52.2542 148.27 46.4642 145.44 41.6542C145.22 41.2842 144.99 40.9142 144.63 40.6842C143.67 40.0642 142.43 40.7242 141.46 41.3242C136.11 44.6342 129.94 46.6242 123.67 47.0542C121.9 47.1742 120.04 47.1542 118.49 46.2942C116.95 45.4242 115.89 43.4642 116.6 41.8342C117.11 40.6642 118.37 39.9842 119.63 39.7942C120.89 39.6042 122.17 39.8242 123.43 39.9842C130.07 40.8542 136.9 40.2142 143.26 38.1142C139.64 34.1542 135.99 29.8642 131.27 27.3142C126.55 24.7642 120.56 23.9242 115.87 26.5342C113.06 28.1042 110.53 30.6742 107.82 32.6942L107.79 32.7342Z" stroke="#5C683F" stroke-linecap="round" stroke-linejoin="round"/>
<path id="Vector_2" d="M103.1 33.8542C101 44.9442 93.69 53.6142 86.39 62.2242C80.61 69.0342 74.74 75.7843 68.26 81.9243C63.35 86.5843 58.1 90.8843 53.26 95.6143C39.26 109.294 28.87 126.414 14.23 139.404" stroke="#5C683F" stroke-linecap="round" stroke-linejoin="round"/>
<path id="Vector_3" d="M59.74 89.9042C63.01 103.864 63.62 118.444 61.53 132.624" stroke="#5C683F" stroke-linecap="round" stroke-linejoin="round"/>
<path id="Vector_4" d="M82.0499 67.8842C87.3099 84.4042 90.11 101.704 90.33 119.034" stroke="#5C683F" stroke-linecap="round" stroke-linejoin="round"/>
<path id="Vector_5" d="M96.7 48.9342C102.77 57.5942 106.92 67.4242 111.04 77.1642C114.02 84.2242 117.03 91.3942 118.02 98.9942" stroke="#5C683F" stroke-linecap="round" stroke-linejoin="round"/>
<path id="Vector_6" d="M99.75 44.4942C101.62 44.6942 102.96 44.9642 104.63 45.8442C110 48.6642 115.22 51.7842 120.25 55.1642" stroke="#5C683F" stroke-linecap="round" stroke-linejoin="round"/>
<path id="Vector_7" d="M101.54 40.1842C110.34 35.6342 119.04 32.7442 128.68 30.4942" stroke="#5C683F" stroke-linecap="round" stroke-linejoin="round"/>
<path id="Vector_8" d="M69.51 80.5542C67.29 79.8842 64.91 80.0043 62.59 80.1943C48.72 81.3743 35.11 85.4242 22.84 91.9942" stroke="#5C683F" stroke-linecap="round" stroke-linejoin="round"/>
<path id="Vector_9" d="M81.3899 68.0342C75.1299 67.3342 67.7499 66.3443 61.4899 65.6443C58.4399 65.3043 55.3899 64.9642 52.3199 64.9342C48.5699 64.9042 44.8199 65.3443 41.1499 66.1343C33.9499 67.6843 27.0499 70.5943 20.9199 74.6743" stroke="#5C683F" stroke-linecap="round" stroke-linejoin="round"/>
<path id="Vector_10" d="M84.6001 64.3142C80.5601 56.6142 71.73 51.1343 63.66 47.8943C60.78 46.7343 57.86 45.6443 54.83 44.9543C50.72 44.0143 46.45 43.8442 42.28 44.4342" stroke="#5C683F" stroke-linecap="round" stroke-linejoin="round"/>
<path id="Vector_11" d="M94.7599 51.0843C89.0299 40.4043 80.3699 32.0743 69.6399 26.4243C67.4399 25.2643 65.1099 24.1943 63.4199 22.3643" stroke="#5C683F" stroke-linecap="round" stroke-linejoin="round"/>
<path id="Vector_12" d="M99.5699 43.4243C95.5599 31.6143 91.1 19.9543 86.21 8.48425" stroke="#5C683F" stroke-linecap="round" stroke-linejoin="round"/>
<path id="Vector_13" d="M88.2399 79.3742C88.6499 80.5742 89.2699 81.8742 90.4699 82.2742C90.7399 82.3642 91.0299 82.4042 91.2899 82.2942C91.7099 82.1142 91.8999 81.6342 92.0199 81.1842C92.9199 77.9142 93.5299 69.2642 89.4499 67.5442C85.1399 65.7342 87.5999 77.5043 88.2399 79.3643V79.3742Z" stroke="#5C683F" stroke-linecap="round" stroke-linejoin="round"/>
<path id="Vector_14" d="M67.18 88.6243C66.52 90.4943 66.02 92.4143 65.66 94.3643C65.47 95.4043 65.33 96.4742 65.46 97.5242C65.6 98.5742 66.05 99.6143 66.87 100.284C67.47 100.774 68.42 100.994 68.99 100.474C69.2 100.284 69.32 100.024 69.43 99.7643C70.53 97.2943 71.12 94.5843 71.14 91.8843C71.16 89.2943 68.98 83.4743 67.17 88.6243H67.18Z" stroke="#5C683F" stroke-linecap="round" stroke-linejoin="round"/>
<path id="Vector_15" d="M61.11 71.4942C60.11 71.6842 58.98 72.0342 58.6 72.9742C58.26 73.8242 58.73 74.8442 59.49 75.3742C60.25 75.9042 61.1999 76.0342 62.1199 76.0542C63.8399 76.0942 65.57 75.8142 67.19 75.2242C67.91 74.9642 68.65 74.6043 69.05 73.9543C71.8 69.4443 62.71 71.1842 61.1 71.4942H61.11Z" stroke="#5C683F" stroke-linecap="round" stroke-linejoin="round"/>
<path id="Vector_16" d="M75.26 42.6043C74.93 43.6443 75.35 44.7943 76 45.6743C76.65 46.5543 77.52 47.2442 78.25 48.0542C79.89 49.8642 81.05 52.3943 83.39 53.0843C83.96 53.2543 84.62 53.2843 85.13 52.9843C86.15 52.3843 86.11 50.8942 85.79 49.7542C85.15 47.4942 77.25 36.3943 75.26 42.6143V42.6043Z" stroke="#5C683F" stroke-linecap="round" stroke-linejoin="round"/>
</g>
<g id="Group_2">
<path id="Vector_17" d="M22.8799 133.434C25.7599 130.014 28.5499 126.544 31.2899 123.014C28.8299 126.744 26.0099 130.244 22.8799 133.434Z" fill="#5C683F"/>
<path id="Vector_18" d="M25.3099 132.924C26.9099 130.704 28.52 128.514 30.17 126.324C28.81 128.694 27.1699 130.914 25.3099 132.924Z" fill="#5C683F"/>
<path id="Vector_19" d="M27.3398 132.564C28.4898 130.654 29.7698 128.844 31.1898 127.134C30.0498 129.044 28.7598 130.854 27.3398 132.564Z" fill="#5C683F"/>
<path id="Vector_20" d="M28.45 132.904C29.9 130.624 31.47 128.444 33.2 126.364C31.76 128.634 30.17 130.824 28.45 132.904Z" fill="#5C683F"/>
<path id="Vector_21" d="M30.5199 132.574C32.7299 129.044 34.7799 125.454 36.6999 121.754C35.0999 125.594 33.0099 129.244 30.5199 132.574Z" fill="#5C683F"/>
<path id="Vector_22" d="M33.0499 132.544C34.0899 130.454 35.2799 128.444 36.6199 126.524C35.5799 128.614 34.3899 130.624 33.0499 132.544Z" fill="#5C683F"/>
<path id="Vector_23" d="M35.3499 131.564C36.0799 129.884 36.9499 128.284 37.9799 126.764C37.2499 128.444 36.3699 130.044 35.3499 131.564Z" fill="#5C683F"/>
<path id="Vector_24" d="M37.0999 130.894C37.6999 129.354 38.4599 127.884 39.3599 126.504C38.7599 128.044 37.9999 129.504 37.0999 130.894Z" fill="#5C683F"/>
<path id="Vector_25" d="M39.08 129.454C39.68 128.014 40.2999 126.614 40.9699 125.214C40.6199 126.734 39.97 128.184 39.08 129.454Z" fill="#5C683F"/>
<path id="Vector_26" d="M40.6799 129.854C41.3899 127.754 42.1299 125.694 42.9199 123.634C42.4499 125.794 41.6899 127.894 40.6799 129.854Z" fill="#5C683F"/>
<path id="Vector_27" d="M42.2899 130.274C42.8699 128.004 43.6099 125.794 44.5199 123.624C43.9399 125.894 43.1899 128.114 42.2899 130.274Z" fill="#5C683F"/>
<path id="Vector_28" d="M51.0399 139.724C51.7799 136.784 52.3999 133.854 52.9399 130.874C52.7399 133.894 52.0999 136.894 51.0399 139.724Z" fill="#5C683F"/>
<path id="Vector_29" d="M52.5499 137.694C52.8999 135.454 53.4099 133.274 54.0899 131.104C53.7399 133.334 53.2299 135.544 52.5499 137.694Z" fill="#5C683F"/>
<path id="Vector_30" d="M54.0199 136.194C54.4199 134.184 54.8599 132.214 55.3599 130.224C55.1999 132.264 54.7399 134.274 54.0199 136.194Z" fill="#5C683F"/>
<path id="Vector_31" d="M55.3799 134.844C55.9199 132.904 56.4099 130.984 56.8799 129.034C56.7499 131.034 56.2299 133.024 55.3799 134.844Z" fill="#5C683F"/>
<path id="Vector_32" d="M56.8899 133.754C57.2499 131.914 57.6699 130.114 58.1499 128.304C58.0099 130.174 57.5799 132.014 56.8899 133.754Z" fill="#5C683F"/>
<path id="Vector_33" d="M58.3699 133.184C58.7399 131.354 59.4599 127.674 59.7999 125.844C59.6799 128.334 59.1999 130.824 58.3699 133.184Z" fill="#5C683F"/>
<path id="Vector_34" d="M64.19 111.144C64.38 113.654 64.22 116.184 63.72 118.654L64.19 111.144Z" fill="#5C683F"/>
<path id="Vector_35" d="M65.1399 113.564C65.3599 115.514 65.1999 117.524 64.6599 119.404C64.8699 117.444 65.0299 115.524 65.1399 113.564Z" fill="#5C683F"/>
<path id="Vector_36" d="M66.3899 114.154C66.5299 115.794 66.3799 117.474 65.9299 119.064C66.0399 117.414 66.1999 115.804 66.3899 114.154Z" fill="#5C683F"/>
<path id="Vector_37" d="M67.33 114.364C67.36 116.244 67.22 118.114 66.92 119.964C66.89 118.084 67.03 116.214 67.33 114.364Z" fill="#5C683F"/>
<path id="Vector_38" d="M68.59 113.634C68.67 115.894 68.59 118.144 68.32 120.384C68.24 118.124 68.33 115.874 68.59 113.634Z" fill="#5C683F"/>
<path id="Vector_39" d="M69.9199 113.204C69.8799 115.384 69.6699 117.564 69.2899 119.714C69.3299 117.524 69.5399 115.354 69.9199 113.204Z" fill="#5C683F"/>
<path id="Vector_40" d="M71.0299 113.134C70.9899 115.364 70.7799 117.584 70.4099 119.794C70.4499 117.564 70.6599 115.344 71.0299 113.134Z" fill="#5C683F"/>
<path id="Vector_41" d="M72.4499 112.374C72.4199 115.274 72.0699 118.174 71.4199 120.994C71.7399 118.114 72.0799 115.254 72.4499 112.374Z" fill="#5C683F"/>
<path id="Vector_42" d="M77.4199 79.4543C78.3599 81.7443 79.01 84.1642 79.34 86.6242C78.68 84.2342 78.0399 81.8543 77.4199 79.4543Z" fill="#5C683F"/>
<path id="Vector_43" d="M79.1199 80.8343C79.6599 82.5343 80.0299 84.2642 80.2399 86.0342C79.6999 84.3342 79.3299 82.6043 79.1199 80.8343Z" fill="#5C683F"/>
<path id="Vector_44" d="M80.2899 81.2242C80.8099 82.6942 81.1599 84.1843 81.3399 85.7343C80.8299 84.2743 80.4699 82.7542 80.2899 81.2242Z" fill="#5C683F"/>
<path id="Vector_45" d="M81.0099 80.6842C81.7099 82.5742 82.0799 84.5942 82.0799 86.6042C81.8299 85.1242 81.2899 82.1542 81.0099 80.6842Z" fill="#5C683F"/>
<path id="Vector_46" d="M82.33 80.4942C82.74 82.3342 83 84.2043 83.08 86.0843C82.66 84.2443 82.42 82.3742 82.33 80.4942Z" fill="#5C683F"/>
<path id="Vector_47" d="M83.0399 78.9342C83.5499 81.5142 83.8999 84.1242 84.0799 86.7442C83.5699 84.1642 83.2199 81.5542 83.0399 78.9342Z" fill="#5C683F"/>
<path id="Vector_48" d="M91.0199 107.764C91.0499 109.944 91.1098 112.994 91.1098 115.144C90.7598 112.704 90.7299 110.214 91.0199 107.764Z" fill="#5C683F"/>
<path id="Vector_49" d="M92.2899 108.604C92.4699 111.094 92.4799 113.584 92.3299 116.074C92.1499 113.594 92.1399 111.084 92.2899 108.604Z" fill="#5C683F"/>
<path id="Vector_50" d="M93.31 108.634C93.58 111.304 93.69 113.994 93.63 116.684C93.35 114.014 93.25 111.324 93.31 108.634Z" fill="#5C683F"/>
<path id="Vector_51" d="M94.1399 107.834C94.5999 110.194 94.8899 112.574 95.0099 114.974C94.5499 112.614 94.2599 110.234 94.1399 107.834Z" fill="#5C683F"/>
<path id="Vector_52" d="M95.1799 106.834C95.6299 109.454 95.93 112.104 96.04 114.764C95.58 112.134 95.2999 109.504 95.1799 106.834Z" fill="#5C683F"/>
<path id="Vector_53" d="M96.6799 106.284C97.1899 108.704 97.54 111.154 97.72 113.634C97.21 111.214 96.8599 108.764 96.6799 106.284Z" fill="#5C683F"/>
<path id="Vector_54" d="M97.8099 105.974C98.3699 107.774 98.7699 109.604 99.0099 111.474C98.4499 109.674 98.0499 107.844 97.8099 105.974Z" fill="#5C683F"/>
<path id="Vector_55" d="M98.8099 104.674C99.3199 106.624 99.67 108.594 99.85 110.604C99.34 108.664 98.9899 106.674 98.8099 104.674Z" fill="#5C683F"/>
<path id="Vector_56" d="M99.7899 104.004C100.19 106.054 100.57 108.084 100.94 110.144C100.25 108.174 99.8599 106.094 99.7899 104.004Z" fill="#5C683F"/>
<path id="Vector_57" d="M100.7 103.964C101.18 105.534 101.51 107.164 101.66 108.804C101.17 107.214 100.85 105.614 100.7 103.964Z" fill="#5C683F"/>
<path id="Vector_58" d="M101.25 101.724C102.04 103.964 102.54 106.304 102.73 108.664C102.2 106.354 101.71 104.054 101.25 101.724Z" fill="#5C683F"/>
<path id="Vector_59" d="M107.08 84.2242C105.93 81.5442 104.93 78.8142 104.1 76.0242C105.25 78.6942 106.25 81.4342 107.08 84.2242Z" fill="#5C683F"/>
<path id="Vector_60" d="M107.46 81.7943C106.49 79.4743 105.49 77.2043 104.44 74.9243C105.79 77.0443 106.81 79.3743 107.46 81.7943Z" fill="#5C683F"/>
<path id="Vector_61" d="M108.21 79.5042C107.01 77.6742 105.96 75.7642 105.06 73.7742C106.26 75.6042 107.3 77.5142 108.21 79.5042Z" fill="#5C683F"/>
<path id="Vector_62" d="M109.34 78.9642C108.11 76.5442 106.72 74.2443 105.17 72.0143C106.99 74.0243 108.41 76.4142 109.34 78.9642Z" fill="#5C683F"/>
<path id="Vector_63" d="M120.25 99.1642C118.91 94.6642 117.43 90.2242 115.82 85.8142C117.74 90.0942 119.23 94.5842 120.25 99.1642Z" fill="#5C683F"/>
<path id="Vector_64" d="M122.01 97.8542C120.6 93.7942 118.99 89.8242 117.17 85.9342C119.29 89.6642 120.93 93.6942 122.01 97.8542Z" fill="#5C683F"/>
<path id="Vector_65" d="M123.15 96.2842C121.96 93.1642 120.68 90.1042 119.3 87.0742C120.98 89.9542 122.28 93.0642 123.15 96.2842Z" fill="#5C683F"/>
<path id="Vector_66" d="M124.06 94.3542C122.92 91.6342 121.72 88.9542 120.44 86.2842C122.01 88.7842 123.23 91.5142 124.06 94.3542Z" fill="#5C683F"/>
<path id="Vector_67" d="M124.91 92.2242L119.68 82.5042C121.73 85.5642 123.48 88.8242 124.91 92.2242Z" fill="#5C683F"/>
<path id="Vector_68" d="M124.79 87.4442C123.58 85.2342 122.31 83.1043 120.95 80.9843C122.58 82.8943 123.88 85.1042 124.79 87.4442Z" fill="#5C683F"/>
<path id="Vector_69" d="M124.71 85.3442C123.41 82.9842 122.03 80.7042 120.56 78.4442C122.31 80.4942 123.72 82.8442 124.71 85.3442Z" fill="#5C683F"/>
<path id="Vector_70" d="M125.29 83.8842C124 81.4342 122.55 79.1142 120.93 76.8742C122.82 78.8942 124.32 81.2942 125.29 83.8842Z" fill="#5C683F"/>
<path id="Vector_71" d="M125.64 81.3742C124.09 79.1442 122.58 76.9142 121.08 74.6542C122.85 76.7142 124.38 78.9742 125.64 81.3742Z" fill="#5C683F"/>
<path id="Vector_72" d="M126.38 79.4843C124.91 77.2943 123.34 75.2243 121.64 73.2043C123.58 74.9843 125.2 77.1343 126.38 79.4843Z" fill="#5C683F"/>
<path id="Vector_73" d="M126.16 77.4642C124.74 75.6542 123.3 73.9042 121.8 72.1542C123.53 73.6642 125.02 75.4742 126.16 77.4642Z" fill="#5C683F"/>
<path id="Vector_74" d="M127.28 76.5342C125.62 74.6042 123.87 72.8043 121.99 71.0843C124.08 72.5343 125.89 74.4042 127.28 76.5342Z" fill="#5C683F"/>
<path id="Vector_75" d="M134.15 71.4942C132.69 68.6842 130.99 66.0542 129.02 63.5742C131.24 65.8242 133 68.5442 134.15 71.4942Z" fill="#5C683F"/>
<path id="Vector_76" d="M134.46 69.0042C132.97 66.6042 131.36 64.3243 129.6 62.1143C131.61 64.0843 133.27 66.4442 134.46 69.0042Z" fill="#5C683F"/>
<path id="Vector_77" d="M134.84 66.6443C133.08 64.3443 131.24 62.1342 129.31 59.9742C131.48 61.8942 133.36 64.1543 134.84 66.6443Z" fill="#5C683F"/>
<path id="Vector_78" d="M133.88 63.1342C132.47 61.2342 130.84 59.5542 128.99 58.0742C131.03 59.2642 132.76 61.0542 133.88 63.1342Z" fill="#5C683F"/>
<path id="Vector_79" d="M134.2 61.2643C132.63 59.5843 130.97 58.0442 129.18 56.6042C131.16 57.7542 132.9 59.3743 134.2 61.2643Z" fill="#5C683F"/>
<path id="Vector_80" d="M133.95 59.0942C132.22 57.3642 130.43 55.7442 128.54 54.1942C130.62 55.4642 132.48 57.1442 133.95 59.0942Z" fill="#5C683F"/>
<path id="Vector_81" d="M133.45 56.6842C131.83 55.1242 130.12 53.7142 128.29 52.4142C130.3 53.4142 132.09 54.8942 133.45 56.6842Z" fill="#5C683F"/>
<path id="Vector_82" d="M133.14 54.7643C131.9 53.6343 129.4 51.3443 128.17 50.2043C130.04 51.4643 131.72 53.0143 133.14 54.7643Z" fill="#5C683F"/>
<path id="Vector_83" d="M133.1 52.0542C131.5 50.9442 129.89 49.9142 128.21 48.9442C130.03 49.6142 131.72 50.6842 133.1 52.0542Z" fill="#5C683F"/>
<path id="Vector_84" d="M132.92 49.5443C131.04 48.7743 129.16 48.0843 127.24 47.4243C129.24 47.7443 131.2 48.4743 132.92 49.5443Z" fill="#5C683F"/>
<path id="Vector_85" d="M124.48 38.7842C127.05 38.8842 129.61 39.1542 132.15 39.5942C129.58 39.4942 127.02 39.2242 124.48 38.7842Z" fill="#5C683F"/>
<path id="Vector_86" d="M126.02 37.8242C128.05 37.8242 130.1 37.9842 132.1 38.3142C130.05 38.3142 128.04 38.1542 126.02 37.8242Z" fill="#5C683F"/>
<path id="Vector_87" d="M125.95 36.3042C127.97 36.3442 129.98 36.5542 131.97 36.9342C129.95 36.8942 127.94 36.6842 125.95 36.3042Z" fill="#5C683F"/>
<path id="Vector_88" d="M126.79 35.0443C128.44 34.8943 130.1 34.9043 131.75 35.0943C130.1 35.2443 128.44 35.2243 126.79 35.0443Z" fill="#5C683F"/>
<path id="Vector_89" d="M126.46 34.2043C128 33.8243 129.55 33.6142 131.14 33.5742C129.61 33.9542 128.04 34.1643 126.46 34.2043Z" fill="#5C683F"/>
<path id="Vector_90" d="M126.33 33.1842C127.75 32.7842 129.21 32.5543 130.68 32.4443C130.85 32.4343 130.76 32.2743 130.7 32.3543C130.77 32.2443 130.91 32.4543 130.7 32.5043C129.28 32.8743 127.81 33.1042 126.34 33.1842H126.33Z" fill="#5C683F"/>
<path id="Vector_91" d="M125.84 32.3343C127.22 31.8843 128.6 31.5042 130.01 31.1842C128.7 31.8242 127.28 32.2143 125.84 32.3343Z" fill="#5C683F"/>
<path id="Vector_92" d="M89.66 40.8142L83.34 33.9742C85.69 36.0042 87.82 38.3142 89.66 40.8142Z" fill="#5C683F"/>
<path id="Vector_93" d="M89.6899 39.2142C88.2999 37.6642 86.94 36.1243 85.58 34.5443C87.18 35.8743 88.5699 37.4642 89.6899 39.2142Z" fill="#5C683F"/>
<path id="Vector_94" d="M90.5799 38.6443C89.0899 37.0443 87.6499 35.4242 86.2299 33.7742C87.8899 35.1842 89.3599 36.8343 90.5799 38.6443Z" fill="#5C683F"/>
<path id="Vector_95" d="M90.4499 36.9042C89.5699 35.9042 87.7899 33.9242 86.8999 32.9342C88.3299 34.0042 89.5499 35.3642 90.4499 36.9042Z" fill="#5C683F"/>
<path id="Vector_96" d="M91.2199 35.9042C89.8999 34.6542 88.7099 33.2942 87.6399 31.8242C88.9599 33.0742 90.1499 34.4342 91.2199 35.9042Z" fill="#5C683F"/>
<path id="Vector_97" d="M91.9399 34.4142C90.1099 32.3042 88.12 30.3842 85.95 28.6342C88.32 30.1042 90.3899 32.1042 91.9399 34.4142Z" fill="#5C683F"/>
<path id="Vector_98" d="M92.96 33.6542C90.6 30.6242 87.83 27.9842 84.71 25.7542C88.02 27.6842 90.89 30.4342 92.96 33.6542Z" fill="#5C683F"/>
<path id="Vector_99" d="M92.5699 30.6743C90.8799 28.7443 89.06 26.9742 87.08 25.3242C89.25 26.6842 91.1499 28.5343 92.5699 30.6743Z" fill="#5C683F"/>
<path id="Vector_100" d="M93.3999 29.8542C91.6399 27.3242 89.4499 25.1542 86.9099 23.4142C89.6299 24.8542 91.9399 27.1442 93.3999 29.8542Z" fill="#5C683F"/>
<path id="Vector_101" d="M92.0499 18.8042L89.21 11.2043C90.46 13.6143 91.4099 16.1742 92.0499 18.8042Z" fill="#5C683F"/>
<path id="Vector_102" d="M92.7599 16.6942C91.8999 14.5542 90.9999 12.4742 90.0299 10.3842C91.2899 12.3042 92.2199 14.4542 92.7599 16.6942Z" fill="#5C683F"/>
<path id="Vector_103" d="M93.5299 15.1842C92.5899 13.2742 91.5999 11.4242 90.5399 9.57425C91.8799 11.2242 92.8999 13.1542 93.5299 15.1842Z" fill="#5C683F"/>
<path id="Vector_104" d="M94.0599 12.9543C93.0699 11.1843 92.04 9.47425 90.95 7.76425C92.32 9.26425 93.3799 11.0443 94.0599 12.9543Z" fill="#5C683F"/>
<path id="Vector_105" d="M94.77 11.0843C93.85 9.52426 92.8299 8.07426 91.6699 6.67426C93.0699 7.82426 94.15 9.38426 94.77 11.0843Z" fill="#5C683F"/>
<path id="Vector_106" d="M96.0599 9.54425C95.0499 8.21425 93.94 7.02424 92.7 5.90424C94.15 6.73424 95.3499 8.03425 96.0599 9.54425Z" fill="#5C683F"/>
<path id="Vector_107" d="M68.4299 31.2343C70.6799 31.7943 72.8299 32.8442 74.6499 34.2742C72.6299 33.1242 70.5699 32.1243 68.4299 31.2343Z" fill="#5C683F"/>
<path id="Vector_108" d="M70.21 30.4942C72.05 31.1042 73.77 32.1643 75.14 33.5443C73.55 32.4243 71.93 31.4242 70.21 30.4942Z" fill="#5C683F"/>
<path id="Vector_109" d="M71.33 29.6042C73.11 30.2742 74.74 31.4242 75.96 32.8842C74.49 31.6642 72.97 30.5842 71.33 29.6042Z" fill="#5C683F"/>
<path id="Vector_110" d="M50.95 43.0443L50.5699 43.0242C52.6499 43.0942 54.9799 43.8143 57.0099 44.5843L50.5699 43.0242V42.9742L50.95 43.0443Z" fill="#5C683F"/>
<path id="Vector_111" d="M51.7899 42.1842C53.5199 42.4142 55.2499 42.8043 56.8999 43.3643C55.1499 43.1343 53.4599 42.7442 51.7899 42.1842Z" fill="#5C683F"/>
<path id="Vector_112" d="M52.5099 41.5342C54.4699 41.6142 56.4299 41.9842 58.2799 42.6342C56.3399 42.3142 54.4299 41.9442 52.5099 41.5342Z" fill="#5C683F"/>
<path id="Vector_113" d="M16.3799 61.0843C18.8799 59.9943 21.4499 59.0542 24.0599 58.2742C21.5599 59.3742 18.9899 60.3043 16.3799 61.0843Z" fill="#5C683F"/>
<path id="Vector_114" d="M18.24 59.0342C20.26 58.2342 22.34 57.5943 24.46 57.1143C22.44 57.9143 20.36 58.5542 18.24 59.0342Z" fill="#5C683F"/>
<path id="Vector_115" d="M19.5299 57.2442C21.2999 56.5842 23.1099 56.0743 24.9699 55.7343C23.1999 56.4043 21.3899 56.9042 19.5299 57.2442Z" fill="#5C683F"/>
<path id="Vector_116" d="M19.6399 55.8742C21.3899 55.2442 23.1899 54.7742 25.0199 54.4742C23.2699 55.1042 21.4699 55.5742 19.6399 55.8742Z" fill="#5C683F"/>
<path id="Vector_117" d="M19.8199 54.4442C21.7999 53.8742 23.8199 53.4743 25.8699 53.2343C23.8899 53.8043 21.8699 54.2042 19.8199 54.4442Z" fill="#5C683F"/>
<path id="Vector_118" d="M20.23 52.6143C22.09 52.0443 23.97 51.6442 25.89 51.4142C24.04 51.9842 22.15 52.3843 20.23 52.6143Z" fill="#5C683F"/>
<path id="Vector_119" d="M20.7899 51.1443C22.7099 50.4643 24.6799 49.9442 26.6999 49.5942C24.7799 50.2742 22.8099 50.7943 20.7899 51.1443Z" fill="#5C683F"/>
<path id="Vector_120" d="M21.3599 48.9042C23.1299 48.4042 24.9098 48.0842 26.7498 47.9142C24.9898 48.4042 23.1799 48.7442 21.3599 48.9042Z" fill="#5C683F"/>
<path id="Vector_121" d="M21.2599 47.6743C23.2599 47.0643 25.2899 46.6242 27.3599 46.3442C25.3599 46.9542 23.3299 47.3943 21.2599 47.6743Z" fill="#5C683F"/>
<path id="Vector_122" d="M22.3398 46.0443C24.1998 45.5243 26.0999 45.1542 28.0199 44.9642C26.1599 45.4942 24.2598 45.8443 22.3398 46.0443Z" fill="#5C683F"/>
<path id="Vector_123" d="M23.2 43.2943C24.9 42.8443 26.6299 42.5642 28.3799 42.4442C26.6799 42.8942 24.95 43.1743 23.2 43.2943Z" fill="#5C683F"/>
<path id="Vector_124" d="M23.98 41.7242C25.59 41.2342 27.27 41.0042 28.95 41.0342C27.3 41.3342 25.65 41.5642 23.98 41.7242Z" fill="#5C683F"/>
<path id="Vector_125" d="M24.3398 40.4243C26.1198 40.0543 27.9099 39.8542 29.7299 39.8242C27.9499 40.1942 26.1598 40.3943 24.3398 40.4243Z" fill="#5C683F"/>
<path id="Vector_126" d="M24.8499 39.0542C26.6799 38.6542 28.5799 38.5442 30.4499 38.7042C28.5799 38.8742 26.7299 38.9842 24.8499 39.0542Z" fill="#5C683F"/>
<path id="Vector_127" d="M26.0499 37.6643C27.4299 37.3643 28.8899 37.4043 30.2599 37.7843L26.0499 37.6643Z" fill="#5C683F"/>
<path id="Vector_128" d="M23.2 44.4942C25.09 43.6542 27.2699 43.4142 29.2899 43.8042C27.2199 43.7542 25.21 43.9742 23.2 44.4942Z" fill="#5C683F"/>
<path id="Vector_129" d="M34.3599 66.9342C36.2599 66.0042 38.3899 65.4943 40.5099 65.4543C38.4199 65.8343 36.3999 66.3142 34.3599 66.9342Z" fill="#5C683F"/>
<path id="Vector_130" d="M36.4099 65.4243C37.8899 64.8943 39.4199 64.5242 40.9799 64.3142C39.4999 64.8442 37.9699 65.2143 36.4099 65.4243Z" fill="#5C683F"/>
<path id="Vector_131" d="M36.9299 64.1542C38.4899 63.5242 40.0999 63.0542 41.7599 62.7542C40.1999 63.3842 38.5899 63.8542 36.9299 64.1542Z" fill="#5C683F"/>
<path id="Vector_132" d="M8.09985 92.0542C9.73985 90.7842 11.4699 89.6542 13.2899 88.6642C11.6499 89.9342 9.91985 91.0642 8.09985 92.0542Z" fill="#5C683F"/>
<path id="Vector_133" d="M9.34985 90.1242C10.5999 89.2542 11.8699 88.4542 13.1999 87.7142C12.0699 88.7342 10.7599 89.5542 9.34985 90.1242Z" fill="#5C683F"/>
<path id="Vector_134" d="M10.0999 88.4142L13.5799 86.1342C12.6299 87.1642 11.4199 87.9542 10.0999 88.4142Z" fill="#5C683F"/>
<path id="Vector_135" d="M9.61987 86.8943C10.9299 86.1343 12.1799 85.3443 13.4299 84.4843C12.3999 85.5943 11.0599 86.4343 9.61987 86.8943Z" fill="#5C683F"/>
<path id="Vector_136" d="M8.91992 85.3943C10.3799 84.3343 11.8499 83.3243 13.3599 82.3343C12.0599 83.5843 10.5499 84.6243 8.91992 85.3943Z" fill="#5C683F"/>
<path id="Vector_137" d="M8.37988 83.4742C9.50988 82.6642 11.7799 81.0142 12.9099 80.1842C11.6299 81.5442 10.0799 82.6742 8.37988 83.4742Z" fill="#5C683F"/>
<path id="Vector_138" d="M7.91992 81.6242C9.49992 80.6242 11.0199 79.6043 12.5499 78.5143C11.2499 79.8543 9.65992 80.9242 7.91992 81.6242Z" fill="#5C683F"/>
<path id="Vector_139" d="M8.75989 79.5642C9.95989 78.6542 11.2399 77.8842 12.6099 77.2542C11.4099 78.1642 10.1299 78.9342 8.75989 79.5642Z" fill="#5C683F"/>
<path id="Vector_140" d="M8.78992 78.2542C9.87992 77.4242 11.0599 76.7242 12.3299 76.1842C11.2399 77.0242 10.0599 77.7142 8.78992 78.2542Z" fill="#5C683F"/>
<path id="Vector_141" d="M8.90991 76.5143C9.99991 75.5243 11.3099 74.7742 12.7099 74.3142C11.4499 75.0842 10.1999 75.8043 8.90991 76.5143Z" fill="#5C683F"/>
<path id="Vector_142" d="M9.63989 74.2542C10.9899 73.4742 12.4099 72.8343 13.8999 72.3643C12.5499 73.1543 11.1299 73.7842 9.63989 74.2542Z" fill="#5C683F"/>
<path id="Vector_143" d="M9.78992 72.6743C11.0599 71.9043 12.4899 71.3943 13.9699 71.2043C12.5799 71.7243 11.2099 72.2043 9.78992 72.6743Z" fill="#5C683F"/>
<path id="Vector_144" d="M14.2899 107.364C15.6699 106.034 17.1499 104.834 18.7499 103.764C17.3699 105.094 15.8799 106.294 14.2899 107.364Z" fill="#5C683F"/>
<path id="Vector_145" d="M15.8999 104.774C16.8799 103.794 17.9699 102.934 19.1499 102.214C18.1699 103.204 17.0799 104.054 15.8999 104.774Z" fill="#5C683F"/>
<path id="Vector_146" d="M16.3799 103.254C17.3799 102.154 18.4899 101.184 19.6999 100.344C18.6999 101.444 17.5899 102.414 16.3799 103.254Z" fill="#5C683F"/>
<path id="Vector_147" d="M16.3398 101.534C17.4598 100.384 18.6898 99.3642 20.0298 98.4742C18.9098 99.6242 17.6698 100.644 16.3398 101.534Z" fill="#5C683F"/>
<path id="Vector_148" d="M16.0499 100.164C17.2599 99.2042 18.4399 98.2742 19.6599 97.3242C18.6799 98.5142 17.4399 99.4942 16.0499 100.164Z" fill="#5C683F"/>
<path id="Vector_149" d="M15.8999 98.6342C16.9599 97.6542 17.9899 96.7142 19.0799 95.7542C18.2499 96.9342 17.1499 97.9242 15.8999 98.6342Z" fill="#5C683F"/>
<path id="Vector_150" d="M15.3398 97.4742C16.3898 96.3242 17.5498 95.3042 18.8098 94.4142C17.7598 95.5642 16.5998 96.5842 15.3398 97.4742Z" fill="#5C683F"/>
<path id="Vector_151" d="M14.1199 96.0342C15.5599 94.7642 17.0999 93.6242 18.7299 92.6342C17.2899 93.9042 15.7499 95.0342 14.1199 96.0342Z" fill="#5C683F"/>
<path id="Vector_152" d="M24.2 126.834C25.64 125.084 27.1899 123.464 28.8799 121.954C27.4499 123.694 25.88 125.334 24.2 126.834Z" fill="#5C683F"/>
<path id="Vector_153" d="M25.0499 124.394C26.2099 123.034 27.5099 121.764 28.8999 120.644C27.7299 122.024 26.4499 123.254 25.0499 124.394Z" fill="#5C683F"/>
<path id="Vector_154" d="M25.1699 122.254C26.2899 121.044 27.4299 119.904 28.6299 118.784C27.6799 120.124 26.5099 121.304 25.1699 122.254Z" fill="#5C683F"/>
<path id="Vector_155" d="M24.49 120.884C25.62 119.544 26.87 118.314 28.24 117.214C27.11 118.554 25.86 119.774 24.49 120.884Z" fill="#5C683F"/>
<path id="Vector_156" d="M24.0399 119.144C25.4799 117.784 26.8699 116.424 28.2699 115.014C27.1299 116.634 25.6899 118.044 24.0399 119.144Z" fill="#5C683F"/>
<path id="Vector_157" d="M23.49 117.614C24.62 116.444 25.87 115.394 27.22 114.484C26.09 115.654 24.84 116.704 23.49 117.614Z" fill="#5C683F"/>
<path id="Vector_158" d="M22.3398 116.584C23.6798 115.404 25.1299 114.354 26.6699 113.444C25.3299 114.624 23.8798 115.674 22.3398 116.584Z" fill="#5C683F"/>
<path id="Vector_159" d="M20.7899 115.574C22.6499 114.194 24.5999 112.954 26.6399 111.854C24.7799 113.234 22.8299 114.474 20.7899 115.574Z" fill="#5C683F"/>
</g>
</g>
</svg>
