<svg width="279" height="321" viewBox="0 0 279 321" fill="none" xmlns="http://www.w3.org/2000/svg">
<g id="leaf">
<g id="Group">
<path id="Vector" d="M110.22 52.2122C108.61 52.9522 106.67 51.6522 106.02 50.0022C105.37 48.3522 105.6 46.5122 105.73 44.7422C106.4 35.4122 103.2 25.2522 95.46 20.0022C93.13 18.4222 90.51 17.3422 87.88 16.3322C85.73 15.5022 83.56 14.7122 81.29 14.2722C74.01 12.8522 66.53 15.2222 59.78 18.2822C48.96 23.1822 38.91 30.0522 31.25 39.1222C39.95 37.5722 48.77 37.4422 57.6 37.1522C61.57 37.0222 65.75 37.0722 69.21 39.0322C71.37 40.2622 73.08 42.1522 74.51 44.1922C76.11 46.4722 77.42 49.3922 76.37 51.9722C75.45 54.2322 72.9 55.4922 70.46 55.6022C68.02 55.7122 65.65 54.8822 63.35 54.0422C54.2 50.6722 45.18 46.8222 35.66 44.7222C33.82 44.3222 31.93 43.9822 30.07 44.2922C26.37 44.9222 23.63 47.9822 21.34 50.9522C13.52 61.0822 7.28 72.4222 2.91 84.4522C18.3 76.8722 33.62 69.5522 50.53 66.6622C54.62 65.9622 58.86 65.5522 62.87 66.6222C64.41 67.0322 65.93 67.6822 67.03 68.8222C68.13 69.9622 68.74 71.6822 68.26 73.1922C67.42 75.8122 64.11 76.5122 61.38 76.8022C49.23 78.0922 37.13 79.8322 25.11 82.0322C20.68 82.8422 16.25 83.7122 11.97 85.0922C7.59 86.5022 3.17 88.6022 0.5 92.3522C0.77 104.022 0.369999 115.272 1.29 126.902C16.99 116.902 30.36 102.912 47.06 94.6822C52.9 91.8022 59.41 89.6422 65.85 90.5622C67.56 90.8122 69.41 91.3922 70.3 92.8822C70.8 93.7222 70.92 94.7422 70.78 95.7122C70.21 99.8422 65.76 102.142 61.78 103.372C51.03 106.712 39.48 107.422 29.17 111.942C20.16 115.892 12.63 122.502 5.26 129.022C4.46 129.732 3.66 130.442 3.05 131.312C5.09 138.532 7.11 145.642 10.1 152.522C10.58 153.642 11.57 154.972 12.7 154.522C14.5 145.362 19.23 136.802 26.02 130.402C32.81 124.002 41.64 119.792 50.89 118.532C52.38 118.332 53.96 118.212 55.34 118.812C56.72 119.412 57.8 120.952 57.39 122.402C57.17 123.162 56.6 123.762 56.02 124.302C48.36 131.522 37.4 133.892 28.39 139.332C25.18 141.272 22.16 143.652 20.08 146.772C18.67 148.872 17.72 151.252 16.93 153.652C16.39 155.282 15.91 156.992 16.1 158.702C16.31 160.562 17.28 162.242 18.31 163.802C20.97 167.862 24.1 171.612 26.72 175.702C29.34 179.792 31.49 184.332 31.87 189.182C36.44 187.862 41.03 188.302 45.73 189.072C48.48 189.522 51.16 190.342 53.92 190.722C59.61 191.522 65.39 190.492 70.97 189.122C72.72 188.692 74.51 188.202 75.95 187.112C77.2 186.152 78.09 184.802 78.89 183.452C82.69 177.012 85.12 169.802 86.33 162.422C86.93 158.802 87.23 155.102 86.76 151.462C86.11 146.542 84.06 141.922 82.93 137.092C81.79 132.262 81.7 126.792 84.6 122.762C85.08 122.102 85.68 121.452 86.48 121.292C87.83 121.012 89.03 122.172 89.84 123.282C93.76 128.632 95.55 135.312 95.89 141.942C96.23 148.562 95.21 155.182 93.95 161.692C92.31 170.192 90.16 178.842 85.22 185.962C95.12 182.512 104.2 177.022 113.36 171.922C115.23 170.882 117.12 169.822 118.7 168.382C123.44 164.032 124.51 156.982 124.32 150.552C124.13 144.182 122.98 137.842 120.91 131.812C120.13 129.532 119.21 127.272 117.88 125.262C116.14 122.622 113.75 120.482 111.67 118.092C109.59 115.702 107.76 112.882 107.53 109.732C107.43 108.382 107.73 106.842 108.87 106.112C109.38 105.782 110 105.662 110.6 105.602C113.19 105.332 115.88 106.012 118.03 107.482C120.62 109.252 122.34 112.022 123.74 114.832C131.47 130.272 131.51 149.342 123.85 164.812C125.8 163.642 127.23 161.872 128.82 160.242C138.67 150.142 146.81 138.372 152.78 125.592C155.09 120.642 157.1 115.462 157.64 110.022C158.18 104.582 157.12 98.8222 153.8 94.4822C149.52 88.9022 142.39 86.5422 135.9 83.8522C129.41 81.1522 122.56 77.1322 120.65 70.3722C120.28 69.0622 120.25 67.3622 121.4 66.6322C122.26 66.0822 123.39 66.3422 124.36 66.6622C135.87 70.3722 145.15 78.8122 153.85 87.2122C156.48 89.7522 159.17 92.4122 160.58 95.7822C161.27 81.9222 158.67 67.5322 152.66 55.0222C150.65 50.8422 148.24 46.7522 144.73 43.7222C141.22 40.6922 136.47 38.8322 131.91 39.6822C124.04 41.1522 117.56 48.8522 110.27 52.1822L110.22 52.2122Z" stroke="#5C683F" stroke-linecap="round" stroke-linejoin="round"/>
<path id="Vector_2" d="M181.61 133.432C177.74 129.682 177.28 124.012 177.43 118.472C177.59 112.972 178.53 107.502 180.21 102.302C180.85 100.332 181.6 98.3922 182.68 96.6522C183.26 95.7222 183.93 94.8522 184.64 94.0222" stroke="#5C683F" stroke-linecap="round" stroke-linejoin="round"/>
<path id="Vector_3" d="M149.74 49.8022C150.82 45.0422 152.35 40.4122 154.33 36.0422C155.97 32.4422 157.94 28.9122 160.8 26.2922C163.66 23.6722 167.54 22.0722 171.26 22.8122C177.68 24.0822 182.97 30.7222 188.92 33.6022C190.23 34.2422 191.81 33.1222 192.35 31.7022C192.88 30.2822 192.69 28.6922 192.59 27.1622C192.04 19.1122 194.66 10.3522 200.97 5.81222C202.87 4.45222 205.01 3.52222 207.16 2.64222C208.91 1.93222 210.69 1.24222 212.53 0.862218C218.47 -0.357782 224.57 1.68222 230.08 4.32222C238.91 8.55222 247.11 14.4822 253.36 22.3022C246.26 20.9622 239.07 20.8522 231.86 20.6022C228.62 20.4922 225.21 20.5322 222.39 22.2222C220.63 23.2822 219.23 24.9122 218.07 26.6722C216.77 28.6422 215.69 31.1622 216.55 33.3822C217.3 35.3322 219.38 36.4222 221.37 36.5122C223.36 36.6022 225.3 35.8922 227.17 35.1622C234.63 32.2522 242 28.9322 249.76 27.1222C251.26 26.7722 252.81 26.4822 254.32 26.7522C257.34 27.3022 259.58 29.9322 261.44 32.4922C267.82 41.2322 272.91 51.0222 276.47 61.3922C263.91 54.8522 251.41 48.5322 237.62 46.0422C234.29 45.4422 230.82 45.0922 227.55 46.0122C226.3 46.3622 225.06 46.9222 224.15 47.9122C223.25 48.9022 222.75 50.3822 223.15 51.6822C223.83 53.9422 226.53 54.5522 228.77 54.8022C238.68 55.9122 248.56 57.4222 258.36 59.3122C261.97 60.0122 265.59 60.7622 269.09 61.9522C272.67 63.1722 276.27 64.9822 278.45 68.2222C278.23 78.2922 278.56 87.9922 277.81 98.0322C265 89.4022 254.09 77.3322 240.47 70.2322C235.7 67.7522 230.4 65.8822 225.14 66.6822C223.74 66.8922 222.23 67.4022 221.51 68.6822C221.1 69.4022 221.01 70.2922 221.12 71.1222C221.59 74.6822 225.22 76.6722 228.47 77.7322C237.24 80.6122 246.66 81.2322 255.08 85.1222C262.43 88.5222 268.58 94.2322 274.59 99.8522C275.24 100.462 275.9 101.082 276.4 101.832C274.74 108.062 273.09 114.192 270.65 120.132C270.25 121.092 269.45 122.242 268.53 121.862C267.06 113.962 263.2 106.572 257.66 101.052C252.12 95.5322 244.91 91.8922 237.37 90.8122C236.15 90.6422 234.87 90.5422 233.74 91.0522C232.62 91.5722 231.73 92.9022 232.07 94.1522C232.25 94.8122 232.71 95.3222 233.18 95.7922C239.43 102.022 248.37 104.062 255.72 108.762C258.34 110.432 260.8 112.492 262.5 115.182C263.65 116.992 264.42 119.052 265.07 121.122C265.51 122.532 265.9 124.002 265.75 125.482C265.58 127.082 264.78 128.532 263.95 129.882C261.78 133.392 259.23 136.622 257.09 140.152C254.95 143.682 253.2 147.602 252.89 151.782C249.16 150.642 245.41 151.022 241.58 151.692C239.34 152.082 237.15 152.782 234.9 153.122C230.26 153.812 225.54 152.922 220.99 151.742C219.56 151.372 218.1 150.952 216.93 150.012C215.91 149.192 215.18 148.022 214.53 146.852C211.43 141.292 209.45 135.072 208.46 128.712C207.97 125.582 207.72 122.392 208.11 119.252C208.64 115.012 210.31 111.022 211.24 106.862C212.17 102.692 212.25 97.9722 209.88 94.5022C209.49 93.9322 209 93.3722 208.34 93.2322C207.24 92.9922 206.26 93.9922 205.6 94.9522C202.4 99.5622 200.94 105.332 200.66 111.052C200.38 116.762 201.22 122.472 202.24 128.092C203.58 135.432 205.33 142.892 209.36 149.032C202.3 146.432 195.75 142.482 189.22 138.592" stroke="#5C683F" stroke-linecap="round" stroke-linejoin="round"/>
<path id="Vector_4" d="M157.01 66.4722C160.26 64.0422 164.26 62.5522 167.99 60.9122C173.29 58.5822 178.87 55.1222 180.44 49.2822C180.74 48.1522 180.77 46.6922 179.83 46.0622C179.13 45.5922 178.21 45.8122 177.42 46.0822C168.94 48.9722 161.94 55.2022 155.43 61.7122" stroke="#5C683F" stroke-linecap="round" stroke-linejoin="round"/>
<path id="Vector_5" d="M152.7 93.2622C151.5 90.1122 150.69 87.3322 150.37 83.9622" stroke="#5C683F" stroke-linecap="round" stroke-linejoin="round"/>
<path id="Vector_6" d="M185.55 79.9122C184.49 80.1822 183.47 80.6622 182.57 81.3122C180.46 82.8422 179.05 85.2322 177.91 87.6522C171.6 100.972 171.57 117.422 177.82 130.772C176.23 129.762 175.06 128.232 173.76 126.822C167.69 120.242 161.87 112.322 157.56 104.332" stroke="#5C683F" stroke-linecap="round" stroke-linejoin="round"/>
<path id="Vector_7" d="M135.64 83.7822C134.64 79.1822 133.5 74.6122 132.19 70.0822" stroke="#5C683F" stroke-linecap="round" stroke-linejoin="round"/>
<path id="Vector_8" d="M153.04 124.972C153.24 127.302 153.4 129.232 153.6 131.562C158.28 186.942 164.36 242.212 171.83 297.282C172.74 303.992 173.58 311.252 170.28 317.172C169.63 318.332 168.78 319.462 167.56 319.982C165.4 320.912 162.81 319.562 161.55 317.572C160.29 315.592 160.03 313.152 159.81 310.812C154.39 254.532 148.97 198.262 143.56 141.982" stroke="#5C683F" stroke-linecap="round" stroke-linejoin="round"/>
<path id="Vector_9" d="M147.78 81.5722C148.32 84.4622 148.81 87.3622 149.26 90.2722" stroke="#5C683F" stroke-linecap="round" stroke-linejoin="round"/>
<path id="Vector_10" d="M105.64 45.8322C110.02 39.1822 116.4 33.3822 123.97 34.5322C127.48 35.0622 130.36 36.9822 132.72 39.5922" stroke="#5C683F" stroke-linecap="round" stroke-linejoin="round"/>
<path id="Vector_11" d="M172.97 299.022C173.94 276.172 175.62 253.362 177.99 230.612C184.52 168.012 196.34 105.632 194.67 42.7122C194.58 39.3022 194.14 35.3422 191.25 33.5422C187.95 36.3822 187.54 41.2422 187.35 45.5922C184.18 117.942 177.18 190.132 166.45 261.752" stroke="#5C683F" stroke-linecap="round" stroke-linejoin="round"/>
<path id="Vector_12" d="M106.21 50.2222C91.2 79.3822 76.2 108.552 61.19 137.712C52.2 155.182 43.18 172.702 32.15 188.962" stroke="#5C683F" stroke-linecap="round" stroke-linejoin="round"/>
<path id="Vector_13" d="M191.37 33.5022C197.57 42.5322 199.39 53.7522 202.95 64.1222C213.86 95.8822 241.29 119.862 252.18 151.632" stroke="#5C683F" stroke-linecap="round" stroke-linejoin="round"/>
<path id="Vector_14" d="M87.03 87.5022C85.91 91.2722 86.95 95.3422 88.34 99.0222C93.36 112.312 102.98 123.592 107.21 137.162C110.5 147.702 110.3 159.302 106.65 169.712" stroke="#5C683F" stroke-linecap="round" stroke-linejoin="round"/>
<path id="Vector_15" d="M95.48 71.0822C98.18 78.2422 105.3 81.5722 111.57 85.9822C119.65 91.6622 127.08 98.4422 132.54 106.662C138 114.892 141.41 124.652 141.14 134.522" stroke="#5C683F" stroke-linecap="round" stroke-linejoin="round"/>
<path id="Vector_16" d="M103.41 55.6722C103.53 57.3522 103.88 60.7922 105.36 61.5822C106.84 62.3822 108.57 62.5922 110.25 62.5822C113.61 62.5822 116.97 61.7422 119.95 60.1822C122.82 58.6822 125.34 56.5122 128.38 55.3822C132.42 53.8722 137.1 54.4122 140.87 56.5022C144.65 58.5822 147.53 62.1122 149.17 66.1022" stroke="#5C683F" stroke-linecap="round" stroke-linejoin="round"/>
<path id="Vector_17" d="M67.11 126.652C65.79 132.052 67.57 137.652 68.94 143.032C70.61 149.612 71.69 156.392 71.34 163.162C70.99 169.942 69.16 176.732 65.38 182.362" stroke="#5C683F" stroke-linecap="round" stroke-linejoin="round"/>
<path id="Vector_18" d="M25.84 165.942C31.31 158.132 38.77 151.732 47.32 147.512C50.89 145.752 55.51 144.352 58.87 142.212" stroke="#5C683F" stroke-linecap="round" stroke-linejoin="round"/>
<path id="Vector_19" d="M32.59 117.572C39.7 112.852 48.98 113.042 57.37 114.602C62.12 115.492 66.94 116.762 71.71 115.972" stroke="#5C683F" stroke-linecap="round" stroke-linejoin="round"/>
<path id="Vector_20" d="M15.95 102.312C22.46 97.1922 29.04 92.0722 36.39 88.2522C43.74 84.4322 51.97 81.9422 60.24 82.4522C65.05 82.7522 69.7399 84.0422 74.5099 84.8022C79.2699 85.5622 84.3 85.7722 88.77 83.9722" stroke="#5C683F" stroke-linecap="round" stroke-linejoin="round"/>
<path id="Vector_21" d="M34.02 59.4022C36.49 57.6022 39.65 57.0722 42.7 56.8322C52.39 56.0922 62.15 57.8922 71.31 61.1522C75.7 62.7122 80 64.6122 84.55 65.6322C89.1 66.6522 94.04 66.7422 98.25 64.7522" stroke="#5C683F" stroke-linecap="round" stroke-linejoin="round"/>
<path id="Vector_22" d="M67.74 22.9822C73.29 20.5922 79.99 22.7022 84.47 26.7522C88.95 30.8022 91.63 36.4522 93.84 42.0722C96.05 47.6922 97.96 54.0522 101.33 59.0622" stroke="#5C683F" stroke-linecap="round" stroke-linejoin="round"/>
<path id="Vector_23" d="M226.07 106.352C223.93 119.902 223.94 133.792 226.1 147.342" stroke="#5C683F" stroke-linecap="round" stroke-linejoin="round"/>
<path id="Vector_24" d="M211.92 83.4222C215.13 86.0422 219.45 86.8922 223.59 86.9522C227.73 87.0222 231.86 86.3922 236.01 86.4922C246.38 86.7222 256.55 91.6822 263.11 99.7122" stroke="#5C683F" stroke-linecap="round" stroke-linejoin="round"/>
<path id="Vector_25" d="M201.14 58.3822C203.04 61.0422 206.34 63.0622 209.59 63.3722C212.84 63.6822 216.1 63.0822 219.32 62.5522C228.08 61.1022 237.28 60.1622 245.65 63.1222C249.04 64.3222 252.19 66.1222 255.22 68.0622C260.37 71.3522 265.26 75.0522 269.82 79.1122" stroke="#5C683F" stroke-linecap="round" stroke-linejoin="round"/>
<path id="Vector_26" d="M197.31 45.7822C199.31 47.7622 202.84 49.0622 205.55 48.3022C213.07 46.1922 220.02 42.4222 227.46 40.0522C234.9 37.6922 243.36 36.8622 250.25 40.5322" stroke="#5C683F" stroke-linecap="round" stroke-linejoin="round"/>
<path id="Vector_27" d="M194.83 38.0322C198.16 37.6322 199.29 34.6822 200.85 31.7122C203.51 26.6522 206.41 21.6222 210.48 17.6122C214.55 13.6022 219.98 10.6822 225.7 10.7322C226.71 10.7322 227.74 10.8422 228.66 11.2722" stroke="#5C683F" stroke-linecap="round" stroke-linejoin="round"/>
<path id="Vector_28" d="M207.11 74.3822C207.34 77.4922 205.69 80.3822 204.25 83.1422C196.7 97.6322 193.86 114.512 196.23 130.672" stroke="#5C683F" stroke-linecap="round" stroke-linejoin="round"/>
<path id="Vector_29" d="M166.35 86.6022C171.11 78.0622 177.22 69.7922 185.93 65.3322" stroke="#5C683F" stroke-linecap="round" stroke-linejoin="round"/>
<path id="Vector_30" d="M165.58 36.3922C167.33 34.6622 169.94 34.1422 172.39 34.0022C177.57 33.7122 183.92 35.2222 188.6 37.4722C188.38 37.3722 187.06 36.8022 186.85 36.7022" stroke="#5C683F" stroke-linecap="round" stroke-linejoin="round"/>
</g>
<g id="Group_2">
<path id="Vector_31" d="M17.29 138.752C18.43 136.862 19.75 135.112 21.25 133.492C20.11 135.382 18.79 137.132 17.29 138.752Z" fill="#5C683F"/>
<path id="Vector_32" d="M18 135.762C18.85 134.292 19.88 132.942 21.08 131.742C20.23 133.222 19.2 134.562 18 135.762Z" fill="#5C683F"/>
<path id="Vector_33" d="M17.96 133.292C19.01 131.982 20.04 130.732 21.14 129.462C20.43 130.982 19.32 132.312 17.96 133.292Z" fill="#5C683F"/>
<path id="Vector_34" d="M17.72 131.842C18.65 130.382 19.76 129.062 21.04 127.882C20.11 129.342 19 130.662 17.72 131.842Z" fill="#5C683F"/>
<path id="Vector_35" d="M17.53 130.072C18.4 128.692 19.44 127.462 20.65 126.372C19.78 127.752 18.74 128.982 17.53 130.072Z" fill="#5C683F"/>
<path id="Vector_36" d="M17.59 127.612C18.34 126.442 19.25 125.422 20.33 124.552C19.59 125.722 18.67 126.742 17.59 127.612Z" fill="#5C683F"/>
<path id="Vector_37" d="M16.87 126.432C17.95 124.782 19.3 123.322 20.87 122.132C19.61 123.652 18.29 125.072 16.87 126.432Z" fill="#5C683F"/>
<path id="Vector_38" d="M16.65 124.242C17.85 122.782 19.19 121.502 20.69 120.362C19.5 121.812 18.14 123.112 16.65 124.242Z" fill="#5C683F"/>
<path id="Vector_39" d="M16.11 122.952C17.15 121.352 18.64 120.022 20.35 119.182C18.89 120.412 17.51 121.642 16.11 122.952Z" fill="#5C683F"/>
<path id="Vector_40" d="M29.65 159.332C31.49 156.332 34.13 153.782 37.19 152.032C34.38 154.162 31.87 156.592 29.65 159.332Z" fill="#5C683F"/>
<path id="Vector_41" d="M32.37 154.582C34.16 152.612 36.09 150.802 38.19 149.162C36.41 151.132 34.46 152.942 32.37 154.582Z" fill="#5C683F"/>
<path id="Vector_42" d="M33.26 151.952C34.5 150.152 36.2 148.642 38.14 147.632C36.45 149.022 34.85 150.442 33.26 151.952Z" fill="#5C683F"/>
<path id="Vector_43" d="M32.92 150.302C34.32 148.472 36.16 146.962 38.24 145.962C36.4 147.352 34.65 148.782 32.92 150.302Z" fill="#5C683F"/>
<path id="Vector_44" d="M32.87 148.312C34.41 146.522 36.27 144.992 38.32 143.822C36.52 145.362 34.72 146.842 32.87 148.312Z" fill="#5C683F"/>
<path id="Vector_45" d="M32.22 146.342C33.53 144.592 35.38 143.212 37.44 142.452C35.58 143.622 33.87 144.892 32.22 146.342Z" fill="#5C683F"/>
<path id="Vector_46" d="M31.61 144.342C33.36 142.792 35.25 141.422 37.27 140.242C35.52 141.792 33.63 143.162 31.61 144.342Z" fill="#5C683F"/>
<path id="Vector_47" d="M31.3 142.332C32.86 140.902 34.68 139.752 36.65 138.952C34.9 140.142 33.13 141.252 31.3 142.332Z" fill="#5C683F"/>
<path id="Vector_48" d="M31.24 140.792C32.71 139.372 34.57 138.332 36.56 137.832C34.73 138.762 33 139.722 31.24 140.792Z" fill="#5C683F"/>
<path id="Vector_49" d="M80.81 97.8122L73.78 96.7322C76.16 96.6422 78.57 97.0122 80.81 97.8122Z" fill="#5C683F"/>
<path id="Vector_50" d="M80.9099 96.2022C79.6799 95.9522 78.5399 95.7422 77.2999 95.5222C78.5199 95.2822 79.8599 95.5322 80.9099 96.2022Z" fill="#5C683F"/>
<path id="Vector_51" d="M82.1 94.5122C80.35 94.5122 78.63 94.2722 76.95 93.8222C78.7 93.8222 80.42 94.0622 82.1 94.5122Z" fill="#5C683F"/>
<path id="Vector_52" d="M82.6199 92.5522C81.0899 92.7122 79.5699 92.6622 78.0599 92.3722C79.5899 92.2022 81.1099 92.2722 82.6199 92.5522Z" fill="#5C683F"/>
<path id="Vector_53" d="M84.44 90.8122C82.4 90.5122 80.41 90.3122 78.36 90.1822C80.39 89.8622 82.52 90.0822 84.44 90.8122Z" fill="#5C683F"/>
<path id="Vector_54" d="M85.6999 88.5222C83.1399 88.4822 80.6199 88.4322 78.0599 88.3722C80.5899 87.9822 83.1899 88.0322 85.6999 88.5222Z" fill="#5C683F"/>
<path id="Vector_55" d="M17.8199 97.8222C19.8199 96.4522 21.8999 95.2822 24.1199 94.3022C22.1399 95.6622 20.0199 96.8522 17.8199 97.8222Z" fill="#5C683F"/>
<path id="Vector_56" d="M18.66 96.2622C20.67 94.7922 22.8 93.5222 25.04 92.4422C23.03 93.9122 20.9 95.1822 18.66 96.2622Z" fill="#5C683F"/>
<path id="Vector_57" d="M19.87 94.2622C21.56 92.7922 23.57 91.6622 25.71 90.9922C24.25 91.8022 21.32 93.4422 19.87 94.2622Z" fill="#5C683F"/>
<path id="Vector_58" d="M20.24 92.2122C22.2 90.9922 24.26 89.9622 26.42 89.1422C24.46 90.3722 22.4 91.3922 20.24 92.2122Z" fill="#5C683F"/>
<path id="Vector_59" d="M21.4 90.1322C22.89 89.1922 24.48 88.4522 26.16 87.9222C24.67 88.8622 23.08 89.6022 21.4 90.1322Z" fill="#5C683F"/>
<path id="Vector_60" d="M20.09 89.1022C22.29 87.8822 24.59 86.8722 26.97 86.0622C24.77 87.2822 22.47 88.2922 20.09 89.1022Z" fill="#5C683F"/>
<path id="Vector_61" d="M18.51 87.7322C20.82 86.4522 23.38 85.5822 26 85.2122C23.48 86.0322 21.01 86.8522 18.51 87.7322Z" fill="#5C683F"/>
<path id="Vector_62" d="M17.37 86.5822C19.86 84.9422 22.85 84.0122 25.83 83.9622C22.89 84.4722 20.09 85.3422 17.37 86.5822Z" fill="#5C683F"/>
<path id="Vector_63" d="M43.36 66.5822C45.36 65.7622 47.51 65.2922 49.68 65.2022C47.58 65.7322 45.49 66.1922 43.36 66.5822Z" fill="#5C683F"/>
<path id="Vector_64" d="M45.54 64.7122C47.63 64.0822 49.81 63.7822 51.99 63.8322C49.84 64.2322 47.71 64.5222 45.54 64.7122Z" fill="#5C683F"/>
<path id="Vector_65" d="M47.12 62.7922C49.08 62.0922 51.25 61.9222 53.3 62.3022C51.21 62.3722 49.2 62.5322 47.12 62.7922Z" fill="#5C683F"/>
<path id="Vector_66" d="M47.8199 61.1522C49.8999 60.5522 52.1399 60.4222 54.2799 60.7922C52.1099 60.8722 49.9899 60.9922 47.8199 61.1522Z" fill="#5C683F"/>
<path id="Vector_67" d="M53.2 58.0922C51.46 58.0922 49.78 58.0222 48.04 57.8722C49.75 57.5622 51.52 57.6422 53.2 58.0922Z" fill="#5C683F"/>
<path id="Vector_68" d="M77.74 45.9922C75.99 43.5922 74 41.4622 71.74 39.5422C74.27 41.0822 76.39 43.3622 77.74 45.9922Z" fill="#5C683F"/>
<path id="Vector_69" d="M77.61 43.1922C76.12 41.4922 74.57 39.9322 72.9 38.4122C74.84 39.5522 76.5 41.2322 77.61 43.1922Z" fill="#5C683F"/>
<path id="Vector_70" d="M78.8 42.2922C76.92 40.3022 74.98 38.4422 72.92 36.6522C75.25 38.0722 77.28 40.0222 78.8 42.2922Z" fill="#5C683F"/>
<path id="Vector_71" d="M78.86 39.8522C76.99 38.3022 75.21 36.7022 73.47 35.0022C75.49 36.3422 77.31 37.9822 78.86 39.8522Z" fill="#5C683F"/>
<path id="Vector_72" d="M79.8899 39.0222C77.9499 37.0122 75.9099 35.2022 73.6799 33.5122C76.1399 34.8122 78.3099 36.7322 79.8899 39.0222Z" fill="#5C683F"/>
<path id="Vector_73" d="M79.63 36.7222C78.08 35.0822 76.39 33.6822 74.49 32.4522C76.59 33.2622 78.45 34.8022 79.63 36.7222Z" fill="#5C683F"/>
<path id="Vector_74" d="M79.85 34.6822C78.26 33.2022 76.6 31.9022 74.78 30.7022C76.8 31.4822 78.61 32.9022 79.85 34.6822Z" fill="#5C683F"/>
<path id="Vector_75" d="M80.64 33.3622C79.06 32.0922 76.81 30.2922 75.2 29.0222C77.27 30.0822 79.14 31.5722 80.64 33.3622Z" fill="#5C683F"/>
<path id="Vector_76" d="M81.2 32.1722C79.47 30.5922 77.69 29.1622 75.78 27.8122C77.91 28.7622 79.81 30.2922 81.2 32.1722Z" fill="#5C683F"/>
<path id="Vector_77" d="M81.84 30.8222C80 29.0922 78 27.6622 75.78 26.4522C78.17 27.2222 80.35 28.7922 81.84 30.8222Z" fill="#5C683F"/>
<path id="Vector_78" d="M81.93 28.7222C79.62 27.2722 77.27 25.9922 74.79 24.8622C77.42 25.5722 79.9 26.9122 81.93 28.7222Z" fill="#5C683F"/>
<path id="Vector_79" d="M82.13 27.7022C80.28 25.9722 78.12 24.7322 75.71 23.9722C78.22 24.2622 80.64 25.6622 82.13 27.7022Z" fill="#5C683F"/>
<path id="Vector_80" d="M102.99 55.2222C101.37 53.1022 99.94 50.8522 98.7 48.4922C100.32 50.6122 101.75 52.8622 102.99 55.2222Z" fill="#5C683F"/>
<path id="Vector_81" d="M103.64 53.0722C102.44 50.9322 101.26 48.8222 100.08 46.6722C101.64 48.5622 102.85 50.7522 103.64 53.0722Z" fill="#5C683F"/>
<path id="Vector_82" d="M104.66 51.0722C103.23 49.0822 101.98 46.9822 100.93 44.7622C102.37 46.7522 103.61 48.8522 104.66 51.0722Z" fill="#5C683F"/>
<path id="Vector_83" d="M104.88 48.5722C103.56 46.3422 102.33 44.1022 101.17 41.7922C102.72 43.8622 103.97 46.1622 104.88 48.5722Z" fill="#5C683F"/>
<path id="Vector_84" d="M104.74 44.3922C103.84 43.0322 103.04 41.6522 102.31 40.1922C103.41 41.3922 104.25 42.8322 104.74 44.3922Z" fill="#5C683F"/>
<path id="Vector_85" d="M105.03 42.3022C104.13 41.0422 103.29 39.8222 102.42 38.5422C103.62 39.5122 104.54 40.8422 105.03 42.3022Z" fill="#5C683F"/>
<path id="Vector_86" d="M144.03 62.4322C146.54 64.2222 148.64 66.6422 150.06 69.3922C148.25 66.8822 146.26 64.5822 144.03 62.4322Z" fill="#5C683F"/>
<path id="Vector_87" d="M144.09 64.7022C146.1 65.9722 147.87 67.6522 149.24 69.6022C147.73 68.1422 145.6 66.1322 144.09 64.7022Z" fill="#5C683F"/>
<path id="Vector_88" d="M144.46 66.4222C146.28 67.6722 147.86 69.3022 149.05 71.1722C147.5 69.5822 146 68.0222 144.46 66.4222Z" fill="#5C683F"/>
<path id="Vector_89" d="M144.52 68.0822C146.47 69.3722 148.21 70.9622 149.67 72.7822C147.88 71.2722 146.19 69.7222 144.52 68.0822Z" fill="#5C683F"/>
<path id="Vector_90" d="M144.25 69.8522C146.47 71.3622 148.47 73.1822 150.17 75.2522C148.14 73.4922 146.18 71.7122 144.25 69.8522Z" fill="#5C683F"/>
<path id="Vector_91" d="M144.39 71.6522C146.95 73.2922 149.26 75.3222 151.22 77.6522L144.39 71.6522Z" fill="#5C683F"/>
<path id="Vector_92" d="M143.83 73.1522C146.26 74.7322 148.46 76.6622 150.33 78.8822C148.14 76.9822 145.99 75.0922 143.83 73.1522Z" fill="#5C683F"/>
<path id="Vector_93" d="M143.47 74.5422C146.05 76.5922 148.51 78.8222 150.78 81.2122C148.18 79.1522 145.76 76.9422 143.47 74.5422Z" fill="#5C683F"/>
<path id="Vector_94" d="M144.68 76.8322C146.56 77.9622 148.22 79.4822 149.51 81.2522C147.88 79.7822 146.3 78.3222 144.68 76.8322Z" fill="#5C683F"/>
<path id="Vector_95" d="M120.94 76.5522C123.1 77.8222 125.09 79.3822 126.83 81.1922C124.79 79.7222 122.85 78.1922 120.94 76.5522Z" fill="#5C683F"/>
<path id="Vector_96" d="M120.69 78.0122C122.69 79.2922 124.55 80.7522 126.27 82.3922C124.27 81.1122 122.41 79.6522 120.69 78.0122Z" fill="#5C683F"/>
<path id="Vector_97" d="M120.32 79.4622C122.28 80.5222 124.04 81.9922 125.42 83.7522L120.32 79.4622Z" fill="#5C683F"/>
<path id="Vector_98" d="M119.93 80.7522C121.97 81.7622 123.77 83.3122 125.07 85.1822C123.42 83.6022 121.74 82.1522 119.93 80.7522Z" fill="#5C683F"/>
<path id="Vector_99" d="M119.91 82.6522C121.74 83.6322 123.36 85.0522 124.57 86.7522C123.02 85.3522 121.5 84.0122 119.91 82.6522Z" fill="#5C683F"/>
<path id="Vector_100" d="M119.11 83.9022C121.03 85.0622 122.75 86.5422 124.19 88.2622C122.43 86.8622 120.76 85.4322 119.11 83.9022Z" fill="#5C683F"/>
<path id="Vector_101" d="M118.68 85.2922C120.59 86.5622 122.35 88.0122 123.97 89.6322C122.06 88.3622 120.3 86.9122 118.68 85.2922Z" fill="#5C683F"/>
<path id="Vector_102" d="M117.97 86.5422C120.05 87.8322 121.89 89.5222 123.35 91.4922L117.97 86.5422Z" fill="#5C683F"/>
<path id="Vector_103" d="M116.99 87.5222C119.66 89.2722 122.1 91.3622 124.24 93.7322C121.78 91.6922 119.38 89.6322 116.99 87.5222Z" fill="#5C683F"/>
<path id="Vector_104" d="M118.07 128.982C119.95 132.892 121.26 137.082 121.95 141.362C120.82 137.172 119.53 133.062 118.07 128.982Z" fill="#5C683F"/>
<path id="Vector_105" d="M117.85 131.402C119.41 134.372 120.41 137.652 120.76 140.992C119.96 137.732 119 134.562 117.85 131.402Z" fill="#5C683F"/>
<path id="Vector_106" d="M117.49 133.142C118.73 135.862 119.53 138.802 119.83 141.782C119.08 138.882 118.31 136.022 117.49 133.142Z" fill="#5C683F"/>
<path id="Vector_107" d="M116.57 134.522C117.84 137.802 118.47 141.352 118.4 144.872C118.01 141.372 117.41 137.942 116.57 134.522Z" fill="#5C683F"/>
<path id="Vector_108" d="M115.42 136.302C116.42 139.492 116.88 142.862 116.76 146.202C116.42 142.872 115.98 139.592 115.42 136.302Z" fill="#5C683F"/>
<path id="Vector_109" d="M113.69 137.892C114.7 141.142 115.19 144.572 115.11 147.972C114.73 144.582 114.27 141.252 113.69 137.892Z" fill="#5C683F"/>
<path id="Vector_110" d="M112.14 138.572C113.29 142.242 113.8 146.142 113.62 149.992C113.34 146.152 112.85 142.362 112.14 138.572Z" fill="#5C683F"/>
<path id="Vector_111" d="M110.79 139.692C111.89 143.182 112.29 146.932 111.93 150.572C111.83 146.902 111.46 143.292 110.79 139.692Z" fill="#5C683F"/>
<path id="Vector_112" d="M109.15 141.322C110.29 144.522 110.88 147.932 110.89 151.332C110.43 147.962 109.85 144.652 109.15 141.322Z" fill="#5C683F"/>
<path id="Vector_113" d="M139.86 145.602C139.27 143.092 138.4 140.552 138.08 137.952C138.83 140.122 139.36 142.372 139.8 144.622C139.83 144.942 139.97 145.272 139.86 145.602Z" fill="#5C683F"/>
<path id="Vector_114" d="M138.69 147.432C138.13 145.392 137.79 143.312 137.68 141.202C138.24 143.242 138.57 145.322 138.69 147.432Z" fill="#5C683F"/>
<path id="Vector_115" d="M137.52 148.102C136.99 146.502 136.69 144.862 136.6 143.172C137.13 144.772 137.43 146.422 137.52 148.102Z" fill="#5C683F"/>
<path id="Vector_116" d="M136.26 149.492C135.79 147.882 135.54 146.232 135.52 144.552C135.99 146.162 136.24 147.812 136.26 149.492Z" fill="#5C683F"/>
<path id="Vector_117" d="M133.1 143.672C133.88 146.012 134.29 148.472 134.3 150.932C133.84 148.512 133.45 146.112 133.1 143.672Z" fill="#5C683F"/>
<path id="Vector_118" d="M132.51 147.752C132.89 149.022 133.04 150.362 132.97 151.672C132.59 150.382 132.44 149.092 132.51 147.752Z" fill="#5C683F"/>
<path id="Vector_119" d="M131.51 149.622C131.84 150.882 131.95 152.212 131.83 153.512C131.5 152.222 131.39 150.942 131.51 149.622Z" fill="#5C683F"/>
<path id="Vector_120" d="M130.77 151.442C131.05 152.732 131.12 154.042 130.95 155.352C130.66 154.062 130.61 152.752 130.77 151.442Z" fill="#5C683F"/>
<path id="Vector_121" d="M129.86 153.482C130.1 154.592 130.13 155.712 129.92 156.832C129.67 155.722 129.66 154.602 129.86 153.482Z" fill="#5C683F"/>
<path id="Vector_122" d="M128.7 155.642C128.76 156.622 128.71 157.522 128.56 158.492C128.26 157.562 128.32 156.532 128.7 155.642Z" fill="#5C683F"/>
<path id="Vector_123" d="M84.12 148.382C85.14 153.022 85.34 157.872 84.71 162.582C84.88 157.832 84.69 153.102 84.12 148.382Z" fill="#5C683F"/>
<path id="Vector_124" d="M82.91 150.412C83.53 154.002 83.69 157.682 83.35 161.312C83.26 158.592 83.04 153.122 82.91 150.412Z" fill="#5C683F"/>
<path id="Vector_125" d="M82.03 153.722C82.2 156.822 82.14 159.932 81.85 163.022C81.68 159.922 81.74 156.812 82.03 153.722Z" fill="#5C683F"/>
<path id="Vector_126" d="M80.49 153.642C80.95 157.012 80.92 160.452 80.39 163.812C80.46 160.412 80.49 157.042 80.49 153.642Z" fill="#5C683F"/>
<path id="Vector_127" d="M79.44 158.232C79.69 160.692 79.49 163.212 78.86 165.612C79.04 163.142 79.24 160.712 79.44 158.232Z" fill="#5C683F"/>
<path id="Vector_128" d="M77.67 159.442C77.75 161.712 77.6 163.972 77.23 166.212C77.15 163.942 77.3 161.682 77.67 159.442Z" fill="#5C683F"/>
<path id="Vector_129" d="M75.73 161.372C75.9 163.752 75.61 166.162 74.89 168.432C75.17 166.062 75.44 163.742 75.73 161.372Z" fill="#5C683F"/>
<path id="Vector_130" d="M74.25 162.462C74.31 164.772 74.02 167.082 73.4 169.312C73.58 167.012 73.87 164.742 74.25 162.462Z" fill="#5C683F"/>
<path id="Vector_131" d="M72.8999 163.082C72.9299 165.622 72.5699 168.162 71.8199 170.592C72.1199 168.072 72.4799 165.592 72.8999 163.082Z" fill="#5C683F"/>
<path id="Vector_132" d="M181.76 126.192C180.82 126.902 179.74 127.432 178.6 127.732C179.56 127.012 180.6 126.512 181.76 126.192Z" fill="#5C683F"/>
<path id="Vector_133" d="M181.69 124.572C181.08 125.222 180.35 125.692 179.5 125.952C180.11 125.302 180.84 124.842 181.69 124.572Z" fill="#5C683F"/>
<path id="Vector_134" d="M182.01 122.852C181.23 123.702 180.23 124.322 179.13 124.652C180.02 123.922 180.96 123.332 182.01 122.852Z" fill="#5C683F"/>
<path id="Vector_135" d="M182.17 121.072C181.36 121.902 180.42 122.542 179.35 123.002C180.16 122.172 181.1 121.532 182.17 121.072Z" fill="#5C683F"/>
<path id="Vector_136" d="M182.27 119.072C181.26 120.042 180.14 120.812 178.87 121.402C179.86 120.442 181.02 119.652 182.27 119.072Z" fill="#5C683F"/>
<path id="Vector_137" d="M182.47 116.812C181.6 117.662 180.6 118.342 179.48 118.822C180.35 117.962 181.35 117.292 182.47 116.812Z" fill="#5C683F"/>
<path id="Vector_138" d="M182.44 114.452C181.56 115.482 180.44 116.302 179.18 116.822C180.2 115.912 181.26 115.142 182.44 114.452Z" fill="#5C683F"/>
<path id="Vector_139" d="M182.24 112.772C181.46 113.622 180.52 114.322 179.47 114.812C180.27 113.942 181.17 113.272 182.24 112.772Z" fill="#5C683F"/>
<path id="Vector_140" d="M182.68 110.852C181.51 112.052 180.19 113.092 178.74 113.942C179.91 112.732 181.23 111.702 182.68 110.852Z" fill="#5C683F"/>
<path id="Vector_141" d="M185.52 78.3722C183.5 79.6222 181.46 80.7822 179.34 81.8722C181.21 80.4022 183.3 79.2222 185.52 78.3722Z" fill="#5C683F"/>
<path id="Vector_142" d="M185.16 76.8222C183.62 78.0522 181.97 79.0922 180.19 79.9422C181.72 78.7122 183.38 77.6722 185.16 76.8222Z" fill="#5C683F"/>
<path id="Vector_143" d="M184.68 75.5222C183.5 76.5622 182.19 77.4222 180.76 78.0922C181.94 77.0522 183.25 76.1922 184.68 75.5222Z" fill="#5C683F"/>
<path id="Vector_144" d="M185.04 73.3622C183.62 74.6922 181.97 75.7722 180.19 76.5222C181.76 75.3722 183.36 74.3222 185.04 73.3622Z" fill="#5C683F"/>
<path id="Vector_145" d="M185.09 71.5422C183.6 72.8322 181.95 73.9522 180.21 74.8722C181.72 73.5722 183.33 72.4722 185.09 71.5422Z" fill="#5C683F"/>
<path id="Vector_146" d="M185.31 69.6022C184 70.7522 182.56 71.7322 180.99 72.5022C182.3 71.3522 183.74 70.3822 185.31 69.6022Z" fill="#5C683F"/>
<path id="Vector_147" d="M185.48 67.7422C183.8 69.2122 181.99 70.5022 180.04 71.6022C181.72 70.1322 183.54 68.8422 185.48 67.7422Z" fill="#5C683F"/>
<path id="Vector_148" d="M186.14 62.5122C184.63 63.2322 183.16 63.9022 181.62 64.5622C182.92 63.5122 184.5 62.7922 186.14 62.5122Z" fill="#5C683F"/>
<path id="Vector_149" d="M186.18 59.7922C184.75 60.7422 183.24 61.4822 181.62 62.0322C183.03 61.0822 184.57 60.3322 186.18 59.7922Z" fill="#5C683F"/>
<path id="Vector_150" d="M186.33 57.6522C184.93 58.7122 183.42 59.5722 181.8 60.2322C183.2 59.1722 184.71 58.3122 186.33 57.6522Z" fill="#5C683F"/>
<path id="Vector_151" d="M186.09 56.1122C185.09 57.1322 183.78 57.8522 182.39 58.1522C183.62 57.4222 184.82 56.7622 186.09 56.1122Z" fill="#5C683F"/>
<path id="Vector_152" d="M186.41 53.9122C185.28 54.8322 184.02 55.5722 182.66 56.1022C183.79 55.1822 185.05 54.4422 186.41 53.9122Z" fill="#5C683F"/>
<path id="Vector_153" d="M186.66 51.7422C185.24 52.8822 183.69 53.8522 182.03 54.6122C183.46 53.4622 184.99 52.5122 186.66 51.7422Z" fill="#5C683F"/>
<path id="Vector_154" d="M186.52 49.9522C185.42 50.8622 184.2 51.5922 182.86 52.1122C183.96 51.2022 185.19 50.4822 186.52 49.9522Z" fill="#5C683F"/>
<path id="Vector_155" d="M186.68 47.8222C185.55 48.8222 184.3 49.6422 182.93 50.2622C184.06 49.2622 185.31 48.4522 186.68 47.8222Z" fill="#5C683F"/>
<path id="Vector_156" d="M186.65 46.0522C185.56 47.1122 184.33 47.9922 182.97 48.6822C184.06 47.6222 185.29 46.7422 186.65 46.0522Z" fill="#5C683F"/>
<path id="Vector_157" d="M186.87 43.8222C185.48 45.2522 183.71 46.3322 181.81 46.9322C183.53 45.9122 185.19 44.9022 186.87 43.8222Z" fill="#5C683F"/>
<path id="Vector_158" d="M187.11 40.7722C185.81 41.6722 184.41 42.3822 182.91 42.8722C184.21 41.9722 185.61 41.2722 187.11 40.7722Z" fill="#5C683F"/>
<path id="Vector_159" d="M187.08 38.1722C185.44 39.1422 183.77 39.9922 182.02 40.7422C183.54 39.6022 185.26 38.7322 187.08 38.1722Z" fill="#5C683F"/>
<path id="Vector_160" d="M186.25 36.7222C184.55 37.8122 182.72 38.7222 180.82 39.4122C182.54 38.3122 184.33 37.4222 186.25 36.7222Z" fill="#5C683F"/>
<path id="Vector_161" d="M183.6 31.1522C182.3 32.0722 181.05 32.9422 179.72 33.8322C180.74 32.6122 182.1 31.6722 183.6 31.1522Z" fill="#5C683F"/>
<path id="Vector_162" d="M181.99 30.7122C181.17 31.5222 180.22 32.1422 179.15 32.5722C179.97 31.7622 180.92 31.1422 181.99 30.7122Z" fill="#5C683F"/>
<path id="Vector_163" d="M180.29 29.1722C179.05 30.0922 177.79 30.8922 176.43 31.6222C177.52 30.5322 178.84 29.7022 180.29 29.1722Z" fill="#5C683F"/>
<path id="Vector_164" d="M178.89 27.6022C177.68 28.7922 176.2 29.7022 174.59 30.2422C176 29.2922 177.41 28.4322 178.89 27.6022Z" fill="#5C683F"/>
<path id="Vector_165" d="M177.34 26.4322C176.23 27.4122 175 28.2022 173.65 28.8022C174.75 27.8222 175.99 27.0322 177.34 26.4322Z" fill="#5C683F"/>
<path id="Vector_166" d="M175.57 26.1322C174.52 27.0022 173.35 27.6722 172.07 28.1522C173.12 27.2822 174.29 26.6122 175.57 26.1322Z" fill="#5C683F"/>
<path id="Vector_167" d="M154.49 58.7222C155.05 57.8222 155.78 57.0722 156.67 56.4822C156.11 57.3822 155.37 58.1322 154.49 58.7222Z" fill="#5C683F"/>
<path id="Vector_168" d="M153.74 57.4822C154.39 56.2422 155.22 55.1322 156.24 54.1722C155.59 55.4122 154.75 56.5122 153.74 57.4822Z" fill="#5C683F"/>
<path id="Vector_169" d="M153.16 55.9122C153.81 54.5822 154.64 53.3722 155.66 52.3022C155.01 53.6322 154.18 54.8322 153.16 55.9122Z" fill="#5C683F"/>
<path id="Vector_170" d="M152.58 53.8922C153.2 52.6422 154.03 51.4922 155.01 50.5022C154.38 51.7722 153.57 52.8922 152.58 53.8922Z" fill="#5C683F"/>
<path id="Vector_171" d="M151.59 51.8522C152.12 50.7622 152.84 49.8022 153.73 48.9822C153.2 50.0722 152.48 51.0322 151.59 51.8522Z" fill="#5C683F"/>
<path id="Vector_172" d="M150.99 50.8122C151.57 49.6122 152.36 48.5122 153.31 47.5722C152.71 48.7922 151.95 49.8522 150.99 50.8122Z" fill="#5C683F"/>
<path id="Vector_173" d="M157.52 102.132C158.21 100.982 158.8 99.7822 159.74 98.8022C159.18 100.022 158.56 101.262 157.52 102.132Z" fill="#5C683F"/>
<path id="Vector_174" d="M156.87 100.122C157.32 99.0122 157.96 98.0122 158.78 97.1522C158.33 98.2622 157.69 99.2522 156.87 100.122Z" fill="#5C683F"/>
<path id="Vector_175" d="M156.13 98.1122C156.54 97.0422 157.02 96.0722 157.62 95.0922C157.45 96.2222 156.92 97.2822 156.13 98.1122Z" fill="#5C683F"/>
<path id="Vector_176" d="M155.25 96.4822C155.4 95.5322 155.76 94.6622 156.32 93.8822C156.17 94.8322 155.81 95.7022 155.25 96.4822Z" fill="#5C683F"/>
<path id="Vector_177" d="M154.36 95.3822C154.49 94.4722 154.82 93.6422 155.37 92.9022C155.24 93.8122 154.9 94.6422 154.36 95.3822Z" fill="#5C683F"/>
<path id="Vector_178" d="M222.91 138.852C222.72 136.402 222.76 133.962 223.02 131.512C223.21 133.962 223.17 136.412 222.91 138.852Z" fill="#5C683F"/>
<path id="Vector_179" d="M221.6 137.262C221.29 135.152 221.46 133.022 221.46 130.912C221.91 132.972 221.75 135.152 221.6 137.262Z" fill="#5C683F"/>
<path id="Vector_180" d="M220.28 135.792C220.05 134.172 219.94 132.582 219.98 130.952C220.4 132.532 220.5 134.182 220.28 135.792Z" fill="#5C683F"/>
<path id="Vector_181" d="M218.97 135.242C218.64 133.822 218.52 132.372 218.64 130.922C218.98 132.342 219.08 133.792 218.97 135.242Z" fill="#5C683F"/>
<path id="Vector_182" d="M217.83 135.032C217.56 133.542 217.41 132.072 217.35 130.562C217.85 131.992 218.01 133.532 217.83 135.032Z" fill="#5C683F"/>
<path id="Vector_183" d="M216.48 134.482C216.3 133.002 216.18 131.582 216.11 130.092C216.63 131.482 216.76 133.022 216.48 134.482Z" fill="#5C683F"/>
<path id="Vector_184" d="M215.47 134.232C215.24 132.682 215.14 131.162 215.17 129.602C215.59 131.102 215.69 132.692 215.47 134.232Z" fill="#5C683F"/>
<path id="Vector_185" d="M214.16 133.472C214.01 132.032 213.95 130.652 213.98 129.202C214.4 130.572 214.47 132.062 214.16 133.472Z" fill="#5C683F"/>
<path id="Vector_186" d="M213.16 133.532C212.85 131.752 212.76 129.962 212.9 128.162C213.21 129.942 213.3 131.732 213.16 133.532Z" fill="#5C683F"/>
<path id="Vector_187" d="M211.82 132.982C211.53 131.082 211.47 129.182 211.63 127.272C211.92 129.162 211.98 131.072 211.82 132.982Z" fill="#5C683F"/>
<path id="Vector_188" d="M210.75 132.772C210.24 129.942 210.13 127.042 210.43 124.182C210.58 127.052 210.68 129.892 210.75 132.772Z" fill="#5C683F"/>
<path id="Vector_189" d="M235.82 122.592C234.75 121.092 233.88 119.482 233.21 117.762C234.28 119.262 235.15 120.872 235.82 122.592Z" fill="#5C683F"/>
<path id="Vector_190" d="M233.8 121.252C232.97 120.102 232.34 118.852 231.91 117.502C232.74 118.652 233.37 119.902 233.8 121.252Z" fill="#5C683F"/>
<path id="Vector_191" d="M232.35 121.062C231.79 119.902 231.34 118.762 230.96 117.532C231.74 118.552 232.23 119.792 232.35 121.062Z" fill="#5C683F"/>
<path id="Vector_192" d="M231.13 121.202C230.44 119.922 229.97 118.602 229.71 117.172C230.39 118.432 230.87 119.792 231.13 121.202Z" fill="#5C683F"/>
<path id="Vector_193" d="M229.58 121.652C229.28 120.322 228.98 119.082 228.66 117.752C229.4 118.892 229.73 120.302 229.58 121.652Z" fill="#5C683F"/>
<path id="Vector_194" d="M228.55 121.622C228.02 120.432 227.72 119.222 227.63 117.932C228.15 119.092 228.46 120.352 228.55 121.622Z" fill="#5C683F"/>
<path id="Vector_195" d="M227.36 122.052C227.14 120.892 226.95 119.812 226.78 118.652C227.38 119.662 227.59 120.902 227.36 122.052Z" fill="#5C683F"/>
<path id="Vector_196" d="M226.14 122.612C225.67 121.232 225.41 119.802 225.38 118.342C225.86 119.722 226.11 121.152 226.14 122.612Z" fill="#5C683F"/>
<path id="Vector_197" d="M200.25 88.4422C200.78 86.6522 201.63 84.9622 202.75 83.4722C202.02 85.1922 201.19 86.8322 200.25 88.4422Z" fill="#5C683F"/>
<path id="Vector_198" d="M200.91 85.4222C201.22 84.1822 201.73 83.0322 202.45 81.9722C202.14 83.2122 201.62 84.3622 200.91 85.4222Z" fill="#5C683F"/>
<path id="Vector_199" d="M200.35 84.4822C200.63 83.2622 201.11 82.1122 201.8 81.0722C201.53 82.2922 201.04 83.4422 200.35 84.4822Z" fill="#5C683F"/>
<path id="Vector_200" d="M199.4 83.5822C199.71 82.3122 200.21 81.1422 200.93 80.0522C200.63 81.3122 200.11 82.5022 199.4 83.5822Z" fill="#5C683F"/>
<path id="Vector_201" d="M198.47 82.5522C198.78 81.2622 199.14 80.0522 199.59 78.8122C199.59 80.1322 199.19 81.4522 198.47 82.5522Z" fill="#5C683F"/>
<path id="Vector_202" d="M197.64 81.5522C197.83 80.2122 198.23 78.9222 198.84 77.7222C198.66 79.0622 198.25 80.3522 197.64 81.5522Z" fill="#5C683F"/>
<path id="Vector_203" d="M197.14 80.2622C197.29 79.0722 197.66 77.9522 198.24 76.9022C198.09 78.0922 197.72 79.2122 197.14 80.2622Z" fill="#5C683F"/>
<path id="Vector_204" d="M196.61 79.3322C196.72 78.0922 197.04 76.9022 197.59 75.7722C197.48 77.0122 197.15 78.2022 196.61 79.3322Z" fill="#5C683F"/>
<path id="Vector_205" d="M195.76 78.7122C195.93 77.2022 196.32 75.7322 196.92 74.3422C196.75 75.8522 196.36 77.3122 195.76 78.7122Z" fill="#5C683F"/>
<path id="Vector_206" d="M195.48 76.0122C195.61 74.8222 195.96 73.6922 196.52 72.6322C196.39 73.8222 196.04 74.9522 195.48 76.0122Z" fill="#5C683F"/>
<path id="Vector_207" d="M215.94 2.26222C218.71 1.85222 221.6 2.09222 224.26 2.97222C221.49 2.54222 218.75 2.30222 215.94 2.26222Z" fill="#5C683F"/>
<path id="Vector_208" d="M217.5 3.24224C219.34 2.89224 221.29 3.04223 223.05 3.67223C221.18 3.48223 219.37 3.34224 217.5 3.24224Z" fill="#5C683F"/>
<path id="Vector_209" d="M218.54 4.24223C220.34 3.94223 222.22 4.06223 223.97 4.59223C222.14 4.51223 220.36 4.39223 218.54 4.24223Z" fill="#5C683F"/>
<path id="Vector_210" d="M219.86 5.44222C221.62 5.01222 223.51 5.06222 225.24 5.60222C223.43 5.52222 221.68 5.46222 219.86 5.44222Z" fill="#5C683F"/>
<path id="Vector_211" d="M220.93 6.49223C222.63 6.14223 224.42 6.20223 226.09 6.66223C224.35 6.66223 222.67 6.59223 220.93 6.49223Z" fill="#5C683F"/>
<path id="Vector_212" d="M221.78 7.57222C223.87 7.34222 226 7.46223 228.04 7.95223C225.94 7.91223 223.87 7.78222 221.78 7.57222Z" fill="#5C683F"/>
<path id="Vector_213" d="M251.62 20.9722C248.05 19.5422 244.46 18.2722 240.79 17.1222C244.56 17.8322 248.24 19.1422 251.62 20.9722Z" fill="#5C683F"/>
<path id="Vector_214" d="M232.98 34.0422C231.41 34.7622 229.76 35.2622 228.06 35.5522C229.63 34.8322 231.28 34.3322 232.98 34.0422Z" fill="#5C683F"/>
<path id="Vector_215" d="M231.19 35.4722C229.51 36.1022 227.85 36.6622 226.13 37.1722C227.66 36.2422 229.41 35.6522 231.19 35.4722Z" fill="#5C683F"/>
<path id="Vector_216" d="M230.58 36.3722C229.11 37.2222 227.44 37.7322 225.75 37.8322C227.36 37.2822 228.94 36.8022 230.58 36.3722Z" fill="#5C683F"/>
<path id="Vector_217" d="M229.41 37.7922C227.04 38.6022 223.65 39.7922 221.26 40.6622C223.79 39.2722 226.56 38.2922 229.41 37.7922Z" fill="#5C683F"/>
<path id="Vector_218" d="M244.95 40.3022C247.88 40.6622 250.75 41.6022 253.32 43.0622C250.56 42.0122 247.8 41.1022 244.95 40.3022Z" fill="#5C683F"/>
<path id="Vector_219" d="M248.17 42.6022C250.68 42.7622 253.18 43.5922 255.28 44.9722C252.95 43.9922 250.62 43.2122 248.17 42.6022Z" fill="#5C683F"/>
<path id="Vector_220" d="M249.62 43.8422C252.12 44.1722 254.57 45.0722 256.69 46.4522C254.36 45.4722 252.03 44.6122 249.62 43.8422Z" fill="#5C683F"/>
<path id="Vector_221" d="M251.92 45.5422C254.57 46.1322 257.14 47.1822 259.44 48.6222L251.92 45.5422Z" fill="#5C683F"/>
<path id="Vector_222" d="M253.33 47.3122C256.16 48.0922 258.88 49.3422 261.32 50.9822C258.65 49.7322 256.02 48.5122 253.33 47.3122Z" fill="#5C683F"/>
<path id="Vector_223" d="M254.67 48.9422C257.38 49.7422 259.96 50.9822 262.29 52.5822C260.07 51.5422 256.91 50.0022 254.67 48.9422Z" fill="#5C683F"/>
<path id="Vector_224" d="M260.49 61.0222C262.41 61.1422 264.31 61.6922 266 62.6022C264.13 62.1122 262.33 61.5922 260.49 61.0222Z" fill="#5C683F"/>
<path id="Vector_225" d="M260.74 62.0522C262.8 62.4622 264.8 63.0822 266.73 63.9222C264.67 63.5122 262.67 62.8922 260.74 62.0522Z" fill="#5C683F"/>
<path id="Vector_226" d="M260.7 62.9022C262.96 63.4222 265.16 64.1522 267.28 65.0922C265.02 64.5722 262.82 63.8422 260.7 62.9022Z" fill="#5C683F"/>
<path id="Vector_227" d="M260.52 64.1522C263.42 64.6722 266.25 65.6222 268.88 66.9522C266.07 66.0322 263.31 65.1022 260.52 64.1522Z" fill="#5C683F"/>
<path id="Vector_228" d="M260.46 65.0622C263.48 65.8622 266.4 67.0622 269.12 68.6122C266.21 67.4722 263.34 66.2922 260.46 65.0622Z" fill="#5C683F"/>
<path id="Vector_229" d="M262.24 67.0322C264.66 67.4922 267 68.4622 269.03 69.8622C266.77 68.8622 264.54 67.9322 262.24 67.0322Z" fill="#5C683F"/>
<path id="Vector_230" d="M261.36 67.3922C264.08 68.2922 266.67 69.6222 268.99 71.3222C266.77 70.2022 263.61 68.5422 261.36 67.3922Z" fill="#5C683F"/>
<path id="Vector_231" d="M260.11 68.4822C263.66 69.6722 267.02 71.4722 269.98 73.7622C266.76 71.8422 263.49 70.0922 260.11 68.4822Z" fill="#5C683F"/>
<path id="Vector_232" d="M261.9 70.1322C264.84 71.4422 267.55 73.3422 269.78 75.6622C267.24 73.6722 264.63 71.8422 261.9 70.1322Z" fill="#5C683F"/>
<path id="Vector_233" d="M261 71.1622C264.5 72.9222 267.81 75.0322 270.88 77.4722C267.55 75.4122 264.28 73.3122 261 71.1622Z" fill="#5C683F"/>
<path id="Vector_234" d="M238.93 62.6222C241.01 62.8622 243.05 63.5222 244.88 64.5522C242.87 63.9322 240.92 63.3022 238.93 62.6222Z" fill="#5C683F"/>
<path id="Vector_235" d="M239.45 63.8922C241.29 64.1522 243.09 64.7422 244.72 65.6222C242.91 65.1522 241.18 64.5822 239.45 63.8922Z" fill="#5C683F"/>
<path id="Vector_236" d="M239.88 64.8722C242.44 65.4322 244.9 66.5722 246.99 68.1522C244.65 66.9522 242.31 65.8722 239.88 64.8722Z" fill="#5C683F"/>
<path id="Vector_237" d="M240.74 66.5222C243.15 67.1222 245.45 68.2822 247.35 69.8722C245.18 68.6522 243.01 67.5522 240.74 66.5222Z" fill="#5C683F"/>
<path id="Vector_238" d="M241.03 67.7722C243.45 68.4522 245.72 69.7222 247.56 71.4422C245.44 70.0922 243.29 68.8822 241.03 67.7722Z" fill="#5C683F"/>
<path id="Vector_239" d="M241 68.8922C243.75 70.0722 246.33 71.6822 248.59 73.6522C246.7 72.4622 242.89 70.0722 241 68.8922Z" fill="#5C683F"/>
<path id="Vector_240" d="M249.4 84.4022C251.66 84.8722 253.83 85.8122 255.71 87.1422C253.6 86.2022 251.53 85.3022 249.4 84.4022Z" fill="#5C683F"/>
<path id="Vector_241" d="M250.99 86.1422C252.9 86.8022 254.73 87.6722 256.45 88.7422C254.54 88.0822 252.72 87.2122 250.99 86.1422Z" fill="#5C683F"/>
<path id="Vector_242" d="M251.88 87.5822C253.84 88.3722 255.7 89.3622 257.46 90.5522C255.5 89.7622 253.64 88.7722 251.88 87.5822Z" fill="#5C683F"/>
<path id="Vector_243" d="M251.51 88.6222C253.88 89.7222 256.16 91.0222 258.31 92.5122C255.92 91.4122 253.67 90.1122 251.51 88.6222Z" fill="#5C683F"/>
<path id="Vector_244" d="M236.92 87.5222C238.84 87.7722 240.7 88.2422 242.51 88.9222C240.59 88.6722 238.73 88.2022 236.92 87.5222Z" fill="#5C683F"/>
<path id="Vector_245" d="M237.9 88.6322C239.22 88.7422 240.5 89.0722 241.7 89.6222C240.38 89.5122 239.11 89.1722 237.9 88.6322Z" fill="#5C683F"/>
<path id="Vector_246" d="M237.1 89.2922C239.32 89.7322 241.48 90.3822 243.57 91.2522C241.35 90.8122 239.19 90.1522 237.1 89.2922Z" fill="#5C683F"/>
<path id="Vector_247" d="M265.07 125.742C265.26 125.752 265.07 125.442 265.01 125.362C263.74 123.192 262.6 120.922 261.67 118.582C262.99 120.732 264.11 123.002 265.08 125.322C265.17 125.482 265.24 125.802 265.06 125.742H265.07Z" fill="#5C683F"/>
<path id="Vector_248" d="M263.53 124.632C262.34 122.452 261.11 120.362 259.79 118.272C261.47 120.082 262.76 122.282 263.53 124.632Z" fill="#5C683F"/>
<path id="Vector_249" d="M261.94 124.882C260.82 122.522 259.58 120.282 258.18 118.082C259.94 120.002 261.25 122.372 261.94 124.882Z" fill="#5C683F"/>
<path id="Vector_250" d="M259.58 122.032C258.63 120.592 257.74 119.182 256.85 117.702C258.09 118.902 259.03 120.402 259.58 122.032Z" fill="#5C683F"/>
<path id="Vector_251" d="M258.05 123.802C256.52 121.382 255.03 118.992 253.54 116.552C255.4 118.722 256.92 121.172 258.05 123.802Z" fill="#5C683F"/>
<path id="Vector_252" d="M256.27 124.042C254.47 121.772 253.37 119.012 251.5 116.822C253.7 118.702 254.86 121.552 256.27 124.042Z" fill="#5C683F"/>
<path id="Vector_253" d="M253.85 123.652C252.43 121.502 251.05 119.382 249.67 117.212C251.41 119.102 252.83 121.292 253.85 123.652Z" fill="#5C683F"/>
<path id="Vector_254" d="M252.71 124.662C251.05 122.272 249.49 119.852 247.99 117.352C249.86 119.582 251.45 122.042 252.71 124.662Z" fill="#5C683F"/>
<path id="Vector_255" d="M244.86 115.772C246.71 118.332 248.37 121.012 249.84 123.802C247.99 121.242 246.33 118.562 244.86 115.772Z" fill="#5C683F"/>
<path id="Vector_256" d="M244.79 118.302C246.14 119.942 247.3 121.702 248.27 123.582C246.92 121.942 245.76 120.182 244.79 118.302Z" fill="#5C683F"/>
<path id="Vector_257" d="M245.5 121.712C246.2 122.342 246.71 123.102 247.04 123.992C246.34 123.362 245.83 122.592 245.5 121.712Z" fill="#5C683F"/>
<path id="Vector_258" d="M243.92 121.652C245.18 123.212 246.24 124.872 247.11 126.672C245.86 125.122 244.79 123.442 243.92 121.652Z" fill="#5C683F"/>
<path id="Vector_259" d="M242.37 122.822C243.78 124.512 245 126.342 246.03 128.282C244.62 126.592 243.4 124.762 242.37 122.822Z" fill="#5C683F"/>
<path id="Vector_260" d="M240.88 123.252C242.95 125.812 244.83 128.482 246.53 131.302C244.47 128.752 242.57 126.052 240.88 123.252Z" fill="#5C683F"/>
<path id="Vector_261" d="M254.97 115.342C256.42 117.702 257.68 120.162 258.73 122.732C257.27 120.372 256.02 117.902 254.97 115.342Z" fill="#5C683F"/>
<path id="Vector_262" d="M108.38 42.1222C109.21 43.4622 109.83 44.8622 110.25 46.3822C109.42 45.0622 108.79 43.6222 108.38 42.1222Z" fill="#5C683F"/>
<path id="Vector_263" d="M109.45 41.1522C110 42.3522 110.34 43.6122 110.46 44.9222C109.91 43.7222 109.57 42.4622 109.45 41.1522Z" fill="#5C683F"/>
<path id="Vector_264" d="M110.26 40.1722C110.99 41.0022 111.45 42.0722 111.52 43.1822C111.01 42.1922 110.61 41.2322 110.26 40.1722Z" fill="#5C683F"/>
<path id="Vector_265" d="M111.6 39.2122C112.13 39.9722 112.47 40.8122 112.58 41.7322C112.04 40.9822 111.72 40.1322 111.6 39.2122Z" fill="#5C683F"/>
<path id="Vector_266" d="M112.56 37.7522C113.19 38.6322 113.62 39.5922 113.84 40.6522C113.21 39.7822 112.78 38.8022 112.56 37.7522Z" fill="#5C683F"/>
<path id="Vector_267" d="M113.68 37.1522C114.42 37.8822 114.89 38.8622 115 39.8922C114.46 39.0022 114.04 38.1322 113.68 37.1522Z" fill="#5C683F"/>
<path id="Vector_268" d="M114.95 36.3622C115.62 37.2222 116.11 38.2322 116.38 39.2922C115.7 38.4022 115.23 37.4522 114.95 36.3622Z" fill="#5C683F"/>
<path id="Vector_269" d="M134.73 72.0122C135.11 73.4722 135.28 74.9622 135.21 76.4822C134.82 75.0222 134.66 73.5322 134.73 72.0122Z" fill="#5C683F"/>
<path id="Vector_270" d="M136.31 72.7822C136.61 74.3422 136.69 75.9522 136.53 77.5422C136.23 75.9622 136.16 74.3922 136.31 72.7822Z" fill="#5C683F"/>
<path id="Vector_271" d="M137.83 73.8522C138.12 75.1022 138.19 76.3622 138.02 77.6422C137.73 76.3922 137.67 75.1322 137.83 73.8522Z" fill="#5C683F"/>
<path id="Vector_272" d="M139.28 75.1122C139.66 76.4722 139.73 77.9022 139.47 79.2822C139.27 77.8822 139.21 76.5222 139.28 75.1122Z" fill="#5C683F"/>
<path id="Vector_273" d="M141.04 76.2822C141.31 77.4722 141.36 78.6722 141.18 79.8722C140.91 78.6822 140.86 77.4822 141.04 76.2822Z" fill="#5C683F"/>
<path id="Vector_274" d="M142.2 77.4422C142.49 78.8222 142.55 80.2122 142.39 81.6122C142.1 80.2322 142.04 78.8422 142.2 77.4422Z" fill="#5C683F"/>
<path id="Vector_275" d="M143.58 78.5122C143.89 79.4622 143.85 80.5122 143.46 81.4222C143.4 80.4222 143.44 79.5022 143.58 78.5122Z" fill="#5C683F"/>
<path id="Vector_276" d="M144.68 140.432C145.39 142.322 145.89 144.272 146.16 146.272C145.45 144.382 144.96 142.432 144.68 140.432Z" fill="#5C683F"/>
<path id="Vector_277" d="M145.79 138.402C146.27 139.942 146.53 141.552 146.57 143.162C146.09 141.602 145.83 140.032 145.79 138.402Z" fill="#5C683F"/>
<path id="Vector_278" d="M146.98 136.942C147.65 138.902 148.1 140.912 148.33 142.962C147.66 141.002 147.21 138.992 146.98 136.942Z" fill="#5C683F"/>
<path id="Vector_279" d="M148.05 135.192C148.77 137.502 149.28 139.882 149.57 142.282C148.84 139.952 148.34 137.602 148.05 135.192Z" fill="#5C683F"/>
<path id="Vector_280" d="M149.58 133.262C150.19 135.492 150.58 137.752 150.75 140.052C150.14 137.822 149.75 135.562 149.58 133.262Z" fill="#5C683F"/>
<path id="Vector_281" d="M150.53 131.222C151.2 133.482 151.53 135.852 151.51 138.212C151.08 135.892 150.76 133.582 150.53 131.222Z" fill="#5C683F"/>
<path id="Vector_282" d="M151.61 128.992C152.24 131.192 152.5 133.502 152.38 135.782C152.05 133.512 151.79 131.272 151.61 128.992Z" fill="#5C683F"/>
<path id="Vector_283" d="M156.94 261.692C157.44 264.412 157.57 267.192 157.33 269.942C157.12 267.182 156.99 264.452 156.94 261.692Z" fill="#5C683F"/>
<path id="Vector_284" d="M158.59 265.182C158.91 267.272 159.01 269.382 158.88 271.492C158.56 269.402 158.46 267.292 158.59 265.182Z" fill="#5C683F"/>
<path id="Vector_285" d="M160.44 268.192C160.83 270.022 160.99 271.852 160.93 273.722C160.54 271.912 160.38 270.042 160.44 268.192Z" fill="#5C683F"/>
<path id="Vector_286" d="M161.51 269.162C162.05 271.262 162.38 273.402 162.47 275.572C161.93 273.472 161.61 271.332 161.51 269.162Z" fill="#5C683F"/>
<path id="Vector_287" d="M163.26 270.522C163.77 272.522 164.07 274.582 164.14 276.642C163.62 274.632 163.34 272.602 163.26 270.522Z" fill="#5C683F"/>
<path id="Vector_288" d="M164.53 270.522C165.01 272.432 165.27 274.372 165.31 276.342C164.83 274.432 164.57 272.492 164.53 270.522Z" fill="#5C683F"/>
<path id="Vector_289" d="M165.67 271.012C166.16 273.152 166.43 275.322 166.47 277.512C165.98 275.372 165.71 273.202 165.67 271.012Z" fill="#5C683F"/>
<path id="Vector_290" d="M167.62 261.782C167.76 260.052 168.11 258.372 168.69 256.732C168.56 258.462 168.2 260.142 167.62 261.782Z" fill="#5C683F"/>
<path id="Vector_291" d="M168.31 265.182C168.41 263.432 168.74 261.712 169.28 260.042C169.18 261.802 168.85 263.512 168.31 265.182Z" fill="#5C683F"/>
<path id="Vector_292" d="M168.79 267.992C169.02 266.062 169.48 264.182 170.15 262.362C169.92 264.292 169.46 266.172 168.79 267.992Z" fill="#5C683F"/>
<path id="Vector_293" d="M169.08 271.492C169.25 269.722 169.78 267.992 170.64 266.442C170.2 268.162 169.69 269.822 169.08 271.492Z" fill="#5C683F"/>
<path id="Vector_294" d="M169.46 275.022C169.84 273.392 170.28 271.822 170.81 270.232C170.73 271.902 170.26 273.552 169.46 275.022Z" fill="#5C683F"/>
<path id="Vector_295" d="M169.9 278.102C170.18 276.672 170.68 275.272 171.38 274.002C171.09 275.452 170.61 276.802 169.9 278.102Z" fill="#5C683F"/>
<path id="Vector_296" d="M170.32 281.702C170.52 280.142 170.94 278.642 171.58 277.212C171.38 278.772 170.96 280.272 170.32 281.702Z" fill="#5C683F"/>
<path id="Vector_297" d="M170.8 284.882C170.74 283.272 171.24 281.622 172.2 280.332C171.64 281.852 171.19 283.312 170.8 284.882Z" fill="#5C683F"/>
<path id="Vector_298" d="M171.31 288.772C171.21 287.172 171.55 285.542 172.29 284.112C171.98 285.692 171.66 287.202 171.31 288.772Z" fill="#5C683F"/>
<path id="Vector_299" d="M171.81 292.852C171.75 291.272 172.12 289.672 172.88 288.292C172.54 289.842 172.19 291.312 171.81 292.852Z" fill="#5C683F"/>
<path id="Vector_300" d="M179.08 174.712C178.89 172.532 178.93 170.382 179.19 168.212C179.38 170.372 179.34 172.562 179.08 174.712Z" fill="#5C683F"/>
<path id="Vector_301" d="M180.13 173.062C180.05 170.842 179.98 168.672 179.9 166.452C180.42 168.602 180.5 170.872 180.13 173.062Z" fill="#5C683F"/>
<path id="Vector_302" d="M181.2 171.892C181.15 170.292 181.19 168.732 181.33 167.132C181.64 168.702 181.59 170.342 181.2 171.892Z" fill="#5C683F"/>
<path id="Vector_303" d="M182.18 171.602C182.06 169.582 182.16 167.582 182.49 165.582C182.61 167.602 182.51 169.602 182.18 171.602Z" fill="#5C683F"/>
<path id="Vector_304" d="M183.46 171.012C183.43 169.062 183.5 167.142 183.69 165.192C183.95 167.122 183.87 169.102 183.46 171.012Z" fill="#5C683F"/>
<path id="Vector_305" d="M190.33 34.5422C190.4 36.7222 190.25 38.8922 189.87 41.0522C189.8 38.8722 189.95 36.7022 190.33 34.5422Z" fill="#5C683F"/>
<path id="Vector_306" d="M191.7 34.2522C191.69 36.9822 191.45 39.7022 190.99 42.3922C191 39.6622 191.24 36.9422 191.7 34.2522Z" fill="#5C683F"/>
<path id="Vector_307" d="M193.07 37.0622C193.1 39.3422 192.91 41.6122 192.49 43.8622C192.46 41.5822 192.65 39.3122 193.07 37.0622Z" fill="#5C683F"/>
<path id="Vector_308" d="M193.94 40.6522C193.94 42.3022 193.73 43.9222 193.28 45.5122C193.28 43.8622 193.5 42.2422 193.94 40.6522Z" fill="#5C683F"/>
</g>
</g>
</svg>
