<svg width="105" height="140" viewBox="0 0 105 140" fill="none" xmlns="http://www.w3.org/2000/svg">
<g id="leaf">
<g id="Group">
<path id="Vector" d="M77.85 13.0127C81.54 15.6027 86.69 13.8527 91.06 14.9727C94.62 15.8727 97.43 18.6427 99.41 21.7427C104.31 29.4327 104.81 39.2727 102.78 48.1627C100.75 57.0527 96.42 65.2127 92.14 73.2627C92.7 71.3327 91.43 70.0927 90.28 68.4427C89.13 66.7927 87.58 65.4727 86.17 64.0327C79.89 57.6327 76.52 48.4827 77.13 39.5327C75.78 41.3127 74.57 43.1327 74.24 45.3427C72.84 54.8427 77.61 64.3427 84.23 71.3027C85.98 73.1527 88.03 75.2627 87.75 77.7927C87.66 78.6727 87.27 79.5027 86.86 80.2927C84.92 84.0027 82.16 87.2127 79.34 90.3027C74.99 95.0827 70.43 99.6727 65.67 104.053C63.84 105.733 61.9 107.433 59.52 108.123C61.02 103.843 60.93 99.7827 59.8 95.3927C59.11 92.7327 57.96 90.2227 57.24 87.5727C55.5 81.1427 56.43 74.3427 57.37 67.7527C55.71 68.4727 54.56 70.0927 54.01 71.8227C53.46 73.5527 53.45 75.4027 53.53 77.2127C53.8 83.1427 55.03 88.9927 55.61 94.9027C56.19 100.813 56.06 106.973 53.74 112.443C48.63 115.803 43.62 118.753 38.06 121.313C39.26 118.633 37.62 116.013 36.9 113.173C35.18 106.413 36.44 98.9527 40.27 93.1227C40.67 92.5227 41.1 91.9027 41.18 91.1827C41.26 90.4627 40.81 89.6327 40.09 89.5827C39.53 89.5427 39.06 89.9527 38.67 90.3527C34.16 95.0027 31.87 101.313 29.7 107.423C29.02 109.333 28.34 111.253 28.06 113.253C27.45 117.603 28.78 121.963 30.08 126.163C22.12 129.193 14.19 132.433 7.54999 137.773C6.52999 138.593 5.20001 139.513 4.04001 138.913C3.11001 138.433 2.86998 137.243 2.72998 136.213C1.98998 130.723 1.25 125.233 0.5 119.743C3.36 116.543 5.49998 113.633 6.19998 109.403C6.49998 107.623 6.36999 105.793 6.70999 104.023C7.57999 99.5327 11.24 96.1727 14.78 93.2727C15.75 92.4827 16.8 91.5527 16.9 90.3027C14.72 89.6727 12.52 91.1127 10.77 92.5627C7.23999 95.4727 3.99 98.7127 1.06 102.233C1.06 91.4627 2.04 80.6527 3.91 70.0427C4.35 67.5627 4.9 64.9627 6.62 63.1127C7.79 61.8527 9.38 61.0927 10.94 60.3727C12.37 59.7127 13.83 59.0627 15.38 58.8027C17.47 58.4527 19.62 58.8427 21.73 58.6327C23.46 58.4527 25.12 57.8827 26.76 57.2827C31.82 55.4527 36.81 53.4227 41.72 51.2127C38.81 48.5927 34.37 49.0027 30.5 49.5827C25.92 50.2627 21.34 50.9427 16.76 51.6127C14.68 51.9227 12.59 52.2327 10.59 52.8827C16.25 42.3427 21.64 32.1927 29.14 22.8827C29.83 22.0227 30.65 21.1127 31.74 20.9527C32.19 20.8927 32.66 20.9627 33.11 21.0327C40.37 22.1727 47.79 22.3227 55.1 21.4827C56.33 21.3427 57.83 20.9427 58.1 19.7227C58.43 18.2427 56.64 17.2527 55.19 16.8427C49.59 15.2627 43.81 14.3627 38 14.1527C42.44 9.2427 47.93 5.2727 54.04 2.7327C56.91 1.5427 59.93 0.642698 63.03 0.512698C65.46 0.422698 67.91 0.8127 70.19 1.6327C71.56 2.1227 72.9 2.79269 73.86 3.89269C76.03 6.37269 75.14 11.1227 77.84 13.0227L77.85 13.0127Z" stroke="#5C683F" stroke-linecap="round" stroke-linejoin="round"/>
<path id="Vector_2" d="M4.18994 138.933C23.2099 101.783 44.6599 65.8927 68.3699 31.5527C72.3099 25.8527 76.3399 20.1327 79.0399 13.7527" stroke="#5C683F" stroke-linecap="round" stroke-linejoin="round"/>
<path id="Vector_3" d="M71.35 26.9627C64.26 29.2327 56.42 28.6527 48.99 29.1027C39.92 29.6527 35.99 30.8627 27.13 32.8327" stroke="#5C683F" stroke-linecap="round" stroke-linejoin="round"/>
<path id="Vector_4" d="M100.82 54.0927C96.93 50.7927 96.58 45.4127 95.17 40.5127C92.44 31.0527 85.98 22.7227 77.49 17.7327" stroke="#5C683F" stroke-linecap="round" stroke-linejoin="round"/>
<path id="Vector_5" d="M77.68 89.5527C75.88 83.8727 77.66 79.8927 76.58 74.0327C75.73 69.4327 73.51 65.2327 71.65 60.9427C70.09 57.3427 68.77 53.6327 67.71 49.8527C66.36 45.0427 65.29 38.8427 66.65 34.0427" stroke="#5C683F" stroke-linecap="round" stroke-linejoin="round"/>
<path id="Vector_6" d="M8.87 75.1127C16.51 70.0127 19 69.2827 27.53 65.8627C31.62 64.2127 35.82 62.7627 39.64 60.5527C41.99 59.1927 44.17 57.5627 46.34 55.9427C49.6 53.5027 54.23 50.1727 57.49 47.7327" stroke="#5C683F" stroke-linecap="round" stroke-linejoin="round"/>
<path id="Vector_7" d="M42.2 71.5627C37.12 77.7327 28.4 80.3027 20.87 82.9627C14.22 85.3127 7.87998 88.5727 2.09998 92.6127" stroke="#5C683F" stroke-linecap="round" stroke-linejoin="round"/>
<path id="Vector_8" d="M48.8 95.4627C48.56 90.7427 47.35 86.0527 46.88 81.3127C46.28 75.1827 47.26 66.3227 49.16 60.4727" stroke="#5C683F" stroke-linecap="round" stroke-linejoin="round"/>
<path id="Vector_9" d="M18.2 112.593C13.57 115.693 9.39001 119.953 5.26001 123.703" stroke="#5C683F" stroke-linecap="round" stroke-linejoin="round"/>
<path id="Vector_10" d="M20.89 103.163C22.38 101.813 23.89 100.103 23.74 98.1027C23.71 97.7427 23.62 97.3727 23.38 97.1127C23.04 96.7527 22.46 96.6827 21.99 96.8327C21.51 96.9727 21.1 97.2927 20.71 97.6027C19.12 98.8627 17.55 100.173 16.26 101.743C15.34 102.873 12.75 106.103 15.07 107.123C16.9 107.923 19.67 104.273 20.89 103.173V103.163Z" stroke="#5C683F" stroke-linecap="round" stroke-linejoin="round"/>
<path id="Vector_11" d="M33.54 70.5427C34.46 70.2427 35.42 69.9127 36.06 69.1927C36.7 68.4727 36.84 67.2227 36.1 66.6027C35.48 66.0927 34.57 66.2127 33.8 66.4227C31.95 66.9227 30.18 67.7327 28.59 68.8027C27.51 69.5327 25.73 71.6627 27.86 72.2827C29.13 72.6527 32.28 70.9527 33.54 70.5427Z" stroke="#5C683F" stroke-linecap="round" stroke-linejoin="round"/>
<path id="Vector_12" d="M68.31 73.8427C68.6 72.2327 68.76 70.4827 67.98 69.0427C67.75 68.6227 67.37 68.1927 66.88 68.2227C66.53 68.2427 66.24 68.4927 66 68.7427C63.52 71.2527 61.26 76.6827 62.99 80.1827C63.68 81.5727 65.23 82.2527 66.43 81.0327C67.68 79.7627 68.01 75.5527 68.31 73.8427Z" stroke="#5C683F" stroke-linecap="round" stroke-linejoin="round"/>
<path id="Vector_13" d="M64.47 60.5627C64.53 59.2427 64.36 57.7427 63.31 56.9427C63.08 56.7727 62.77 56.6427 62.53 56.8027C62.43 56.8627 62.37 56.9627 62.3 57.0627C60.54 59.8327 59.73 63.2027 60.04 66.4827C60.1 67.0727 60.2 67.6727 60.51 68.1827C62.69 71.6727 64.42 61.8027 64.47 60.5727V60.5627Z" stroke="#5C683F" stroke-linecap="round" stroke-linejoin="round"/>
<path id="Vector_14" d="M42.1 41.9127C44.03 41.4927 45.92 40.6827 47.33 39.3027C47.53 39.1027 47.74 38.8827 47.81 38.6127C48.02 37.8827 47.29 37.2227 46.58 36.9427C45.71 36.5927 44.76 36.4727 43.82 36.4227C41.12 36.2827 34.03 36.6127 32.89 39.7727C31.38 43.9427 40.23 42.3227 42.09 41.9127H42.1Z" stroke="#5C683F" stroke-linecap="round" stroke-linejoin="round"/>
</g>
<g id="Group_2">
<path id="Vector_15" d="M64.95 1.48269C62.99 1.50269 61.09 1.63269 59.15 1.88269C61.01 1.30269 63.03 1.16269 64.95 1.48269Z" fill="#5C683F"/>
<path id="Vector_16" d="M62.54 2.37269C61.56 2.59269 60.61 2.73269 59.61 2.81269C60.53 2.40269 61.55 2.25269 62.54 2.37269Z" fill="#5C683F"/>
<path id="Vector_17" d="M61.99 3.16269C61.02 3.51269 60.04 3.70269 59.01 3.72269C59.96 3.37269 60.98 3.18269 61.99 3.16269Z" fill="#5C683F"/>
<path id="Vector_18" d="M61.38 4.08269C60.35 4.41269 59.29 4.57269 58.21 4.57269C59.24 4.24269 60.3 4.08269 61.38 4.08269Z" fill="#5C683F"/>
<path id="Vector_19" d="M60.59 4.90268C59.51 5.23268 58.4 5.39268 57.27 5.39268C58.35 5.06268 59.46 4.90268 60.59 4.90268Z" fill="#5C683F"/>
<path id="Vector_20" d="M60.28 5.99269C58.97 6.36269 57.63 6.56269 56.27 6.59269C57.58 6.22269 58.92 6.02269 60.28 5.99269Z" fill="#5C683F"/>
<path id="Vector_21" d="M59.58 7.08269C58.23 7.40269 56.9 7.64269 55.52 7.81269C56.81 7.32269 58.2 7.07269 59.58 7.08269Z" fill="#5C683F"/>
<path id="Vector_22" d="M58.49 8.28268C57.23 8.63268 55.94 8.82269 54.62 8.84269C55.88 8.49269 57.17 8.30268 58.49 8.28268Z" fill="#5C683F"/>
<path id="Vector_23" d="M57.7901 9.4227C56.5501 9.6327 55.3201 9.7827 54.0601 9.8527C55.2501 9.4527 56.5301 9.3027 57.7901 9.4227Z" fill="#5C683F"/>
<path id="Vector_24" d="M56.94 10.5527C55.65 10.8327 54.35 10.9527 53.02 10.8927C54.31 10.6127 55.62 10.4927 56.94 10.5527Z" fill="#5C683F"/>
<path id="Vector_25" d="M56.2401 11.6227C54.9501 11.8627 53.6501 11.9427 52.3401 11.8427C53.6301 11.6027 54.9301 11.5327 56.2401 11.6227Z" fill="#5C683F"/>
<path id="Vector_26" d="M55.19 12.6827C53.93 12.8527 52.64 12.8527 51.38 12.6827C52.66 12.5127 53.91 12.5127 55.19 12.6827Z" fill="#5C683F"/>
<path id="Vector_27" d="M54.5501 13.4827C53.2601 13.8127 51.8801 13.8227 50.5901 13.5027C51.9201 13.4827 53.2101 13.4827 54.5501 13.4827Z" fill="#5C683F"/>
<path id="Vector_28" d="M54.1401 14.7127C52.8601 14.7127 51.5701 14.5627 50.3401 14.2327C51.6401 14.2327 52.8901 14.3827 54.1401 14.7127Z" fill="#5C683F"/>
<path id="Vector_29" d="M32.02 32.7727C30.67 32.9527 29.37 33.1027 28.01 33.2227C29.28 32.7627 30.67 32.6127 32.02 32.7727Z" fill="#5C683F"/>
<path id="Vector_30" d="M30.1 33.9027C29.11 34.1027 28.13 34.2127 27.12 34.2327C28.07 33.8727 29.1 33.7627 30.1 33.9027Z" fill="#5C683F"/>
<path id="Vector_31" d="M29.8 34.7827C28.51 35.1427 27.21 35.3427 25.87 35.3727C27.15 35.0127 28.47 34.8127 29.8 34.7827Z" fill="#5C683F"/>
<path id="Vector_32" d="M28.4101 35.7627C27.5001 36.0227 26.61 36.1927 25.67 36.3127C26.51 35.8727 27.4701 35.6827 28.4101 35.7627Z" fill="#5C683F"/>
<path id="Vector_33" d="M28.54 36.9427C27.28 37.2727 26.04 37.5527 24.76 37.7827C25.94 37.2327 27.24 36.9427 28.54 36.9427Z" fill="#5C683F"/>
<path id="Vector_34" d="M27.7901 38.4027C26.6601 38.6527 25.0701 39.0127 23.9401 39.2827C25.1101 38.6527 26.4601 38.3527 27.7901 38.4027Z" fill="#5C683F"/>
<path id="Vector_35" d="M27.12 39.8527C25.84 40.1427 24.64 40.4827 23.4 40.9027C24.48 40.1727 25.82 39.8027 27.12 39.8527Z" fill="#5C683F"/>
<path id="Vector_36" d="M26.57 41.2027C25.21 41.5727 23.88 41.8827 22.5 42.1627C23.77 41.5727 25.16 41.2427 26.57 41.2027Z" fill="#5C683F"/>
<path id="Vector_37" d="M25.71 42.5727L21.74 43.8527C22.93 43.1127 24.31 42.6727 25.71 42.5727Z" fill="#5C683F"/>
<path id="Vector_38" d="M25.6 43.7827C24.38 44.1627 23.2 44.5227 21.97 44.8827C23.05 44.2127 24.32 43.8227 25.6 43.7827Z" fill="#5C683F"/>
<path id="Vector_39" d="M25.14 44.8927C23.74 45.4327 22.35 45.9227 20.91 46.3727C22.21 45.6127 23.65 45.1127 25.14 44.8927Z" fill="#5C683F"/>
<path id="Vector_40" d="M22.13 46.8727C21.69 47.1827 21.2 47.3427 20.66 47.3327C21.1 47.0227 21.59 46.8627 22.13 46.8727Z" fill="#5C683F"/>
<path id="Vector_41" d="M24.08 47.4227C22.58 47.8527 21.13 48.2927 19.65 48.7627C20.99 47.9827 22.53 47.5227 24.08 47.4227Z" fill="#5C683F"/>
<path id="Vector_42" d="M23.27 48.7127C22.06 49.2427 20.8 49.6127 19.49 49.8227C20.7 49.2927 21.96 48.9227 23.27 48.7127Z" fill="#5C683F"/>
<path id="Vector_43" d="M65.76 34.6627C64.3 34.8127 62.83 34.7927 61.37 34.6027C62.83 34.4527 64.3 34.4727 65.76 34.6627Z" fill="#5C683F"/>
<path id="Vector_44" d="M64.81 35.7727C63.62 35.9427 62.43 35.9527 61.25 35.7827C62.44 35.6127 63.63 35.6027 64.81 35.7727Z" fill="#5C683F"/>
<path id="Vector_45" d="M64.1601 37.0127C62.2201 37.2127 60.2901 37.2427 58.3501 37.0927C60.2801 36.8927 62.2201 36.8727 64.1601 37.0127Z" fill="#5C683F"/>
<path id="Vector_46" d="M62.8601 38.5627C61.1001 38.7927 59.3601 38.9527 57.5801 39.0427C59.3001 38.6127 61.0901 38.4527 62.8601 38.5627Z" fill="#5C683F"/>
<path id="Vector_47" d="M61.33 39.8727C60.03 39.9927 58.77 40.1027 57.47 40.1927C58.7 39.7727 60.05 39.6627 61.33 39.8727Z" fill="#5C683F"/>
<path id="Vector_48" d="M61.26 41.2027C59.69 41.4927 58.11 41.6227 56.52 41.5727C58.08 41.2827 59.67 41.1527 61.26 41.2027Z" fill="#5C683F"/>
<path id="Vector_49" d="M23.3201 68.9027C21.6201 69.4627 19.9801 70.0627 18.3101 70.7227C19.8101 69.7627 21.5501 69.1327 23.3201 68.9027Z" fill="#5C683F"/>
<path id="Vector_50" d="M22.3 70.2927C20.83 71.0627 19.31 71.6727 17.71 72.1327C19.17 71.3627 20.72 70.7427 22.3 70.2927Z" fill="#5C683F"/>
<path id="Vector_51" d="M21.6101 71.9227C20.0901 72.6127 18.6101 73.3027 17.1001 74.0327C18.4201 73.0227 19.9801 72.2927 21.6101 71.9227Z" fill="#5C683F"/>
<path id="Vector_52" d="M21.5601 73.8427C20.1501 74.4527 18.7601 74.9927 17.3101 75.4927C18.6101 74.6827 20.0601 74.1227 21.5601 73.8427Z" fill="#5C683F"/>
<path id="Vector_53" d="M21.36 75.2627C19.67 75.8127 18.07 76.4727 16.48 77.2627C17.89 76.1827 19.6 75.4827 21.36 75.2627Z" fill="#5C683F"/>
<path id="Vector_54" d="M20.63 76.5227C19.57 77.2127 18.44 77.7527 17.24 78.1327C18.3 77.4427 19.43 76.9127 20.63 76.5227Z" fill="#5C683F"/>
<path id="Vector_55" d="M20.85 78.2527C19.71 78.7727 18.58 79.2127 17.39 79.6027C18.43 78.9127 19.62 78.4427 20.85 78.2527Z" fill="#5C683F"/>
<path id="Vector_56" d="M20.86 79.3127C19.66 79.8827 18.46 80.3827 17.22 80.8527C18.31 80.0927 19.56 79.5627 20.86 79.3127Z" fill="#5C683F"/>
<path id="Vector_57" d="M21.2901 80.1727C19.7601 80.8827 18.3001 81.6527 16.8501 82.5127C18.1001 81.3827 19.6501 80.5627 21.2901 80.1727Z" fill="#5C683F"/>
<path id="Vector_58" d="M14.17 108.153C13.33 108.623 12.43 108.943 11.48 109.103C12.32 108.623 13.22 108.313 14.17 108.153Z" fill="#5C683F"/>
<path id="Vector_59" d="M13.13 109.213C12.41 109.703 11.63 110.033 10.78 110.213C11.5 109.723 12.28 109.393 13.13 109.213Z" fill="#5C683F"/>
<path id="Vector_60" d="M12.9701 110.243C11.7401 111.033 10.43 111.663 9.05005 112.153C10.28 111.363 11.5901 110.733 12.9701 110.243Z" fill="#5C683F"/>
<path id="Vector_61" d="M12.76 111.633C11.07 112.623 9.40004 113.573 7.67004 114.503C9.20004 113.293 10.93 112.323 12.76 111.633Z" fill="#5C683F"/>
<path id="Vector_62" d="M12.04 113.213C10.42 114.163 8.86003 115.123 7.28003 116.133C8.64003 114.853 10.28 113.853 12.04 113.213Z" fill="#5C683F"/>
<path id="Vector_63" d="M11.15 114.973C9.83996 116.063 8.44995 117.013 6.94995 117.823C8.24995 116.733 9.65996 115.773 11.15 114.973Z" fill="#5C683F"/>
<path id="Vector_64" d="M10.59 116.533C9.53003 117.493 8.39001 118.313 7.14001 119.003C8.19001 118.043 9.35003 117.213 10.59 116.533Z" fill="#5C683F"/>
<path id="Vector_65" d="M9.77002 118.063C8.78002 119.023 7.70001 119.853 6.51001 120.543C7.49001 119.583 8.59002 118.753 9.77002 118.063Z" fill="#5C683F"/>
<path id="Vector_66" d="M6.79007 128.833C5.59007 129.683 4.28004 130.413 2.92004 130.973C4.13004 130.113 5.41007 129.403 6.79007 128.833Z" fill="#5C683F"/>
<path id="Vector_67" d="M6.10007 130.793C5.07007 131.463 4.03004 132.043 2.92004 132.553C3.85004 131.753 4.93007 131.153 6.10007 130.793Z" fill="#5C683F"/>
<path id="Vector_68" d="M5.47003 132.173C4.58003 132.953 3.60003 133.603 2.53003 134.103C3.42003 133.323 4.40003 132.673 5.47003 132.173Z" fill="#5C683F"/>
<path id="Vector_69" d="M4.95004 133.863C4.36004 134.403 3.75005 134.843 3.05005 135.233C3.52005 134.583 4.19004 134.103 4.95004 133.863Z" fill="#5C683F"/>
<path id="Vector_70" d="M5.06003 135.173C4.50003 135.673 3.93002 136.073 3.27002 136.443C3.70002 135.833 4.34003 135.373 5.06003 135.173Z" fill="#5C683F"/>
<path id="Vector_71" d="M100.94 27.3227C101.74 28.7127 102.25 30.2727 102.43 31.8627C101.92 30.3427 101.43 28.8527 100.94 27.3227Z" fill="#5C683F"/>
<path id="Vector_72" d="M100.49 28.9927C101.26 30.2527 101.77 31.6727 101.98 33.1427C101.44 31.7627 100.95 30.4027 100.49 28.9927Z" fill="#5C683F"/>
<path id="Vector_73" d="M101.76 36.9327C101.28 35.4827 100.59 33.4627 100.13 32.0227C100.98 33.5327 101.53 35.2127 101.76 36.9327Z" fill="#5C683F"/>
<path id="Vector_74" d="M99.72 33.7627C100.61 35.0427 101.19 36.5527 101.37 38.1027C100.85 36.6327 100.31 35.2127 99.72 33.7627Z" fill="#5C683F"/>
<path id="Vector_75" d="M99.04 34.5527C99.89 36.0627 100.44 37.7427 100.65 39.4627L99.04 34.5527Z" fill="#5C683F"/>
<path id="Vector_76" d="M98.91 36.2827C99.76 37.7027 100.31 39.3227 100.49 40.9627C100.04 39.5727 99.38 37.6427 98.91 36.2827Z" fill="#5C683F"/>
<path id="Vector_77" d="M98.3101 37.3727C99.1201 38.7327 99.63 40.2727 99.8 41.8327L98.3101 37.3727Z" fill="#5C683F"/>
<path id="Vector_78" d="M97.86 38.4727C98.6 39.7727 99.06 41.2527 99.18 42.7527C98.73 41.3227 98.3 39.9127 97.86 38.4727Z" fill="#5C683F"/>
<path id="Vector_79" d="M97.46 39.9727C98.1 41.1527 98.5 42.4727 98.63 43.8127C98.17 42.5427 97.78 41.2827 97.46 39.9727Z" fill="#5C683F"/>
<path id="Vector_80" d="M96.78 41.1627C97.38 42.6527 97.82 44.1827 98.09 45.7627C97.49 44.2727 97.06 42.7427 96.78 41.1627Z" fill="#5C683F"/>
<path id="Vector_81" d="M85.0701 25.0127C86.8801 26.4227 88.3901 28.2527 89.4301 30.2927C88.0901 28.4227 86.6501 26.6727 85.0701 25.0127Z" fill="#5C683F"/>
<path id="Vector_82" d="M85.36 26.5627C86.86 28.2327 88.24 30.0227 89.47 31.9027C87.96 30.2227 86.6 28.4527 85.36 26.5627Z" fill="#5C683F"/>
<path id="Vector_83" d="M85.41 28.3927C86.95 29.8527 88.21 31.6227 89.09 33.5627C87.91 31.7927 86.7 30.0827 85.41 28.3927Z" fill="#5C683F"/>
<path id="Vector_84" d="M85.36 29.8827C86.68 31.0627 87.73 32.5527 88.4 34.1827C87.42 32.7027 86.43 31.2927 85.36 29.8827Z" fill="#5C683F"/>
<path id="Vector_85" d="M84.9401 31.1527C86.3701 32.4627 87.48 34.1427 88.11 35.9627C87.16 34.2727 86.1201 32.6927 84.9401 31.1527Z" fill="#5C683F"/>
<path id="Vector_86" d="M84.8 33.1127C86.01 34.2227 86.93 35.6727 87.42 37.2427C86.61 35.8027 85.76 34.4527 84.8 33.1127Z" fill="#5C683F"/>
<path id="Vector_87" d="M84.0701 34.4927C85.1901 35.7327 86.0701 37.2027 86.6301 38.7827C85.7601 37.3527 84.9201 35.9427 84.0701 34.4927Z" fill="#5C683F"/>
<path id="Vector_88" d="M83.13 35.5327C84.23 36.7327 85.02 38.2427 85.37 39.8327C84.7 38.3427 83.97 36.9427 83.13 35.5327Z" fill="#5C683F"/>
<path id="Vector_89" d="M82.6801 37.3627C83.7001 38.6827 84.4301 40.2427 84.8101 41.8627C84.2001 40.5227 83.3201 38.6727 82.6801 37.3627Z" fill="#5C683F"/>
<path id="Vector_90" d="M81.63 38.4227C82.52 39.6127 83.17 40.9927 83.49 42.4427C82.84 41.1027 82.23 39.7927 81.63 38.4227Z" fill="#5C683F"/>
<path id="Vector_91" d="M81.3 40.2927C82.2 41.3827 82.7101 42.8227 82.6901 44.2327C82.3601 42.8527 81.91 41.5727 81.3 40.2927Z" fill="#5C683F"/>
<path id="Vector_92" d="M80.52 41.0327C81.31 42.3727 81.81 43.8927 81.96 45.4327C81.53 44.1527 80.95 42.3227 80.52 41.0327Z" fill="#5C683F"/>
<path id="Vector_93" d="M79.97 43.3027C80.89 44.3727 81.41 45.8227 81.38 47.2327C81.06 45.8527 80.6 44.5727 79.97 43.3027Z" fill="#5C683F"/>
<path id="Vector_94" d="M79.0801 43.8227C79.9501 45.1727 80.4601 46.7827 80.5101 48.3927C80.1201 46.8327 79.6501 45.3327 79.0801 43.8227Z" fill="#5C683F"/>
<path id="Vector_95" d="M78.5 45.8727C79.56 48.1427 80.3 50.5627 80.69 53.0227L78.5 45.8727Z" fill="#5C683F"/>
<path id="Vector_96" d="M74.3401 72.0127C75.4301 75.2727 75.9701 78.7427 75.9301 82.1827C75.6301 78.7527 75.1001 75.3727 74.3401 72.0127Z" fill="#5C683F"/>
<path id="Vector_97" d="M74.1001 75.9827C74.6401 78.7127 75.0101 81.4927 75.2201 84.2627C74.6801 81.5227 74.3101 78.7627 74.1001 75.9827Z" fill="#5C683F"/>
<path id="Vector_98" d="M73.0901 78.9527C73.7401 80.8127 73.9901 82.8127 73.8301 84.7727C73.6501 82.8127 73.4101 80.8927 73.0901 78.9527Z" fill="#5C683F"/>
<path id="Vector_99" d="M72.48 81.6427C73.06 83.5527 73.22 85.6127 72.94 87.5927C72.89 85.5927 72.74 83.6327 72.48 81.6427Z" fill="#5C683F"/>
<path id="Vector_100" d="M71.24 83.7527C71.51 85.2427 71.6001 86.7427 71.5301 88.2527C71.2601 86.7627 71.17 85.2627 71.24 83.7527Z" fill="#5C683F"/>
<path id="Vector_101" d="M70.1 85.5527C70.39 87.0127 70.51 88.5027 70.46 89.9927C70.17 88.5327 70.05 87.0427 70.1 85.5527Z" fill="#5C683F"/>
<path id="Vector_102" d="M68.15 87.2227C68.54 88.6627 68.76 90.1327 68.81 91.6227C68.42 90.1827 68.2 88.7127 68.15 87.2227Z" fill="#5C683F"/>
<path id="Vector_103" d="M66.87 88.2727C67.28 89.6727 67.39 91.1727 67.2 92.6227C67.06 91.1627 66.95 89.7427 66.87 88.2727Z" fill="#5C683F"/>
<path id="Vector_104" d="M65.53 89.4227C65.89 90.7527 66.09 92.1527 66.11 93.5327C65.75 92.1827 65.56 90.8327 65.53 89.4227Z" fill="#5C683F"/>
<path id="Vector_105" d="M64.2801 89.8927C64.5401 91.4327 64.6401 93.0127 64.5701 94.5827C64.3001 93.0227 64.2101 91.4727 64.2801 89.8927Z" fill="#5C683F"/>
<path id="Vector_106" d="M63.4 90.9027C63.87 92.2927 63.99 93.8027 63.75 95.2527C63.65 93.7927 63.53 92.3727 63.4 90.9027Z" fill="#5C683F"/>
<path id="Vector_107" d="M61.9401 91.1227C62.4201 92.8327 62.58 94.6327 62.39 96.4027L61.9401 91.1227Z" fill="#5C683F"/>
<path id="Vector_108" d="M60.0801 91.2227C60.8201 92.8127 61.1201 94.6327 60.9401 96.3727C60.7801 94.6227 60.5001 92.9327 60.0801 91.2227Z" fill="#5C683F"/>
<path id="Vector_109" d="M54.1001 91.2027C54.6001 93.0927 54.8001 95.0727 54.6701 97.0327C54.4601 95.0827 54.2701 93.1627 54.1001 91.2027Z" fill="#5C683F"/>
<path id="Vector_110" d="M53.53 91.9827C53.88 93.6627 54.07 95.3927 54.09 97.1127C53.73 95.4127 53.55 93.7127 53.53 91.9827Z" fill="#5C683F"/>
<path id="Vector_111" d="M53.12 92.7827C53.49 94.1427 53.56 95.5827 53.31 96.9727C53.22 95.5627 53.16 94.1927 53.12 92.7827Z" fill="#5C683F"/>
<path id="Vector_112" d="M52.36 93.8427C52.73 95.3127 52.83 96.8527 52.65 98.3527C52.49 96.8427 52.39 95.3527 52.36 93.8427Z" fill="#5C683F"/>
<path id="Vector_113" d="M51.57 93.8927C51.83 95.5527 51.92 97.2327 51.84 98.9127C51.58 97.2427 51.49 95.5827 51.57 93.8927Z" fill="#5C683F"/>
<path id="Vector_114" d="M50.7 95.3027C50.92 97.1227 50.98 98.9427 50.86 100.763C50.64 98.9427 50.58 97.1227 50.7 95.3027Z" fill="#5C683F"/>
<path id="Vector_115" d="M49.49 97.2827C49.67 98.8727 49.68 100.483 49.52 102.073C49.34 100.473 49.33 98.8827 49.49 97.2827Z" fill="#5C683F"/>
<path id="Vector_116" d="M48.44 97.8827C48.7 99.4227 48.65 101.013 48.28 102.533C48.31 100.973 48.36 99.4427 48.44 97.8827Z" fill="#5C683F"/>
<path id="Vector_117" d="M47.17 98.5727C47.41 100.333 47.28 102.153 46.78 103.853C46.95 102.083 47.08 100.353 47.17 98.5727Z" fill="#5C683F"/>
<path id="Vector_118" d="M45.9799 100.123C46.2699 101.893 45.95 103.713 45.46 105.433C45.61 103.653 45.9299 101.923 45.9799 100.123Z" fill="#5C683F"/>
<path id="Vector_119" d="M44.61 101.033C44.79 102.993 44.6101 104.983 44.0601 106.873C44.2701 104.913 44.45 102.993 44.61 101.033Z" fill="#5C683F"/>
<path id="Vector_120" d="M43.4701 101.973C43.5201 104.203 43.2101 106.453 42.5601 108.583C42.8001 106.933 43.2601 103.623 43.4701 101.973Z" fill="#5C683F"/>
<path id="Vector_121" d="M42.02 103.613C42.19 105.573 42 107.563 41.47 109.453C41.62 108.003 41.9 105.073 42.02 103.613Z" fill="#5C683F"/>
<path id="Vector_122" d="M40.9 105.723C41.01 107.553 40.83 109.403 40.37 111.173C40.5 109.343 40.67 107.543 40.9 105.723Z" fill="#5C683F"/>
<path id="Vector_123" d="M39.6001 106.253C39.7501 107.863 39.7301 109.503 39.5501 111.113C39.4001 109.483 39.4201 107.883 39.6001 106.253Z" fill="#5C683F"/>
<path id="Vector_124" d="M38.21 107.233C38.52 109.173 38.55 111.163 38.29 113.113C38.2 111.143 38.18 109.203 38.21 107.233Z" fill="#5C683F"/>
<path id="Vector_125" d="M26.0301 125.973C25.5001 123.983 25.1401 121.953 24.9401 119.903C25.4701 121.893 25.8301 123.923 26.0301 125.973Z" fill="#5C683F"/>
<path id="Vector_126" d="M24.86 124.373C24.4 122.603 24.12 120.823 24 118.993C24.45 120.753 24.74 122.563 24.86 124.373Z" fill="#5C683F"/>
<path id="Vector_127" d="M23.63 123.483C23.3 122.293 23.13 121.073 23.13 119.843C23.46 121.033 23.63 122.253 23.63 123.483Z" fill="#5C683F"/>
<path id="Vector_128" d="M22.6201 124.063C22.2701 122.863 22.0801 121.613 22.0701 120.373C22.4201 121.583 22.6001 122.803 22.6201 124.063Z" fill="#5C683F"/>
<path id="Vector_129" d="M20.41 125.223C20.08 124.013 19.83 122.823 19.66 121.583C20.15 122.733 20.41 123.973 20.41 125.223Z" fill="#5C683F"/>
<path id="Vector_130" d="M19.46 126.403C19.1 125.063 18.91 123.713 18.88 122.323C19.24 123.653 19.44 125.033 19.46 126.403Z" fill="#5C683F"/>
<path id="Vector_131" d="M18.56 128.293C18.05 126.273 17.71 124.223 17.54 122.153C18.05 124.173 18.38 126.223 18.56 128.293Z" fill="#5C683F"/>
<path id="Vector_132" d="M16.49 130.643C16.07 129.063 15.82 127.443 15.74 125.813C16.16 127.393 16.41 129.013 16.49 130.643Z" fill="#5C683F"/>
<path id="Vector_133" d="M15.17 129.373C14.83 128.493 14.66 127.603 14.65 126.653C14.99 127.513 15.17 128.443 15.17 129.373Z" fill="#5C683F"/>
<path id="Vector_134" d="M14.18 129.953C13.9 129.273 13.78 128.563 13.84 127.833C14.12 128.513 14.24 129.223 14.18 129.953Z" fill="#5C683F"/>
<path id="Vector_135" d="M13.2701 130.683C13.0301 129.983 12.8801 129.303 12.8201 128.573C13.2001 129.203 13.3601 129.953 13.2701 130.683Z" fill="#5C683F"/>
<path id="Vector_136" d="M12.4101 132.623C12.0801 131.583 11.92 130.513 11.92 129.423C12.25 130.463 12.4101 131.533 12.4101 132.623Z" fill="#5C683F"/>
</g>
</g>
</svg>
