<svg width="190" height="226" viewBox="0 0 190 226" fill="none" xmlns="http://www.w3.org/2000/svg">
<g id="leaf">
<g id="Group">
<path id="Vector" d="M109.219 46.5519C109.099 49.3919 105.879 51.1919 103.499 49.6419C103.479 49.6319 103.469 49.6219 103.449 49.6119C101.759 48.4819 100.759 46.5819 99.959 44.7119C98.269 40.7719 97.1291 36.6219 95.4691 32.6719C91.3591 22.8919 83.729 14.3419 73.829 10.5219C70.109 9.08188 66.1091 8.32188 62.1291 8.58188C54.5691 9.07188 47.369 13.4719 43.479 19.9619C44.649 22.8019 47.4691 24.0119 50.3791 24.9919C53.2991 25.9719 56.389 26.3019 59.329 27.2219C64.679 28.9019 69.379 32.5619 72.269 37.3719C73.039 38.6519 73.139 40.2919 72.319 41.5419C70.779 43.9119 67.879 42.9319 65.699 41.8819C56.619 37.5119 47.589 33.0319 38.609 28.4519C38.139 28.2119 37.639 27.9619 37.109 27.9919C36.139 28.0519 35.489 29.0019 35.019 29.8519C30.399 38.2119 27.5791 47.5719 26.8091 57.0919C26.7091 58.3019 26.769 59.7619 27.799 60.4019C29.719 57.2319 33.3891 55.4319 37.0591 54.9119C40.7291 54.3919 44.4591 54.9619 48.1191 55.5719C52.0791 56.2219 56.1691 56.9619 59.4691 59.2419C59.8191 59.4819 60.189 59.7919 60.229 60.2219C60.259 60.5719 60.049 60.8819 59.819 61.1419C58.679 62.4219 56.8891 62.8619 55.2191 63.2119C49.7691 64.3419 44.229 65.1919 39.039 67.2019C33.849 69.2119 28.949 72.5519 26.319 77.4519C20.779 87.7719 26.159 100.612 31.799 110.872C34.749 105.632 33.559 99.0519 35.229 93.2819C37.219 86.4219 43.029 81.3719 49.079 77.5919C53.629 74.7519 58.469 72.3919 63.509 70.5619C65.119 69.9719 67.1591 69.5319 68.3691 70.7419C69.4791 71.8419 69.2191 73.7119 68.5991 75.1519C67.1791 78.4219 64.399 80.8719 61.769 83.2919C52.739 91.6019 44.5891 100.852 37.4691 110.852C35.7591 113.262 34.029 115.962 34.229 118.912C34.399 121.482 35.999 123.702 37.539 125.762C42.139 131.932 46.7491 138.092 51.3491 144.262C53.2391 146.802 55.1991 149.392 57.8691 151.082C55.6691 144.752 57.229 137.342 59.819 131.152C62.409 124.972 66.549 119.572 70.859 114.432C75.669 108.692 80.749 103.172 86.079 97.9119C86.599 97.3919 87.3391 96.8419 87.9991 97.1619C88.5791 97.4419 88.689 98.2219 88.649 98.8619C88.469 101.492 87.0691 103.852 85.6891 106.102C77.8291 118.872 69.079 131.582 65.949 146.242C65.709 147.372 65.499 148.552 65.739 149.682C66.289 152.232 68.8591 153.752 71.2191 154.882C82.8191 160.422 95.2391 164.002 107.599 167.552C109.049 167.972 110.949 168.232 111.759 166.962C112.189 166.292 112.119 165.432 112.039 164.652C110.589 150.802 108.909 136.262 114.289 123.422C114.499 122.932 114.809 122.372 115.339 122.332C115.769 122.302 116.129 122.632 116.399 122.962C118.669 125.682 118.739 129.552 118.889 133.102C119.099 138.082 119.689 143.042 120.649 147.932C121.589 152.702 122.929 157.512 125.709 161.492C128.489 165.482 132.939 168.562 137.799 168.642C137.089 163.472 136.379 158.302 135.669 153.132C135.339 150.692 135.119 147.882 136.839 146.122C138.619 147.422 139.409 149.652 140.059 151.762C141.629 156.922 142.889 162.172 143.839 167.482C143.999 168.382 144.179 169.342 144.839 169.982C145.359 170.482 146.089 170.692 146.789 170.862C149.789 171.582 152.869 171.962 155.949 171.962C160.629 166.562 165.249 160.832 168.139 154.292C168.599 153.242 169.019 152.132 168.939 150.992C168.829 149.472 167.839 148.172 166.919 146.952C163.229 142.032 160.039 136.722 157.429 131.142C158.759 130.412 160.399 131.092 161.699 131.872C166.849 134.932 171.109 139.462 173.849 144.782C177.669 139.702 180.559 133.932 182.319 127.822C182.689 126.552 183.009 125.232 182.819 123.922C182.449 121.402 180.319 119.552 178.259 118.052C175.129 115.772 171.799 113.692 168.119 112.512C163.489 111.022 158.519 111.002 153.759 110.032C148.989 109.052 144.059 106.772 141.929 102.392C141.719 101.962 141.539 101.442 141.759 101.012C141.969 100.592 142.469 100.432 142.929 100.342C146.909 99.5519 150.889 101.412 154.529 103.212C161.189 106.522 167.839 109.822 174.499 113.132C177.369 114.552 180.419 116.162 181.859 119.022C182.149 119.602 182.489 120.312 183.129 120.382C183.689 120.442 184.149 119.962 184.489 119.512C188.209 114.522 188.509 107.852 188.649 101.632C188.839 93.5319 189.029 85.4019 188.159 77.3519C187.899 74.9319 185.479 73.6419 183.349 72.4119C181.699 71.4619 179.909 70.7819 178.049 70.4019C167.399 68.2019 155.539 70.9019 145.859 65.8619C145.009 65.4219 144.069 64.6719 144.259 63.7319C144.459 62.7519 145.689 62.4619 146.679 62.3819C155.849 61.6719 165.129 62.3319 174.109 64.3419C179.039 65.4419 184.099 67.0819 187.629 70.6819C187.089 64.4819 185.629 58.6519 183.549 52.7919C181.149 46.0319 177.099 39.0519 170.279 36.8319C163.639 34.6719 156.169 37.6519 150.189 39.9519C147.249 41.0819 144.169 41.8419 141.029 42.1519C139.499 42.3019 137.569 42.3319 136.459 41.1619C135.369 40.0119 135.529 38.0619 136.429 36.7619C137.329 35.4519 138.789 34.6519 140.229 33.9919C149.759 29.6319 160.599 29.5119 171.059 28.9019C172.259 28.8319 173.549 28.7119 174.439 27.9119C175.459 26.9919 175.629 25.4119 175.219 24.1019C174.809 22.7919 173.919 21.7019 173.049 20.6419C169.229 15.9819 165.309 11.2419 160.179 8.09189C157.679 6.56189 154.619 5.41188 151.849 6.37188C149.609 7.14188 148.029 9.12187 146.589 11.0019C144.839 13.2819 143.089 15.5519 141.349 17.8319C139.679 20.0019 137.849 22.3019 135.029 22.7919C133.399 23.0819 131.649 22.5119 130.759 21.1219C129.449 19.0819 130.759 16.7819 132.489 15.5319C133.929 14.4919 135.669 13.9419 137.229 13.0919C141.309 10.8719 144.089 6.42187 144.299 1.78187C141.279 0.331873 137.349 0.191881 134.089 0.961881C126.939 2.66188 120.399 6.85188 115.859 12.6319C111.319 18.4119 108.809 25.7619 108.859 33.1119C108.879 36.1319 109.319 39.1319 109.289 42.1519C109.279 43.5619 109.289 45.1019 109.219 46.6019V46.5519Z" stroke="#5C683F" stroke-linecap="round" stroke-linejoin="round"/>
<path id="Vector_2" d="M72.1891 9.93188C76.4891 6.91188 81.5491 5.14188 86.3991 6.74188C90.0891 7.96188 92.9191 10.9419 95.3391 13.9819C101.679 21.9419 106.429 31.1519 109.289 40.9219" stroke="#5C683F" stroke-linecap="round" stroke-linejoin="round"/>
<path id="Vector_3" d="M52.8691 35.6119C53.4791 34.4819 54.0991 33.3619 54.7291 32.2419C55.7491 30.4219 56.7991 28.6019 57.8891 26.8219" stroke="#5C683F" stroke-linecap="round" stroke-linejoin="round"/>
<path id="Vector_4" d="M37.9691 67.6219C39.6891 63.3419 41.479 59.0919 43.369 54.8919" stroke="#5C683F" stroke-linecap="round" stroke-linejoin="round"/>
<path id="Vector_5" d="M42.3391 83.0119C36.9291 97.4419 32.4491 112.252 28.3691 127.122C20.0991 157.282 13.4191 187.872 8.34908 218.732C8.00908 220.802 7.60907 223.002 6.14907 224.502C6.02907 224.622 5.88907 224.742 5.74907 224.852C3.48907 226.492 0.309051 224.472 0.509051 221.682C2.81905 188.702 10.3391 156.272 19.2591 124.432C21.5691 116.192 23.9791 107.962 26.5591 99.7919" stroke="#5C683F" stroke-linecap="round" stroke-linejoin="round"/>
<path id="Vector_6" d="M53.6091 56.6819C52.3891 59.1819 51.1991 61.7019 50.0591 64.2319" stroke="#5C683F" stroke-linecap="round" stroke-linejoin="round"/>
<path id="Vector_7" d="M67.9991 32.2019C66.0591 34.8319 64.2391 37.5519 62.5191 40.3419" stroke="#5C683F" stroke-linecap="round" stroke-linejoin="round"/>
<path id="Vector_8" d="M106.699 49.9319C108.529 55.0219 110.359 60.1019 112.179 65.1919C114.449 71.5219 116.729 77.8519 119.499 83.9819C123.459 92.7319 128.409 100.992 132.719 109.582C139.719 123.542 144.979 138.292 150.229 152.992C152.409 159.112 154.609 165.282 155.519 171.712" stroke="#5C683F" stroke-linecap="round" stroke-linejoin="round"/>
<path id="Vector_9" d="M135.689 115.752C134.829 120.832 133.839 126.592 132.979 131.672C131.899 138.042 130.829 144.432 130.539 150.882C130.379 154.432 130.469 157.992 130.789 161.532" stroke="#5C683F" stroke-linecap="round" stroke-linejoin="round"/>
<path id="Vector_10" d="M133.779 111.552C148.659 113.142 163.019 119.712 173.719 130.172" stroke="#5C683F" stroke-linecap="round" stroke-linejoin="round"/>
<path id="Vector_11" d="M122.859 91.3619C115.349 96.8519 110.239 104.672 106.729 113.282C103.219 121.892 101.489 131.122 100.249 140.342" stroke="#5C683F" stroke-linecap="round" stroke-linejoin="round"/>
<path id="Vector_12" d="M117.249 78.9019C110.269 86.9019 105.079 96.3419 101.089 106.182C97.0991 116.022 94.2591 126.282 91.5991 136.562C89.9191 143.052 88.299 149.612 88.069 156.312" stroke="#5C683F" stroke-linecap="round" stroke-linejoin="round"/>
<path id="Vector_13" d="M121.549 88.2319C126.299 88.3819 131.039 87.7719 135.779 87.5719C151.739 86.9019 167.869 91.0319 181.539 99.2919" stroke="#5C683F" stroke-linecap="round" stroke-linejoin="round"/>
<path id="Vector_14" d="M111.299 63.7119C110.089 65.2819 108.769 66.7719 107.389 68.1919C96.4091 79.4519 81.4691 86.0819 70.0291 96.8619C62.2891 104.152 56.2891 113.292 52.6691 123.292" stroke="#5C683F" stroke-linecap="round" stroke-linejoin="round"/>
<path id="Vector_15" d="M109.369 57.3819C109.099 58.8719 107.299 60.3819 105.859 60.8119C95.799 63.8419 85.319 65.4919 74.819 65.7219C71.799 65.7819 68.7691 65.7219 65.7491 65.9719C55.7991 66.7519 46.129 70.8019 38.579 77.3419" stroke="#5C683F" stroke-linecap="round" stroke-linejoin="round"/>
<path id="Vector_16" d="M108.219 54.7119C96.1691 55.3219 84.0191 54.0919 72.3391 51.0819C65.1991 49.2419 58.0491 46.6219 52.4791 41.7919" stroke="#5C683F" stroke-linecap="round" stroke-linejoin="round"/>
<path id="Vector_17" d="M107.159 52.7219C106.149 52.9019 105.119 52.6919 104.129 52.4319C95.9991 50.2719 89.2991 44.5619 83.5391 38.4419C77.7791 32.3219 72.5991 25.5719 65.9991 20.3519" stroke="#5C683F" stroke-linecap="round" stroke-linejoin="round"/>
<path id="Vector_18" d="M108.109 53.8719C109.309 53.9119 109.869 53.2319 110.619 52.3019C111.369 51.3619 111.819 50.2219 112.259 49.1019C115.129 41.7119 118.009 34.3219 120.879 26.9319C123.709 19.6619 126.829 12.0019 133.129 7.39188" stroke="#5C683F" stroke-linecap="round" stroke-linejoin="round"/>
<path id="Vector_19" d="M110.199 58.9419C112.819 56.7519 114.019 53.9319 115.679 50.9519C122.189 39.2319 131.109 28.5419 142.729 21.8419" stroke="#5C683F" stroke-linecap="round" stroke-linejoin="round"/>
<path id="Vector_20" d="M112.679 66.0919C117.889 65.7219 122.519 62.7919 127.049 60.1819C134.279 56.0119 141.919 52.4319 150.019 50.4119C158.119 48.3819 166.709 47.9519 174.799 50.0219" stroke="#5C683F" stroke-linecap="round" stroke-linejoin="round"/>
<path id="Vector_21" d="M117.429 109.162C117.359 109.462 117.299 109.782 117.339 110.082C117.449 110.802 118.159 111.322 118.879 111.392C119.599 111.462 120.309 111.162 120.909 110.752C122.649 109.562 126.449 103.622 124.189 101.782C121.229 99.3819 117.879 107.242 117.419 109.162H117.429Z" stroke="#5C683F" stroke-linecap="round" stroke-linejoin="round"/>
<path id="Vector_22" d="M96.8691 88.3019C94.8991 91.0619 93.5391 94.3819 93.6791 97.7719C93.6991 98.3719 93.7791 98.9819 94.0791 99.5019C94.3791 100.022 94.9491 100.422 95.5391 100.372C96.0691 100.322 96.5091 99.9519 96.8891 99.5819C100.369 96.2119 102.829 91.8219 103.929 87.1019C104.269 85.6319 105.119 81.5319 102.279 82.5019C100.379 83.1519 98.0091 86.7219 96.8791 88.3019H96.8691Z" stroke="#5C683F" stroke-linecap="round" stroke-linejoin="round"/>
<path id="Vector_23" d="M85.1091 70.0619C82.5791 71.1619 80.3191 72.8919 78.5891 75.0419C78.0991 75.6619 77.6191 76.4819 77.9591 77.2019C78.3491 78.0519 79.5291 78.0919 80.4491 77.9419C83.8491 77.3719 87.0691 75.7719 89.5891 73.4219C90.3591 72.7019 93.0191 69.7219 91.7491 68.5419C90.7491 67.6119 86.2191 69.5919 85.1091 70.0719V70.0619Z" stroke="#5C683F" stroke-linecap="round" stroke-linejoin="round"/>
<path id="Vector_24" d="M72.0191 54.0819C71.1191 54.0519 70.0491 54.1119 69.5891 54.8819C69.0291 55.8019 69.8091 56.9719 70.6791 57.6019C72.4191 58.8619 81.7991 61.5219 82.3591 58.2719C83.1091 53.9419 74.2191 54.1519 72.0191 54.0819Z" stroke="#5C683F" stroke-linecap="round" stroke-linejoin="round"/>
<path id="Vector_25" d="M115.939 57.9619C115.909 58.1419 115.889 58.3319 115.959 58.4919C116.029 58.6519 116.189 58.7519 116.339 58.8319C117.239 59.2819 118.329 59.0619 119.279 58.7119C121.949 57.7119 132.949 48.7219 126.579 46.4919C124.159 45.6419 121.139 48.6619 119.699 50.2819C117.779 52.4319 116.419 55.1119 115.949 57.9619H115.939Z" stroke="#5C683F" stroke-linecap="round" stroke-linejoin="round"/>
<path id="Vector_26" d="M134.639 46.7319C133.959 46.8119 133.229 46.9319 132.749 47.4219C131.949 48.2219 132.289 49.6919 133.169 50.4019C134.049 51.1119 135.259 51.2319 136.389 51.2019C138.289 51.1419 140.209 50.7019 141.789 49.6519C143.359 48.6019 143.639 46.7819 141.709 46.2519C139.739 45.7219 136.629 46.4819 134.639 46.7319Z" stroke="#5C683F" stroke-linecap="round" stroke-linejoin="round"/>
<path id="Vector_27" d="M136.429 71.8919C134.289 70.6819 131.859 69.7319 129.429 70.1019C128.479 70.2519 127.519 70.6219 126.889 71.3519C126.449 71.8619 126.209 72.5119 126.009 73.1619C125.729 74.0619 125.519 75.0419 125.789 75.9419C126.259 77.5319 128.009 78.3619 129.639 78.7019C131.419 79.0719 133.259 79.1019 135.019 79.5419C136.579 79.9319 138.049 80.6419 139.599 81.0719C140.869 81.4219 142.189 81.5819 143.499 81.5519C146.909 81.4519 145.829 77.2519 143.899 75.8519C141.749 74.3019 138.759 73.2119 136.429 71.8919Z" stroke="#5C683F" stroke-linecap="round" stroke-linejoin="round"/>
</g>
<g id="Group_2">
<path id="Vector_28" d="M2.19905 216.152C2.08905 212.872 2.31906 209.582 2.88906 206.362C2.72906 208.802 2.37905 213.712 2.19905 216.152Z" fill="#5C683F"/>
<path id="Vector_29" d="M3.18909 214.892C3.01909 212.202 3.14908 209.482 3.58908 206.822C3.51908 209.522 3.37909 212.202 3.18909 214.892Z" fill="#5C683F"/>
<path id="Vector_30" d="M4.06907 212.622C3.87907 210.552 4.02908 208.452 4.51908 206.432C4.38908 208.512 4.23907 210.552 4.06907 212.622Z" fill="#5C683F"/>
<path id="Vector_31" d="M5.11909 210.742C4.96909 208.952 5.13909 207.142 5.61909 205.412C5.49909 207.202 5.33909 208.962 5.11909 210.742Z" fill="#5C683F"/>
<path id="Vector_32" d="M6.07907 209.562C5.94907 207.692 6.12906 205.802 6.60906 203.992C6.48906 205.862 6.30907 207.702 6.07907 209.562Z" fill="#5C683F"/>
<path id="Vector_33" d="M6.86908 208.782C6.89908 206.942 7.09907 205.092 7.48907 203.292C7.45907 205.152 7.25908 206.962 6.86908 208.782Z" fill="#5C683F"/>
<path id="Vector_34" d="M8.07904 207.842C8.11904 205.752 8.33905 203.692 8.74905 201.642C8.70905 203.722 8.47904 205.802 8.07904 207.842Z" fill="#5C683F"/>
<path id="Vector_35" d="M9.60907 206.742C9.71907 204.572 9.99909 202.432 10.4691 200.312C10.3691 202.472 10.0791 204.622 9.60907 206.742Z" fill="#5C683F"/>
<path id="Vector_36" d="M27.1191 102.052C26.4991 105.102 25.6991 108.102 24.7291 111.052C25.3491 108.002 26.1491 105.002 27.1191 102.052Z" fill="#5C683F"/>
<path id="Vector_37" d="M27.769 104.152C27.849 105.132 27.599 106.142 27.069 106.972C27.259 106.002 27.479 105.102 27.769 104.152Z" fill="#5C683F"/>
<path id="Vector_38" d="M28.9391 105.802C28.5691 107.912 28.0291 109.982 27.3091 111.992C27.6791 109.882 28.2191 107.812 28.9391 105.802Z" fill="#5C683F"/>
<path id="Vector_39" d="M29.6291 107.932C29.3491 109.802 28.9091 111.612 28.2791 113.392C28.5491 111.532 29.0091 109.702 29.6291 107.932Z" fill="#5C683F"/>
<path id="Vector_40" d="M30.4891 109.182C30.0591 111.602 29.4491 113.982 28.6691 116.312C29.0991 113.892 29.7091 111.512 30.4891 109.182Z" fill="#5C683F"/>
<path id="Vector_41" d="M40.6091 66.4819C41.0491 64.7119 41.6591 63.0119 42.4491 61.3719C42.0091 63.1319 41.3891 64.8419 40.6091 66.4819Z" fill="#5C683F"/>
<path id="Vector_42" d="M42.3791 65.8419C42.5991 64.6019 42.9791 63.4319 43.5391 62.3119C43.3291 63.5419 42.9291 64.7319 42.3791 65.8419Z" fill="#5C683F"/>
<path id="Vector_43" d="M43.699 65.1319C43.949 64.1119 44.3591 63.1819 44.9391 62.3019C44.6991 63.3019 44.269 64.2719 43.699 65.1319Z" fill="#5C683F"/>
<path id="Vector_44" d="M45.2791 64.8219C45.5991 63.3419 46.0891 61.9419 46.7591 60.5919C46.4391 62.0619 45.9391 63.4819 45.2791 64.8219Z" fill="#5C683F"/>
<path id="Vector_45" d="M48.3691 55.8719C48.3491 56.7519 48.1491 57.5919 47.7691 58.3819C47.7891 57.5019 47.9891 56.6619 48.3691 55.8719Z" fill="#5C683F"/>
<path id="Vector_46" d="M49.5691 55.8019C49.3991 56.8519 49.1391 57.8519 48.7691 58.8519C48.7691 57.7819 49.0491 56.7319 49.5691 55.8019Z" fill="#5C683F"/>
<path id="Vector_47" d="M54.209 36.2219C54.749 34.8519 55.459 33.5719 56.319 32.3819C55.779 33.7519 55.069 35.0319 54.209 36.2219Z" fill="#5C683F"/>
<path id="Vector_48" d="M55.2291 36.9219C55.7091 35.6319 56.3591 34.4219 57.1591 33.3019C56.6791 34.5919 56.0291 35.8019 55.2291 36.9219Z" fill="#5C683F"/>
<path id="Vector_49" d="M56.4291 36.9319C56.6391 35.9819 57.1191 35.1019 57.8091 34.4119C57.4191 35.3119 56.9691 36.1219 56.4291 36.9319Z" fill="#5C683F"/>
<path id="Vector_50" d="M57.319 38.0819C57.739 36.9519 58.3191 35.9119 59.0591 34.9519C58.6391 36.0819 58.059 37.1219 57.319 38.0819Z" fill="#5C683F"/>
<path id="Vector_51" d="M64.509 29.5819C63.699 31.1319 62.809 33.0119 61.709 34.1919L62.039 33.9419C61.929 34.0619 61.6891 34.3319 61.5891 34.4419C62.4191 32.7419 63.399 31.1119 64.519 29.5819H64.509Z" fill="#5C683F"/>
<path id="Vector_52" d="M65.5891 30.3519C64.9491 31.5419 64.3691 32.7019 63.7791 33.9219C64.0191 32.5919 64.6691 31.3319 65.5891 30.3519Z" fill="#5C683F"/>
<path id="Vector_53" d="M105.599 50.0019C104.089 46.4319 102.889 42.7219 102.009 38.9419C103.239 42.6219 104.429 46.2919 105.599 50.0019Z" fill="#5C683F"/>
<path id="Vector_54" d="M106.519 49.6219C105.859 48.0819 105.369 46.4719 105.069 44.8319C105.729 46.3819 106.209 47.9719 106.519 49.6219Z" fill="#5C683F"/>
<path id="Vector_55" d="M107.449 49.0819C106.789 47.9019 106.399 46.5719 106.319 45.2219C106.749 46.5019 107.119 47.7619 107.449 49.0819Z" fill="#5C683F"/>
<path id="Vector_56" d="M108.129 48.2719C107.749 47.6219 107.529 46.9119 107.499 46.1619C107.889 46.8119 108.099 47.5219 108.129 48.2719Z" fill="#5C683F"/>
<path id="Vector_57" d="M108.639 46.9619C107.499 44.4019 106.649 41.7019 106.099 38.9519C106.999 41.6119 107.839 44.2719 108.639 46.9619Z" fill="#5C683F"/>
<path id="Vector_58" d="M109.119 43.2719C108.479 42.0819 108.009 40.8219 107.719 39.5019C108.359 40.6919 108.819 41.9519 109.119 43.2719Z" fill="#5C683F"/>
<path id="Vector_59" d="M101.979 48.4419C100.999 45.8019 100.199 43.1119 99.569 40.3619C100.549 43.0019 101.349 45.6919 101.979 48.4419Z" fill="#5C683F"/>
<path id="Vector_60" d="M87.3591 14.6519C88.3191 15.6419 89.1291 16.7319 89.7991 17.9319C88.8391 16.9519 88.0291 15.8519 87.3591 14.6519Z" fill="#5C683F"/>
<path id="Vector_61" d="M89.1591 15.3519C89.9691 16.2519 90.6091 17.2319 91.1191 18.3319C90.3191 17.4519 89.6591 16.4319 89.1591 15.3519Z" fill="#5C683F"/>
<path id="Vector_62" d="M90.4691 15.5319C91.2791 16.3319 91.939 17.2419 92.449 18.2619C91.639 17.4619 90.9791 16.5519 90.4691 15.5319Z" fill="#5C683F"/>
<path id="Vector_63" d="M91.5091 15.2819C92.3391 16.2219 93.0191 17.2719 93.5491 18.4119C92.7191 17.4719 92.0391 16.4219 91.5091 15.2819Z" fill="#5C683F"/>
<path id="Vector_64" d="M92.3691 15.1219C93.4091 16.0219 94.2391 17.1619 94.7891 18.4219C93.9291 17.3519 93.1391 16.2719 92.3691 15.1219Z" fill="#5C683F"/>
<path id="Vector_65" d="M93.6691 15.1419C94.4691 15.9919 95.1491 16.9619 95.6591 18.0219C94.8391 17.1619 94.1891 16.2119 93.6691 15.1419Z" fill="#5C683F"/>
<path id="Vector_66" d="M94.3891 14.9119C95.3691 15.7519 96.1191 16.8819 96.5091 18.1119C95.7791 17.0319 95.0991 15.9919 94.3891 14.9119Z" fill="#5C683F"/>
<path id="Vector_67" d="M142.749 153.762C143.329 156.262 143.719 158.782 143.939 161.332C143.359 158.842 142.969 156.312 142.749 153.762Z" fill="#5C683F"/>
<path id="Vector_68" d="M144.309 157.972C144.829 159.662 145.169 161.382 145.329 163.142C144.809 161.452 144.469 159.732 144.309 157.972Z" fill="#5C683F"/>
<path id="Vector_69" d="M145.529 159.622C145.929 160.892 146.149 162.242 146.189 163.572C145.789 162.272 145.569 160.982 145.529 159.622Z" fill="#5C683F"/>
<path id="Vector_70" d="M146.819 160.262C147.229 161.602 147.449 162.972 147.499 164.372C147.089 163.032 146.869 161.662 146.819 160.262Z" fill="#5C683F"/>
<path id="Vector_71" d="M147.759 161.352C148.189 162.342 148.439 163.382 148.519 164.462C148.089 163.472 147.839 162.432 147.759 161.352Z" fill="#5C683F"/>
<path id="Vector_72" d="M149.049 160.912C149.329 162.232 149.569 163.512 149.769 164.842C149.219 163.612 148.969 162.252 149.049 160.912Z" fill="#5C683F"/>
<path id="Vector_73" d="M149.929 161.342C150.399 162.522 150.699 163.752 150.819 165.022C150.349 163.842 150.049 162.612 149.929 161.342Z" fill="#5C683F"/>
<path id="Vector_74" d="M150.969 161.752C151.399 163.082 151.759 164.392 152.049 165.752C151.409 164.512 151.049 163.142 150.969 161.752Z" fill="#5C683F"/>
<path id="Vector_75" d="M152.209 162.652C152.669 163.982 152.949 165.352 153.049 166.752C152.589 165.422 152.309 164.052 152.209 162.652Z" fill="#5C683F"/>
<path id="Vector_76" d="M120.209 132.022C120.329 133.312 120.269 134.602 120.029 135.872C119.909 134.582 119.969 133.292 120.209 132.022Z" fill="#5C683F"/>
<path id="Vector_77" d="M120.909 133.382C121.089 134.822 121.099 136.272 120.909 137.722C120.729 136.282 120.729 134.832 120.909 133.382Z" fill="#5C683F"/>
<path id="Vector_78" d="M121.949 134.712C121.949 136.022 121.949 138.662 121.949 139.962C121.579 138.242 121.579 136.432 121.949 134.712Z" fill="#5C683F"/>
<path id="Vector_79" d="M122.809 136.062C123.029 137.892 123.069 139.722 122.929 141.552C122.709 139.722 122.669 137.892 122.809 136.062Z" fill="#5C683F"/>
<path id="Vector_80" d="M123.769 137.482C123.769 139.712 123.889 141.902 124.129 144.122C123.529 141.972 123.409 139.672 123.769 137.482Z" fill="#5C683F"/>
<path id="Vector_81" d="M124.949 139.552C124.989 141.342 125.069 143.082 125.189 144.872C124.719 143.152 124.639 141.312 124.949 139.552Z" fill="#5C683F"/>
<path id="Vector_82" d="M126.029 141.552C126.269 143.322 126.459 145.062 126.609 146.842C126.099 145.132 125.909 143.332 126.029 141.552Z" fill="#5C683F"/>
<path id="Vector_83" d="M126.989 142.052C127.169 143.832 127.309 145.572 127.419 147.352C126.949 145.632 126.799 143.822 126.989 142.052Z" fill="#5C683F"/>
<path id="Vector_84" d="M127.999 143.552C128.219 145.182 128.389 146.792 128.499 148.432C128.029 146.852 127.869 145.192 127.999 143.552Z" fill="#5C683F"/>
<path id="Vector_85" d="M129.059 143.972C129.349 145.652 129.469 147.332 129.399 149.032C129.109 147.362 128.999 145.662 129.059 143.972Z" fill="#5C683F"/>
<path id="Vector_86" d="M113.839 85.1719C112.959 86.6419 112.069 88.0619 111.109 89.4919C111.739 87.9019 112.669 86.4319 113.839 85.1719Z" fill="#5C683F"/>
<path id="Vector_87" d="M113.519 87.5219C112.949 88.7119 112.239 89.8019 111.369 90.7819C111.929 89.5919 112.649 88.5019 113.519 87.5219Z" fill="#5C683F"/>
<path id="Vector_88" d="M113.769 88.6619C113.129 89.9419 112.339 91.1219 111.399 92.1919C112.039 90.9119 112.829 89.7319 113.769 88.6619Z" fill="#5C683F"/>
<path id="Vector_89" d="M113.529 90.4519C112.989 91.7019 112.299 92.8719 111.449 93.9319C111.989 92.6819 112.679 91.5119 113.529 90.4519Z" fill="#5C683F"/>
<path id="Vector_90" d="M114.569 90.8719C113.799 92.3619 112.879 93.7219 111.809 95.0119C112.569 93.5419 113.509 92.1419 114.569 90.8719Z" fill="#5C683F"/>
<path id="Vector_91" d="M115.179 92.0019C114.339 93.6719 113.349 95.2519 112.209 96.7319C113.049 95.0619 114.039 93.4819 115.179 92.0019Z" fill="#5C683F"/>
<path id="Vector_92" d="M115.519 93.3719C114.739 94.9319 113.789 96.4019 112.699 97.7619C113.489 96.1919 114.419 94.7419 115.519 93.3719Z" fill="#5C683F"/>
<path id="Vector_93" d="M116.269 94.3219C115.249 96.1419 114.229 97.9319 113.189 99.7319C113.899 97.7719 114.949 95.9319 116.269 94.3219Z" fill="#5C683F"/>
<path id="Vector_94" d="M78.1491 120.732L74.5291 127.052C75.4091 124.782 76.6391 122.642 78.1491 120.732Z" fill="#5C683F"/>
<path id="Vector_95" d="M77.8791 123.582C76.9891 125.662 75.9491 127.632 74.7291 129.532C75.6091 127.472 76.6691 125.472 77.8791 123.582Z" fill="#5C683F"/>
<path id="Vector_96" d="M78.1291 125.492C77.1391 127.532 76.1291 129.522 75.0491 131.512C75.7891 129.372 76.8291 127.342 78.1291 125.492Z" fill="#5C683F"/>
<path id="Vector_97" d="M78.4991 126.722C77.9291 128.632 77.0691 130.462 75.9391 132.102C76.7491 130.272 77.5891 128.502 78.4991 126.722Z" fill="#5C683F"/>
<path id="Vector_98" d="M79.2091 127.802C78.5191 129.812 77.6691 131.762 76.6491 133.632C77.3291 131.622 78.1891 129.672 79.2091 127.802Z" fill="#5C683F"/>
<path id="Vector_99" d="M80.0791 128.832C79.3991 130.902 78.5491 132.902 77.5391 134.822C78.2191 132.752 79.0691 130.752 80.0791 128.832Z" fill="#5C683F"/>
<path id="Vector_100" d="M81.0991 130.002C80.5691 131.932 79.8791 133.812 79.0191 135.612C79.5391 133.682 80.2391 131.812 81.0991 130.002Z" fill="#5C683F"/>
<path id="Vector_101" d="M82.619 130.212C81.819 132.692 80.8591 135.112 79.7191 137.462C80.5191 134.982 81.489 132.562 82.619 130.212Z" fill="#5C683F"/>
<path id="Vector_102" d="M83.9991 130.442C83.2691 132.832 82.3691 135.152 81.3091 137.412C82.0391 135.022 82.9391 132.702 83.9991 130.442Z" fill="#5C683F"/>
<path id="Vector_103" d="M84.9091 130.932C84.3091 133.362 83.529 135.732 82.579 138.052C83.179 135.622 83.9591 133.252 84.9091 130.932Z" fill="#5C683F"/>
<path id="Vector_104" d="M85.6991 133.122C85.2191 135.232 84.5691 137.302 83.7391 139.302C84.2191 137.192 84.8691 135.122 85.6991 133.122Z" fill="#5C683F"/>
<path id="Vector_105" d="M85.8491 136.952C85.5891 138.422 85.1491 139.872 84.5391 141.232C84.8091 139.742 85.2391 138.332 85.8491 136.952Z" fill="#5C683F"/>
<path id="Vector_106" d="M86.9291 136.942C86.6391 138.802 86.1791 140.622 85.5491 142.392C85.8291 140.532 86.2991 138.712 86.9291 136.942Z" fill="#5C683F"/>
<path id="Vector_107" d="M88.039 138.192C87.929 140.162 87.4391 142.122 86.5991 143.902C86.9691 142.482 87.699 139.622 88.039 138.192Z" fill="#5C683F"/>
<path id="Vector_108" d="M90.0691 135.342C89.9291 137.902 89.3691 140.452 88.4291 142.832C89.0291 140.332 89.5691 137.862 90.0691 135.342Z" fill="#5C683F"/>
<path id="Vector_109" d="M74.819 94.0419C77.609 91.7319 80.509 89.5519 83.519 87.5319C80.729 89.8519 77.829 92.0119 74.819 94.0419Z" fill="#5C683F"/>
<path id="Vector_110" d="M77.0991 93.6419C78.6791 92.1719 80.3891 90.8219 82.1891 89.6319C80.5991 91.1119 78.9091 92.4419 77.0991 93.6419Z" fill="#5C683F"/>
<path id="Vector_111" d="M77.6891 94.7619C79.4391 92.8419 81.4791 91.1819 83.7091 89.8519C82.1991 91.0619 79.1791 93.5319 77.6891 94.7619Z" fill="#5C683F"/>
<path id="Vector_112" d="M78.959 95.0619C80.419 93.2919 82.2991 91.8419 84.3791 90.8719C82.4791 92.1619 80.689 93.5419 78.959 95.0619Z" fill="#5C683F"/>
<path id="Vector_113" d="M79.7391 95.5619C81.2991 93.8919 83.1491 92.4719 85.1691 91.3919C83.8091 92.4219 81.0791 94.5119 79.7391 95.5619Z" fill="#5C683F"/>
<path id="Vector_114" d="M80.2691 96.9419C81.9791 95.0019 84.0091 93.3119 86.2291 91.9919C84.2091 93.6219 82.2391 95.2519 80.2691 96.9419Z" fill="#5C683F"/>
<path id="Vector_115" d="M81.5091 97.6919C82.7691 96.1019 84.3491 94.7419 86.1091 93.7319C84.9491 94.7019 82.6391 96.6919 81.5091 97.6919Z" fill="#5C683F"/>
<path id="Vector_116" d="M81.1391 99.3719C82.8591 97.4619 84.9291 95.8519 87.1991 94.6519C85.1191 96.1619 83.1191 97.7219 81.1391 99.3719Z" fill="#5C683F"/>
<path id="Vector_117" d="M81.7491 100.352C83.5091 98.6719 85.3791 97.1219 87.3691 95.7219C85.6091 97.4019 83.7391 98.9519 81.7491 100.352Z" fill="#5C683F"/>
<path id="Vector_118" d="M43.5291 104.962C46.2391 101.112 49.4691 97.5919 53.0891 94.5719C49.7191 97.8719 46.5291 101.322 43.5291 104.962Z" fill="#5C683F"/>
<path id="Vector_119" d="M45.199 104.832C46.989 102.112 49.149 99.6119 51.579 97.4519C49.399 99.8819 47.279 102.332 45.199 104.832Z" fill="#5C683F"/>
<path id="Vector_120" d="M46.0591 105.872C47.3991 103.372 49.2191 101.112 51.3791 99.2819C49.4691 101.382 47.7091 103.562 46.0591 105.872Z" fill="#5C683F"/>
<path id="Vector_121" d="M47.0591 105.952C48.4991 103.372 50.5091 101.092 52.8891 99.3419C50.7391 101.372 48.8091 103.572 47.0591 105.952Z" fill="#5C683F"/>
<path id="Vector_122" d="M48.3591 106.592C49.8191 103.802 51.8191 101.272 54.2091 99.2219C52.0691 101.542 50.1291 103.982 48.3591 106.592Z" fill="#5C683F"/>
<path id="Vector_123" d="M49.1091 107.222C50.5391 104.442 52.8291 102.202 55.1691 100.182C53.0691 102.472 50.8491 104.632 49.1091 107.222Z" fill="#5C683F"/>
<path id="Vector_124" d="M50.7391 107.832C51.8591 105.662 53.4091 103.702 55.2591 102.112C53.6591 103.962 52.1691 105.852 50.7391 107.832Z" fill="#5C683F"/>
<path id="Vector_125" d="M51.7491 108.232C53.1391 105.812 54.9991 103.632 57.1691 101.882C55.2391 103.912 53.4491 106.012 51.7491 108.232Z" fill="#5C683F"/>
<path id="Vector_126" d="M53.1491 108.792C54.2491 107.162 55.4791 105.632 56.8591 104.232C55.7591 105.862 54.5191 107.382 53.1491 108.792Z" fill="#5C683F"/>
<path id="Vector_127" d="M54.0391 109.392C55.4591 107.262 57.1591 105.322 59.0791 103.652C57.4091 105.592 55.7391 107.492 54.0391 109.392Z" fill="#5C683F"/>
<path id="Vector_128" d="M55.0891 110.122C56.2691 108.082 57.7991 106.232 59.5891 104.692C58.0591 106.492 56.5691 108.282 55.0891 110.122Z" fill="#5C683F"/>
<path id="Vector_129" d="M56.0091 111.372C57.0891 109.312 58.5391 107.442 60.2691 105.882C58.8091 107.692 57.3991 109.502 56.0091 111.372Z" fill="#5C683F"/>
<path id="Vector_130" d="M37.9791 69.4519C40.4491 68.4019 43.0091 67.5119 45.5991 66.8119C43.1191 67.8619 40.5791 68.7419 37.9791 69.4519Z" fill="#5C683F"/>
<path id="Vector_131" d="M39.6691 69.9219C41.8191 68.9719 44.0591 68.1919 46.3291 67.5919C44.1691 68.5419 41.9491 69.3219 39.6691 69.9219Z" fill="#5C683F"/>
<path id="Vector_132" d="M40.0391 71.4619C42.3391 70.3019 44.7291 69.3019 47.1691 68.4719C44.8591 69.6419 42.4891 70.6319 40.0391 71.4619Z" fill="#5C683F"/>
<path id="Vector_133" d="M39.3391 73.9719C41.3791 72.6219 43.609 71.5519 45.929 70.8019C43.739 71.8919 41.5591 72.9419 39.3391 73.9719Z" fill="#5C683F"/>
<path id="Vector_134" d="M95.709 55.4519C94.279 55.7719 92.7791 55.7619 91.3491 55.4219C92.8191 55.3919 94.239 55.4119 95.709 55.4519Z" fill="#5C683F"/>
<path id="Vector_135" d="M95.0591 56.5119C93.3191 56.5719 91.5791 56.4619 89.8691 56.1619C91.6091 56.0919 93.3491 56.2119 95.0591 56.5119Z" fill="#5C683F"/>
<path id="Vector_136" d="M95.2091 57.4819C93.3091 57.4819 91.4191 57.3219 89.5491 56.9719C91.4491 56.9619 93.3391 57.1319 95.2091 57.4819Z" fill="#5C683F"/>
<path id="Vector_137" d="M95.149 58.5319C93.359 58.5619 91.589 58.4119 89.829 58.0719C91.619 58.0419 93.389 58.1919 95.149 58.5319Z" fill="#5C683F"/>
<path id="Vector_138" d="M95.299 59.5319C93.089 59.5919 90.889 59.4619 88.699 59.1619C90.909 59.1019 93.109 59.2319 95.299 59.5319Z" fill="#5C683F"/>
<path id="Vector_139" d="M95.3491 60.3419C92.9791 60.6819 90.5591 60.7319 88.1791 60.4619C90.5791 60.3619 92.9491 60.3219 95.3491 60.3419Z" fill="#5C683F"/>
<path id="Vector_140" d="M89.4391 62.2919C91.7591 62.5019 94.0591 62.5819 96.3891 62.5119C94.0991 62.9419 91.6991 62.8619 89.4391 62.2919Z" fill="#5C683F"/>
<path id="Vector_141" d="M67.7391 23.7019C69.4291 25.0119 71.0091 26.4519 72.4591 28.0219C70.7591 26.7119 69.1891 25.2719 67.7391 23.7019Z" fill="#5C683F"/>
<path id="Vector_142" d="M67.6191 25.3119C68.9791 26.3819 70.2691 27.4819 71.5391 28.6619C70.0491 27.7819 68.7191 26.6419 67.6191 25.3119Z" fill="#5C683F"/>
<path id="Vector_143" d="M67.0891 26.3919C68.6191 27.3519 70.059 28.4819 71.359 29.7319C69.819 28.7619 68.4091 27.6519 67.0891 26.3919Z" fill="#5C683F"/>
<path id="Vector_144" d="M65.8391 27.1419C67.7991 28.5819 69.729 30.0119 71.679 31.4719C69.539 30.3119 67.5691 28.8519 65.8391 27.1419Z" fill="#5C683F"/>
<path id="Vector_145" d="M65.5391 28.5719C67.7191 29.9819 69.7791 31.5419 71.7391 33.2519C69.5591 31.8419 67.4991 30.2819 65.5391 28.5719Z" fill="#5C683F"/>
<path id="Vector_146" d="M47.5891 35.0619C45.4191 34.6019 43.3091 33.8219 41.3691 32.7419C43.4591 33.4919 45.5191 34.2519 47.5891 35.0619Z" fill="#5C683F"/>
<path id="Vector_147" d="M46.5691 36.0519C44.1991 35.2419 41.8691 34.3919 39.5391 33.4719C41.9791 34.0419 44.3391 34.9119 46.5691 36.0519Z" fill="#5C683F"/>
<path id="Vector_148" d="M45.2091 37.3019C43.2691 36.5319 40.5591 35.4819 38.6491 34.7019C40.9491 35.2319 43.1691 36.1119 45.2091 37.3019Z" fill="#5C683F"/>
<path id="Vector_149" d="M44.5591 38.2619C42.4791 37.7319 40.4391 37.0219 38.4791 36.1519C40.5691 36.6819 42.5891 37.3919 44.5591 38.2619Z" fill="#5C683F"/>
<path id="Vector_150" d="M44.359 39.3519C42.119 38.7519 39.949 37.9919 37.829 37.0519C40.059 37.6419 42.239 38.4119 44.359 39.3519Z" fill="#5C683F"/>
<path id="Vector_151" d="M44.1991 40.7419C41.9991 40.4319 39.8291 39.8419 37.7891 38.9719C39.9491 39.4919 42.0791 40.0819 44.1991 40.7419Z" fill="#5C683F"/>
<path id="Vector_152" d="M43.9091 42.3219C41.4891 41.8519 39.1291 41.2119 36.7991 40.4019C39.2091 40.8619 41.5891 41.5119 43.9091 42.3219Z" fill="#5C683F"/>
<path id="Vector_153" d="M43.3691 43.4119C41.0391 43.0119 38.7491 42.4419 36.5091 41.6919C38.8391 42.0819 41.1291 42.6619 43.3691 43.4119Z" fill="#5C683F"/>
<path id="Vector_154" d="M42.7391 44.9419C40.3091 44.6919 37.9191 44.1419 35.6191 43.3219C38.0091 43.7919 40.3691 44.3319 42.7391 44.9419Z" fill="#5C683F"/>
<path id="Vector_155" d="M42.5691 46.5219C40.0591 46.2219 37.5691 45.7519 35.1191 45.0919C37.6391 45.3919 40.1191 45.8619 42.5691 46.5219Z" fill="#5C683F"/>
<path id="Vector_156" d="M42.1491 48.0319C40.4091 47.8719 38.5091 47.5219 36.7891 47.1719C36.3591 47.1119 35.3391 46.7419 35.0291 46.8719C35.5191 46.6719 36.3091 46.9319 36.8291 46.9719C38.5691 47.2419 40.4691 47.5719 42.1491 48.0319Z" fill="#5C683F"/>
<path id="Vector_157" d="M41.5391 49.4419C39.3891 49.3919 37.2691 49.1719 35.1591 48.7619C37.3091 48.8119 39.4291 49.0419 41.5391 49.4419Z" fill="#5C683F"/>
<path id="Vector_158" d="M41.2391 50.6819C39.1391 50.5919 37.0491 50.3219 34.9891 49.8719C37.0891 49.9619 39.1791 50.2319 41.2391 50.6819Z" fill="#5C683F"/>
<path id="Vector_159" d="M42.0091 52.0319C40.0391 52.1519 38.0691 52.1019 36.1191 51.8619C38.0891 51.7419 40.0591 51.7919 42.0091 52.0319Z" fill="#5C683F"/>
<path id="Vector_160" d="M119.019 28.6019C119.389 26.6619 120.099 24.7819 121.109 23.0819C120.429 24.9419 119.739 26.7619 119.019 28.6019Z" fill="#5C683F"/>
<path id="Vector_161" d="M118.659 26.2219C119.039 24.7919 119.589 23.4319 120.299 22.1319C119.919 23.5619 119.369 24.9219 118.659 26.2219Z" fill="#5C683F"/>
<path id="Vector_162" d="M117.989 25.0619C118.259 23.8319 118.709 22.6619 119.319 21.5619C119.049 22.7919 118.599 23.9619 117.989 25.0619Z" fill="#5C683F"/>
<path id="Vector_163" d="M117.329 24.0819C117.559 22.9019 117.969 21.7719 118.549 20.7219C118.319 21.9019 117.909 23.0219 117.329 24.0819Z" fill="#5C683F"/>
<path id="Vector_164" d="M116.269 23.6619C116.539 22.4619 116.979 21.3219 117.589 20.2519C117.319 21.4519 116.879 22.5919 116.269 23.6619Z" fill="#5C683F"/>
<path id="Vector_165" d="M115.039 23.2619C115.379 21.9119 115.899 20.6219 116.579 19.4019C116.239 20.7519 115.719 22.0419 115.039 23.2619Z" fill="#5C683F"/>
<path id="Vector_166" d="M114.099 22.2619C114.469 20.9719 114.919 19.7319 115.469 18.5119C115.279 19.8419 114.809 21.1219 114.099 22.2619Z" fill="#5C683F"/>
<path id="Vector_167" d="M112.649 21.8619C112.859 20.4819 113.449 19.1419 114.339 18.0619C113.759 19.3419 113.209 20.5719 112.649 21.8619Z" fill="#5C683F"/>
<path id="Vector_168" d="M134.919 35.8519C135.899 34.7919 137.149 33.9719 138.509 33.5019C137.309 34.3019 136.139 35.0719 134.919 35.8519Z" fill="#5C683F"/>
<path id="Vector_169" d="M135.749 33.9219C136.769 33.1719 137.889 32.5719 139.079 32.1419C138.059 32.8919 136.939 33.4919 135.749 33.9219Z" fill="#5C683F"/>
<path id="Vector_170" d="M135.659 32.8319C136.659 31.9819 137.859 31.3819 139.129 31.0819C137.989 31.7219 136.849 32.2919 135.659 32.8319Z" fill="#5C683F"/>
<path id="Vector_171" d="M135.509 31.5919C136.719 30.7619 138.009 30.0919 139.389 29.5919C138.179 30.4219 136.889 31.0819 135.509 31.5919Z" fill="#5C683F"/>
<path id="Vector_172" d="M135.359 30.6519C136.629 29.6419 138.069 28.8419 139.599 28.3219C138.219 29.1819 136.819 29.9419 135.359 30.6519Z" fill="#5C683F"/>
<path id="Vector_173" d="M134.429 29.9819C135.619 28.7519 137.199 27.8519 138.869 27.4719C137.309 28.2119 135.859 29.0319 134.429 29.9819Z" fill="#5C683F"/>
<path id="Vector_174" d="M158.969 60.5019C156.799 60.6319 154.679 60.8119 152.519 61.0419C154.609 60.4519 156.819 60.2719 158.969 60.5019Z" fill="#5C683F"/>
<path id="Vector_175" d="M157.429 59.1119C155.569 59.5519 153.699 59.8119 151.779 59.8919C153.629 59.4519 155.529 59.1919 157.429 59.1119Z" fill="#5C683F"/>
<path id="Vector_176" d="M156.059 57.9619L151.579 58.8519C152.969 58.2019 154.529 57.8919 156.059 57.9619Z" fill="#5C683F"/>
<path id="Vector_177" d="M154.689 57.1519C153.289 57.3719 151.959 57.6419 150.579 58.0119C151.809 57.3119 153.279 57.0019 154.689 57.1519Z" fill="#5C683F"/>
<path id="Vector_178" d="M154.139 55.9019C152.269 56.4419 150.409 56.9119 148.499 57.3419C150.289 56.5719 152.199 56.0919 154.139 55.9019Z" fill="#5C683F"/>
<path id="Vector_179" d="M153.269 54.4719C150.979 55.1119 148.769 55.8419 146.549 56.6719C148.609 55.5019 150.919 54.7519 153.269 54.4719Z" fill="#5C683F"/>
<path id="Vector_180" d="M152.949 53.4119C150.979 54.1519 148.959 54.7119 146.899 55.1019C148.869 54.3619 150.889 53.8019 152.949 53.4119Z" fill="#5C683F"/>
<path id="Vector_181" d="M152.079 52.3119C149.469 52.9519 146.979 53.8719 144.579 55.0819C146.789 53.5519 149.409 52.5819 152.079 52.3119Z" fill="#5C683F"/>
<path id="Vector_182" d="M171.549 109.552C168.429 108.032 165.269 106.652 162.019 105.392C165.369 106.302 168.599 107.712 171.549 109.552Z" fill="#5C683F"/>
<path id="Vector_183" d="M170.619 107.632C168.879 106.962 165.359 105.652 163.609 105.002C166.059 105.512 168.429 106.412 170.619 107.632Z" fill="#5C683F"/>
<path id="Vector_184" d="M169.149 105.702C166.909 105.012 164.699 104.312 162.479 103.582C164.789 103.962 167.049 104.682 169.149 105.702Z" fill="#5C683F"/>
<path id="Vector_185" d="M168.419 103.942C166.509 103.442 164.629 102.992 162.699 102.592C164.669 102.632 166.639 103.102 168.419 103.942Z" fill="#5C683F"/>
<path id="Vector_186" d="M167.239 102.412L160.949 100.912C163.109 101.052 165.249 101.562 167.239 102.412Z" fill="#5C683F"/>
<path id="Vector_187" d="M166.869 100.632C164.419 100.372 162.009 99.9319 159.619 99.3119C162.059 99.5719 164.489 100.012 166.869 100.632Z" fill="#5C683F"/>
<path id="Vector_188" d="M166.069 98.8319C163.529 98.3519 161.009 97.9119 158.459 97.4919C161.039 97.5419 163.629 98.0019 166.069 98.8319Z" fill="#5C683F"/>
<path id="Vector_189" d="M163.909 97.0819C161.529 96.7819 159.179 96.4319 156.809 96.0219C159.209 96.0619 161.599 96.4219 163.909 97.0819Z" fill="#5C683F"/>
<path id="Vector_190" d="M163.539 95.3019C161.019 95.0619 158.519 94.8619 155.989 94.7019C158.509 94.5019 161.079 94.7019 163.539 95.3019Z" fill="#5C683F"/>
<path id="Vector_191" d="M160.999 93.5819C158.849 93.5619 156.719 93.3619 154.609 92.9819C156.759 93.0019 158.889 93.2019 160.999 93.5819Z" fill="#5C683F"/>
<path id="Vector_192" d="M160.119 92.4419C157.679 92.0419 155.249 92.0019 152.799 92.3419C155.159 91.6419 157.779 91.6819 160.119 92.4419Z" fill="#5C683F"/>
<path id="Vector_193" d="M158.569 90.9319C156.229 90.6719 153.919 90.5919 151.569 90.6719C153.869 90.2219 156.299 90.3119 158.569 90.9319Z" fill="#5C683F"/>
<path id="Vector_194" d="M155.329 89.6119C153.679 89.8219 152.029 89.8519 150.379 89.6919C152.029 89.4819 153.679 89.4519 155.329 89.6119Z" fill="#5C683F"/>
<path id="Vector_195" d="M165.889 132.052L160.269 129.992C162.249 130.332 164.159 131.032 165.889 132.052Z" fill="#5C683F"/>
<path id="Vector_196" d="M164.579 130.182C162.939 129.932 161.349 129.512 159.809 128.912C161.449 129.162 163.039 129.582 164.579 130.182Z" fill="#5C683F"/>
<path id="Vector_197" d="M163.919 128.672C162.479 128.412 161.109 127.982 159.779 127.382C161.199 127.632 162.599 128.072 163.919 128.672Z" fill="#5C683F"/>
<path id="Vector_198" d="M163.549 126.912C161.889 126.532 160.289 125.982 158.749 125.252C160.409 125.632 162.009 126.182 163.549 126.912Z" fill="#5C683F"/>
<path id="Vector_199" d="M164.029 126.162C161.979 125.532 160.009 124.732 158.099 123.762C160.139 124.392 162.129 125.202 164.029 126.162Z" fill="#5C683F"/>
<path id="Vector_200" d="M163.179 124.262C160.919 123.672 158.709 122.912 156.569 121.982C158.829 122.572 161.039 123.332 163.179 124.262Z" fill="#5C683F"/>
<path id="Vector_201" d="M162.399 123.062C160.119 122.062 157.799 121.272 155.379 120.682C157.849 120.902 160.299 121.732 162.399 123.062Z" fill="#5C683F"/>
<path id="Vector_202" d="M166.499 149.312C165.589 147.842 164.659 146.442 163.659 145.042C164.929 146.202 165.919 147.692 166.499 149.312Z" fill="#5C683F"/>
<path id="Vector_203" d="M164.909 149.352C163.839 148.012 162.919 146.562 162.159 145.032C163.229 146.372 164.139 147.822 164.909 149.352Z" fill="#5C683F"/>
<path id="Vector_204" d="M164.139 150.582C163.109 148.972 162.129 147.372 161.149 145.722C162.419 147.142 163.439 148.802 164.139 150.582Z" fill="#5C683F"/>
<path id="Vector_205" d="M163.069 151.052C162.009 149.352 160.919 147.712 159.769 146.072C161.199 147.472 162.339 149.192 163.069 151.052Z" fill="#5C683F"/>
<path id="Vector_206" d="M162.609 153.552L158.419 146.272C160.129 148.492 161.539 150.962 162.609 153.552Z" fill="#5C683F"/>
<path id="Vector_207" d="M161.139 154.302C159.969 151.832 158.689 149.462 157.269 147.132C158.989 149.242 160.319 151.702 161.139 154.302Z" fill="#5C683F"/>
<path id="Vector_208" d="M159.749 155.292C158.539 152.972 157.279 150.722 155.939 148.482C157.579 150.512 158.879 152.832 159.749 155.292Z" fill="#5C683F"/>
<path id="Vector_209" d="M158.559 155.932C157.549 153.742 156.479 151.632 155.339 149.512C156.789 151.422 157.889 153.622 158.559 155.932Z" fill="#5C683F"/>
<path id="Vector_210" d="M157.429 156.412C156.249 154.322 155.239 152.152 154.389 149.912C155.569 152.002 156.579 154.172 157.429 156.412Z" fill="#5C683F"/>
<path id="Vector_211" d="M156.509 157.702C155.749 156.082 154.189 152.842 153.399 151.232C154.769 153.202 155.829 155.402 156.509 157.702Z" fill="#5C683F"/>
<path id="Vector_212" d="M155.409 158.562C154.619 156.622 153.779 154.752 152.869 152.862C154.089 154.552 154.969 156.522 155.409 158.562Z" fill="#5C683F"/>
<path id="Vector_213" d="M155.779 164.412C154.479 161.202 153.349 157.932 152.389 154.602C153.689 157.812 154.819 161.082 155.779 164.412Z" fill="#5C683F"/>
</g>
</g>
</svg>
